<svg width="257" height="180" viewBox="0 0 257 180" fill="none" xmlns="http://www.w3.org/2000/svg">
<rect x="111.774" y="228.046" width="40.3532" height="40.3532" rx="4.45276" transform="rotate(-135 111.774 228.046)" stroke="#F0F0F0" stroke-opacity="0.2" stroke-width="0.417446"/>
<rect x="83.2405" y="199.512" width="40.3532" height="40.3532" rx="4.45276" transform="rotate(-135 83.2405 199.512)" stroke="#F0F0F0" stroke-opacity="0.2" stroke-width="0.417446"/>
<rect x="168.842" y="228.046" width="40.3532" height="40.3532" rx="4.45276" transform="rotate(-135 168.842 228.046)" stroke="#F0F0F0" stroke-opacity="0.2" stroke-width="0.417446"/>
<rect x="140.309" y="199.512" width="40.3532" height="40.3532" rx="4.45276" transform="rotate(-135 140.309 199.512)" stroke="#F0F0F0" stroke-opacity="0.2" stroke-width="0.417446"/>
<rect x="111.775" y="170.978" width="40.3532" height="40.3532" rx="4.45276" transform="rotate(-135 111.775 170.978)" stroke="#F0F0F0" stroke-opacity="0.2" stroke-width="0.417446"/>
<rect x="225.91" y="228.046" width="40.3532" height="40.3532" rx="4.45276" transform="rotate(-135 225.91 228.046)" stroke="#F0F0F0" stroke-opacity="0.2" stroke-width="0.417446"/>
<rect x="197.376" y="199.512" width="40.3532" height="40.3532" rx="4.45276" transform="rotate(-135 197.376 199.512)" stroke="#F0F0F0" stroke-opacity="0.2" stroke-width="0.417446"/>
<rect x="168.842" y="170.978" width="40.3532" height="40.3532" rx="4.45276" transform="rotate(-135 168.842 170.978)" stroke="#F0F0F0" stroke-opacity="0.2" stroke-width="0.417446"/>
<rect x="140.308" y="142.444" width="40.3532" height="40.3532" rx="4.45276" transform="rotate(-135 140.308 142.444)" stroke="#F0F0F0" stroke-opacity="0.2" stroke-width="0.417446"/>
<rect x="282.978" y="228.046" width="40.3532" height="40.3532" rx="4.45276" transform="rotate(-135 282.978 228.046)" stroke="#F0F0F0" stroke-opacity="0.2" stroke-width="0.417446"/>
<rect x="254.444" y="199.512" width="40.3532" height="40.3532" rx="4.45276" transform="rotate(-135 254.444 199.512)" stroke="#F0F0F0" stroke-opacity="0.2" stroke-width="0.417446"/>
<rect x="225.91" y="170.978" width="40.3532" height="40.3532" rx="4.45276" transform="rotate(-135 225.91 170.978)" stroke="#F0F0F0" stroke-opacity="0.2" stroke-width="0.417446"/>
<rect x="197.376" y="142.444" width="40.3532" height="40.3532" rx="4.45276" transform="rotate(-135 197.376 142.444)" stroke="#F0F0F0" stroke-opacity="0.2" stroke-width="0.417446"/>
<rect x="168.842" y="113.91" width="40.3532" height="40.3532" rx="4.45276" transform="rotate(-135 168.842 113.91)" stroke="#F0F0F0" stroke-opacity="0.2" stroke-width="0.417446"/>
<rect x="282.978" y="170.978" width="40.3532" height="40.3532" rx="4.45276" transform="rotate(-135 282.978 170.978)" stroke="#F0F0F0" stroke-opacity="0.2" stroke-width="0.417446"/>
<rect x="254.444" y="142.444" width="40.3532" height="40.3532" rx="4.45276" transform="rotate(-135 254.444 142.444)" stroke="#F0F0F0" stroke-opacity="0.2" stroke-width="0.417446"/>
<rect x="225.91" y="113.91" width="40.3532" height="40.3532" rx="4.45276" transform="rotate(-135 225.91 113.91)" stroke="#F0F0F0" stroke-opacity="0.2" stroke-width="0.417446"/>
<rect x="197.376" y="85.3763" width="40.3532" height="40.3532" rx="4.45276" transform="rotate(-135 197.376 85.3763)" stroke="#F0F0F0" stroke-opacity="0.2" stroke-width="0.417446"/>
<rect x="282.978" y="113.91" width="40.3532" height="40.3532" rx="4.45276" transform="rotate(-135 282.978 113.91)" stroke="#F0F0F0" stroke-opacity="0.2" stroke-width="0.417446"/>
<rect x="254.444" y="85.3763" width="40.3532" height="40.3532" rx="4.45276" transform="rotate(-135 254.444 85.3763)" stroke="#F0F0F0" stroke-opacity="0.2" stroke-width="0.417446"/>
<rect x="225.91" y="56.8424" width="40.3532" height="40.3532" rx="4.45276" transform="rotate(-135 225.91 56.8424)" stroke="#F0F0F0" stroke-opacity="0.2" stroke-width="0.417446"/>
<rect x="282.978" y="56.8424" width="40.3532" height="40.3532" rx="4.45276" transform="rotate(-135 282.978 56.8424)" stroke="#F0F0F0" stroke-opacity="0.2" stroke-width="0.417446"/>
<rect x="254.444" y="28.3084" width="40.3532" height="40.3532" rx="4.45276" transform="rotate(-135 254.444 28.3084)" stroke="#F0F0F0" stroke-opacity="0.2" stroke-width="0.417446"/>
<path d="M142.67 197.151L165.694 174.127C167.433 172.388 167.433 169.569 165.694 167.83L143.457 145.593C141.718 143.854 141.718 141.035 143.457 139.296L165.694 117.059C167.433 115.32 167.433 112.501 165.694 110.762L143.457 88.525C141.718 86.7861 141.718 83.9667 143.457 82.2278L165.694 59.991C167.433 58.2521 167.433 55.4327 165.694 53.6938L143.457 31.457C141.718 29.7181 141.718 26.8987 143.457 25.1598L165.694 2.92301C167.433 1.1841 167.433 -1.63524 165.694 -3.37415L142.67 -26.3981M171.204 225.685L194.228 202.661C195.967 200.922 195.967 198.103 194.228 196.364L171.991 174.127C170.252 172.388 170.252 169.569 171.991 167.83L194.228 145.593C195.967 143.854 195.967 141.035 194.228 139.296L171.991 117.059C170.252 115.32 170.252 112.501 171.991 110.762L194.228 88.525C195.967 86.7861 198.786 86.7861 200.525 88.525L222.762 110.762C224.501 112.501 224.501 115.32 222.762 117.059L200.132 139.689L199.973 139.903C198.758 141.54 198.904 143.816 200.318 145.285L202.887 147.954L222.762 167.83C224.501 169.569 227.32 169.569 229.059 167.83L251.296 145.593C253.035 143.854 253.035 141.035 251.296 139.296L228.862 116.862L228.165 116.065C227.007 114.742 227.073 112.748 228.317 111.504L230.732 109.089M228.272 111.549L251.296 88.525C253.035 86.7861 253.035 83.9667 251.296 82.2278L229.059 59.991C227.32 58.2521 227.32 55.4327 229.059 53.6938L251.296 31.457C253.035 29.7181 253.035 26.8988 251.296 25.1598L229.059 2.92301C227.32 1.1841 227.32 -1.63523 229.059 -3.37414L251.296 -25.611C253.035 -27.3499 253.035 -30.1692 251.296 -31.9081L229.059 -54.145C227.32 -55.8839 227.32 -58.7032 229.059 -60.4421L251.296 -82.679C253.035 -84.4179 253.035 -87.2372 251.296 -88.9761L228.272 -112" stroke="#F7F7F7" stroke-opacity="0.25" stroke-width="0.417446"/>
</svg>
