<?xml version="1.0" encoding="utf-8"?>
<!-- Generator: Adobe Illustrator 26.1.0, SVG Export Plug-In . SVG Version: 6.00 Build 0)  -->
<svg version="1.1" id="Layer_1" xmlns="http://www.w3.org/2000/svg" xmlns:xlink="http://www.w3.org/1999/xlink" x="0px" y="0px"
	 viewBox="200 0 900 1440"  xml:space="preserve">
<style type="text/css">
	.st0{fill:#0069B7;}
	.st1{fill:#8FC31E;}
	.st2{fill:#1E6895;}
	.st3{fill:#FEFEFE;}
</style>
<g>
	<path class="st0" d="M898.14,612.11c4.51-7.74,8.94-15.28,13.31-22.85c20.16-34.89,38.44-70.68,50.26-109.38
		c6.35-20.77,10.75-41.88,8.71-63.83c-2.5-26.88-17.01-48.35-44.23-54.06c-0.45-0.1-0.86-0.41-1.81-0.88
		c7.53-4.6,15.26-7.96,22.97-11.32c18.35-8,37.14-14.61,57.26-16.36c18.42-1.6,35.61,1.29,49.21,15.25
		c9.27,9.52,13.82,21.39,16.13,34.21c4.73,26.27,1.19,52.11-5.23,77.56c-11.49,45.53-32.46,87.05-55.49,127.61
		c-4.18,7.36-8.82,14.46-13.17,21.73c-1.1,1.84-2.28,2.97-4.68,2.96c-30.47-0.09-60.93-0.08-91.4-0.12
		C899.54,612.64,899.09,612.39,898.14,612.11z"/>
	<path class="st0" d="M765.52,897.96c-3.66,3.26-7.16,6.21-10.47,9.36c-63.81,60.78-133.55,113.8-209.11,159.12
		c-20.52,12.3-41.07,24.68-63.93,32.42c-22.27,7.53-44.87,11.08-68.13,5.05c-17.78-4.61-32.56-13.97-44.08-28.34
		c-0.41-0.51-0.74-1.1-1.06-1.68c-0.23-0.41-0.38-0.86-0.87-2c9.44,0.25,18.47-0.15,27.43-1.47c30.34-4.45,58.34-15.71,85.3-29.75
		c43.43-22.62,82.64-51.43,120.06-82.79c22.31-18.7,43.76-38.33,64.15-59.1c1.35-1.38,2.76-2.14,4.79-2.14
		c31.29,0.06,62.58,0.05,93.87,0.08C763.73,896.71,764,897.02,765.52,897.96z"/>
	<path class="st0" d="M329.61,729.35c0-26.3,0.07-52.6-0.08-78.89c-0.02-3.78,0.82-5.31,4.93-5.09c6.47,0.35,12.99,0.33,19.47,0.01
		c3.84-0.19,4.8,1.1,4.77,4.78c-0.15,19.8,0.03,39.61-0.15,59.42c-0.03,3.67,0.79,4.83,4.65,4.81c33.3-0.15,66.59-0.17,99.89,0.04
		c4.68,0.03,5.74-1.38,5.68-5.84c-0.25-19.47-0.02-38.95-0.21-58.42c-0.04-3.68,0.87-4.96,4.68-4.79c6.81,0.3,13.65,0.23,20.47,0.04
		c3.08-0.09,4.02,0.95,3.99,3.99c-0.14,11.65-0.04,23.3-0.04,34.95c0,41.28-0.05,82.55,0.09,123.83c0.01,4.03-0.86,5.61-5.17,5.34
		c-6.14-0.38-12.33-0.36-18.47-0.03c-4.18,0.23-5.63-0.71-5.57-5.34c0.29-22.47-0.02-44.94,0.26-67.41
		c0.06-4.59-1.35-5.41-5.58-5.39c-33.3,0.18-66.59,0.17-99.89,0.03c-3.73-0.02-4.81,0.96-4.78,4.71c0.16,22.8-0.03,45.6,0.15,68.41
		c0.03,3.98-1.1,5.16-5.03,4.97c-6.48-0.32-12.99-0.33-19.47-0.01c-3.8,0.19-4.73-1.02-4.71-4.73c0.16-26.46,0.08-52.93,0.08-79.39
		C329.59,729.35,329.6,729.35,329.61,729.35z"/>
	<path class="st0" d="M896.22,793.47c-0.04,6.26-0.08,12.52-0.11,18.77c-51.61,0-103.23,0-154.84,0c-0.12-0.82-0.34-1.63-0.34-2.45
		c-0.01-53.27,0.04-106.54-0.08-159.81c-0.01-4.04,1.62-4.55,5.01-4.54c34.97,0.09,69.93,0.06,104.9,0.07
		c12.99,0,25.98,0.08,38.96-0.07c3.13-0.04,4.65,0.63,4.42,4.1c-0.25,3.81-0.22,7.66-0.01,11.48c0.16,2.89-0.93,3.71-3.72,3.71
		c-40.13-0.11-80.25-0.13-120.38-0.17c-2.33,0.68-1.61,2.63-1.61,4.15c-0.04,14.46-0.03,28.93,0.01,43.39
		c0,1.44-0.47,3.03,0.87,4.22c0.13,0.32,0.26,0.64,0.4,0.96c-0.11,0.13-0.26,0.24-0.3,0.39c-0.04,0.12,0.03,0.4,0.08,0.4
		c0.78,0.12,1.56,0.3,2.35,0.3c34.92,0.01,69.84,0.01,104.76,0c1.28,0,2.71,0.38,3.62-1.02c0.74,0.01,1.49,0.01,2.23,0.02
		c-0.24,1.56-0.05,2.86,1.9,3.07c0.08,3.82-0.13,7.67,0.3,11.45c0.51,4.48-1.12,5.53-5.5,5.51c-34.95-0.19-69.9-0.05-104.85-0.19
		c-3.65-0.01-4.89,0.84-4.84,4.68c0.22,15.47,0.21,30.95,0.04,46.42c-0.04,3.76,0.76,5.51,4.94,5.09c3.79-0.39,7.65-0.11,11.47-0.11
		C822.67,793.34,859.45,793.41,896.22,793.47z"/>
	<path class="st1" d="M597.53,611.83c11.06-11.26,21.35-22.08,32.01-32.51c12.2-11.95,24.57-23.74,37.17-35.27
		c22.43-20.52,45.44-40.39,69.7-58.76c25.34-19.18,51.56-37,79.99-51.35c15.86-8,32.28-14.7,49.63-18.63
		c10.87-2.46,22.03-3.25,33.22-2.29c2.48,0.21,4.83,0.89,7.26,2.21c-27.2,8.04-50.22,23.27-72.91,39.13
		c-32.49,22.71-62.54,48.39-91.93,74.9c-29.29,26.41-57.69,53.74-85.22,81.97c-1.1,1.13-2.21,1.35-3.53,1.35
		c-17.64,0-35.28-0.01-52.93-0.05C599.53,612.54,599.08,612.29,597.53,611.83z"/>
	<path class="st0" d="M950.33,796.13c-21.88-20.28-28.58-46.16-26.67-74.75c2.83-42.32,31.51-72.22,74.88-78.75
		c26.37-3.97,52.16-2.14,76.61,9.29c16.76,7.83,27.43,21.08,32.53,38.88c0.94,3.27,0.49,4.6-3.2,4.5
		c-6.65-0.18-13.31-0.06-19.97-0.06c-1.83,0-3.5,0.16-4.34-2.26c-6.32-18.1-20.33-26.8-38.12-30.62
		c-17.54-3.76-34.74-2.38-51.43,4.2c-18.07,7.12-29,20.59-34,39.08c-4.44,16.42-4.42,32.93,0.06,49.31
		c5.59,20.43,18.64,33.7,39.18,39.35c14.69,4.04,29.65,4.82,44.48,1.55c21.87-4.82,35.23-19.08,41.47-40.17
		c1.15-3.87,2.85-4.9,6.57-4.74c6.15,0.27,12.33,0.29,18.47-0.02c3.88-0.2,4.04,1.37,3.29,4.42c-3.69,15.06-10.96,28.06-22.08,38.88
		c-6.48,4.62-12.9,9.31-20.33,12.4c-19.24,7.98-39.25,10.49-59.94,9.12c-7.99-0.53-15.69-2.5-23.58-3.46c0,0-0.02-0.01-0.02-0.01
		C972.18,808.41,960.79,803.24,950.33,796.13z"/>
	<path class="st0" d="M592.62,732.27c-14.59-18.53-29.17-37.06-43.77-55.58c-7-8.88-14.05-17.71-21.04-26.59
		c-0.97-1.24-2.46-2.22-2.52-4.58c10.35,0,20.59-0.01,30.84,0.01c1.94,0,2.84,1.49,3.83,2.83c18.07,24.46,36.2,48.87,54.14,73.41
		c2.49,3.41,3.69,4.06,6.54,0.24c18.17-24.4,36.6-48.59,54.83-72.94c2-2.68,4.12-3.76,7.46-3.68c9.25,0.21,18.5,0.07,28.71,0.07
		c-4.11,5.5-7.64,10.22-11.17,14.94c-0.39,0.28-0.87,0.49-1.16,0.86c-21.17,26.72-42.25,53.49-63.56,80.1
		c-2.49,3.11-3.38,6.08-3.36,9.93c0.09,20.3-0.06,40.6-0.12,60.9c-7.48,0.03-14.97-0.16-22.44,0.17c-4.15,0.18-5.36-1.14-5.32-5.3
		c0.21-19.11,0.12-38.22,0.04-57.34c-0.01-1.77,1.12-4.11-1.52-5.21C599.55,740.44,596.09,736.36,592.62,732.27z"/>
	<path class="st1" d="M458.47,897.32c-1.48,3.01-4.22,4.73-6.31,6.96c-12.78,13.62-18.98,30.19-21.37,48.26
		c-2.86,21.63-0.61,43.09,3.4,64.41c0.52,2.75,2.05,6.39,0,8.08c-2.16,1.79-5.11-1.02-7.54-2.15c-21-9.77-31.01-27.35-33.59-49.41
		c-2.95-25.2,1.68-49.58,9.88-73.39c0.71-2.08,1.71-3.48,4.18-3.47c16.63,0.04,33.26,0.02,49.89,0.05
		C457.43,896.67,457.86,897.04,458.47,897.32z"/>
	<path class="st2" d="M896.27,813.2c-9.14,0.07-18.27,0.19-27.41,0.2c-40.72,0.02-81.44,0.02-122.16-0.06c-1.79,0-4,1.07-5.43-1.1
		c51.61,0,103.23,0,154.84,0C896.26,812.55,896.32,812.87,896.27,813.2z"/>
	<path class="st0" d="M769.69,717.28c36.84,0.02,73.68,0.05,110.51,0.07c-0.91,1.39-2.35,1.02-3.63,1.02
		c-34.92,0.02-69.84,0.02-104.76,0c-0.78,0-1.57-0.18-2.35-0.3c-0.05-0.01-0.12-0.28-0.08-0.4
		C769.44,717.52,769.59,717.4,769.69,717.28z"/>
	<path class="st0" d="M770.03,664.55c-1.06,11.44-0.21,22.9-0.46,34.35c-0.13,5.81-0.18,11.61-0.27,17.42
		c-1.34-1.19-0.87-2.78-0.87-4.22c-0.03-14.46-0.05-28.93-0.01-43.39C768.42,667.18,767.7,665.24,770.03,664.55z"/>
	<path class="st2" d="M882.43,717.37c2.96-0.41,2.01,1.59,1.9,3.07C882.38,720.23,882.19,718.93,882.43,717.37z"/>
	<path class="st0" d="M632.26,812.2c-0.72,2.06-2.51,1.17-3.79,1.19c-6.8,0.11-13.61-0.17-20.4,0.14c-3.92,0.18-4.63-1.34-4.6-4.88
		c0.16-19.24,0.09-38.48,0.05-57.72c0-2.14-0.32-4.28-0.5-6.42c2.64,1.1,1.51,3.44,1.52,5.21c0.09,19.11,0.17,38.23-0.04,57.34
		c-0.05,4.16,1.17,5.48,5.32,5.3C617.29,812.04,624.78,812.22,632.26,812.2z"/>
	<path class="st3" d="M690.11,677.15c-0.12,0.28-0.18,0.71-0.39,0.79c-0.2,0.08-0.69-0.14-0.77-0.34c-0.08-0.2,0.14-0.69,0.34-0.77
		C689.49,676.75,689.83,677.03,690.11,677.15z"/>
	<g>
		<path class="st0" d="M393.9,836.29h5.25v38.87h-5.25v-18.14h-20.3v18.14h-5.25v-38.87h5.25v16.08h20.3V836.29z"/>
		<path class="st0" d="M407.71,855.46c0.11-3.28,1.17-5.68,3.19-7.17c2.02-1.5,4.85-2.25,8.5-2.25c0.83,0,1.79,0.09,2.9,0.27
			c1.1,0.18,2.24,0.53,3.41,1.06c1.17,0.52,2.17,1.33,2.98,2.41c0.81,1.08,1.22,2.47,1.22,4.17v16.3c0,1.12,0.52,1.68,1.57,1.68
			c0.33,0,0.85-0.07,1.57-0.22v3.46c-0.14,0.04-0.34,0.09-0.6,0.16c-0.79,0.25-1.46,0.38-2,0.38c-1.91,0-3.2-0.39-3.87-1.16
			c-0.67-0.78-1.06-1.83-1.16-3.17c-1.23,1.34-2.63,2.44-4.2,3.3s-3.58,1.3-6.04,1.3c-2.6,0-4.73-0.76-6.39-2.27
			s-2.49-3.48-2.49-5.9c0-0.79,0.09-1.62,0.27-2.46c0.18-0.85,0.57-1.72,1.16-2.63c0.6-0.9,1.48-1.71,2.65-2.41
			c1.17-0.7,2.68-1.16,4.52-1.38l7.85-0.97c0.76-0.07,1.36-0.33,1.81-0.78c0.45-0.45,0.68-1.31,0.68-2.57c0-3.07-2.22-4.6-6.66-4.6
			c-1.26,0-2.31,0.17-3.14,0.51c-0.83,0.34-1.47,0.79-1.92,1.33c-0.45,0.54-0.78,1.1-0.97,1.68c-0.2,0.58-0.35,1.23-0.46,1.95
			H407.71z M425.14,860.71c-0.43,0.33-1.16,0.61-2.19,0.87c-1.03,0.25-2.92,0.56-5.66,0.92c-0.72,0.11-1.42,0.24-2.08,0.41
			c-0.67,0.16-1.31,0.41-1.92,0.73c-0.61,0.33-1.11,0.78-1.49,1.35c-0.38,0.58-0.57,1.28-0.57,2.11c0,1.59,0.42,2.81,1.27,3.65
			c0.85,0.85,2.14,1.27,3.87,1.27c1.08,0,2.16-0.17,3.22-0.51c1.06-0.34,2.01-0.81,2.84-1.41c0.83-0.6,1.49-1.3,1.98-2.11
			s0.73-1.69,0.73-2.63V860.71z"/>
		<path class="st0" d="M438.24,855.51c0.54-1.77,1.35-3.38,2.44-4.82c1.08-1.44,2.46-2.58,4.14-3.41c1.68-0.83,3.6-1.25,5.77-1.25
			s4.09,0.42,5.77,1.25c1.68,0.83,3.06,1.96,4.14,3.38s1.89,3.03,2.44,4.82c0.54,1.79,0.81,3.62,0.81,5.5c0,1.88-0.27,3.7-0.81,5.47
			c-0.54,1.77-1.35,3.38-2.44,4.82c-1.08,1.44-2.46,2.58-4.14,3.41c-1.68,0.83-3.6,1.25-5.77,1.25s-4.09-0.42-5.77-1.25
			c-1.68-0.83-3.06-1.97-4.14-3.41c-1.08-1.44-1.89-3.05-2.44-4.82c-0.54-1.77-0.81-3.59-0.81-5.47
			C437.43,859.1,437.7,857.28,438.24,855.51z M442.74,864.45c0.25,1.23,0.68,2.4,1.27,3.52c0.6,1.12,1.43,2.04,2.52,2.76
			c1.08,0.72,2.44,1.08,4.06,1.08s2.98-0.36,4.06-1.08c1.08-0.72,1.93-1.64,2.54-2.76c0.61-1.12,1.04-2.29,1.27-3.52
			c0.23-1.23,0.35-2.38,0.35-3.46s-0.12-2.24-0.35-3.46c-0.24-1.23-0.66-2.4-1.27-3.52c-0.61-1.12-1.46-2.04-2.54-2.76
			s-2.44-1.08-4.06-1.08s-2.98,0.36-4.06,1.08s-1.92,1.64-2.52,2.76c-0.6,1.12-1.02,2.29-1.27,3.52c-0.25,1.23-0.38,2.38-0.38,3.46
			S442.49,863.22,442.74,864.45z"/>
		<path class="st0" d="M487.41,875.17h-5.25v-15.65l-14.67-23.23h6.12l11.15,18.68l11.15-18.68h6.17l-14.67,23.23V875.17z"/>
		<path class="st0" d="M519.94,875.17v-4.12l-0.11-0.11c-1.05,1.73-2.26,3-3.63,3.82c-1.37,0.81-3.16,1.22-5.36,1.22
			c-1.12,0-2.21-0.15-3.28-0.43c-1.07-0.29-2.05-0.78-2.95-1.46c-0.9-0.69-1.62-1.6-2.17-2.73c-0.54-1.14-0.81-2.52-0.81-4.14
			v-20.36h4.76v18.79c0,2.2,0.49,3.79,1.46,4.76s2.31,1.46,4.01,1.46c1.44,0,2.67-0.28,3.68-0.84c1.01-0.56,1.81-1.31,2.41-2.25
			s1.03-1.95,1.3-3.03c0.27-1.08,0.41-2.18,0.41-3.3v-15.59h4.76v28.32H519.94z"/>
		<path class="st0" d="M532.51,855.46c0.11-3.28,1.17-5.68,3.19-7.17c2.02-1.5,4.85-2.25,8.5-2.25c0.83,0,1.79,0.09,2.9,0.27
			c1.1,0.18,2.24,0.53,3.41,1.06c1.17,0.52,2.17,1.33,2.98,2.41c0.81,1.08,1.22,2.47,1.22,4.17v16.3c0,1.12,0.52,1.68,1.57,1.68
			c0.33,0,0.85-0.07,1.57-0.22v3.46c-0.14,0.04-0.34,0.09-0.6,0.16c-0.79,0.25-1.46,0.38-2,0.38c-1.91,0-3.2-0.39-3.87-1.16
			c-0.67-0.78-1.06-1.83-1.16-3.17c-1.23,1.34-2.63,2.44-4.2,3.3s-3.58,1.3-6.04,1.3c-2.6,0-4.73-0.76-6.39-2.27
			s-2.49-3.48-2.49-5.9c0-0.79,0.09-1.62,0.27-2.46c0.18-0.85,0.57-1.72,1.16-2.63c0.6-0.9,1.48-1.71,2.65-2.41
			c1.17-0.7,2.68-1.16,4.52-1.38l7.85-0.97c0.76-0.07,1.36-0.33,1.81-0.78c0.45-0.45,0.68-1.31,0.68-2.57c0-3.07-2.22-4.6-6.66-4.6
			c-1.26,0-2.31,0.17-3.14,0.51c-0.83,0.34-1.47,0.79-1.92,1.33c-0.45,0.54-0.78,1.1-0.97,1.68c-0.2,0.58-0.35,1.23-0.46,1.95
			H532.51z M549.94,860.71c-0.43,0.33-1.16,0.61-2.19,0.87c-1.03,0.25-2.92,0.56-5.66,0.92c-0.72,0.11-1.42,0.24-2.08,0.41
			c-0.67,0.16-1.31,0.41-1.92,0.73c-0.61,0.33-1.11,0.78-1.49,1.35c-0.38,0.58-0.57,1.28-0.57,2.11c0,1.59,0.42,2.81,1.27,3.65
			c0.85,0.85,2.14,1.27,3.87,1.27c1.08,0,2.16-0.17,3.22-0.51c1.06-0.34,2.01-0.81,2.84-1.41c0.83-0.6,1.49-1.3,1.98-2.11
			s0.73-1.69,0.73-2.63V860.71z"/>
		<path class="st0" d="M586.92,875.17h-4.76v-17.43c0-2.56-0.45-4.44-1.35-5.63c-0.9-1.19-2.47-1.79-4.71-1.79
			c-0.76,0-1.56,0.14-2.41,0.43s-1.66,0.79-2.44,1.49c-0.78,0.7-1.41,1.68-1.9,2.92s-0.73,2.77-0.73,4.58v15.43h-4.76v-28.32h4.49
			v4.01h0.11c0.36-0.51,0.77-1.01,1.22-1.52c0.45-0.5,1.03-1.01,1.73-1.52c0.7-0.5,1.52-0.93,2.46-1.27
			c0.94-0.34,1.99-0.51,3.14-0.51c1.23,0,2.41,0.14,3.55,0.43c1.14,0.29,2.19,0.8,3.17,1.54c0.97,0.74,1.75,1.76,2.33,3.06
			c0.58,1.3,0.87,2.91,0.87,4.82V875.17z"/>
		<path class="st0" d="M636.68,875.17h-28.7v-38.87h28.32v4.66h-23.06v11.91h21.28v4.66h-21.28v12.99h23.44V875.17z"/>
		<path class="st0" d="M648.91,875.17h-4.76v-38.87h4.76V875.17z"/>
		<path class="st0" d="M681.18,866.29c-0.11,1.01-0.52,2.17-1.25,3.46c-0.43,0.83-0.97,1.62-1.6,2.36
			c-0.63,0.74-1.36,1.38-2.19,1.92c-0.9,0.58-1.9,1.05-3,1.41c-1.1,0.36-2.66,0.54-4.68,0.54c-3.9,0-6.98-1.32-9.26-3.95
			c-2.27-2.63-3.41-6.04-3.41-10.23c0-2.24,0.27-4.3,0.81-6.2c0.54-1.9,1.38-3.56,2.52-5.01c1.14-1.44,2.56-2.56,4.28-3.36
			c1.71-0.79,3.71-1.19,5.98-1.19c4.01,0,7.04,1.46,9.1,4.39s3.09,6.97,3.09,12.13h-20.68c0,3,0.69,5.3,2.08,6.9
			c1.39,1.61,3.44,2.41,6.14,2.41c1.08,0,2.07-0.18,2.95-0.54c0.88-0.36,1.67-0.85,2.36-1.46c1.23-1.16,1.89-2.35,2-3.57H681.18z
			 M676.63,858.76c-0.07-1.19-0.26-2.28-0.57-3.28c-0.31-0.99-0.76-1.88-1.35-2.65c-0.6-0.78-1.39-1.39-2.38-1.84
			c-0.99-0.45-2.19-0.68-3.6-0.68c-1.05,0-2.06,0.23-3.03,0.68c-0.97,0.45-1.82,1.07-2.54,1.87c-0.72,0.79-1.28,1.71-1.68,2.73
			c-0.4,1.03-0.6,2.08-0.6,3.17H676.63z"/>
		<path class="st0" d="M706.03,856.38c-0.29-1.95-0.99-3.45-2.11-4.49c-1.12-1.05-2.65-1.57-4.6-1.57c-1.41,0-2.62,0.31-3.63,0.92
			c-1.01,0.61-1.82,1.43-2.44,2.44c-0.61,1.01-1.06,2.15-1.33,3.41c-0.27,1.26-0.41,2.56-0.41,3.9c0,1.37,0.11,2.68,0.32,3.93
			c0.22,1.25,0.6,2.4,1.16,3.46c0.56,1.07,1.35,1.91,2.38,2.54c1.03,0.63,2.32,0.95,3.87,0.95c1.66,0,3.1-0.59,4.33-1.76
			c1.23-1.17,2.04-2.82,2.44-4.95h4.6c-0.14,1.26-0.44,2.51-0.89,3.74c-0.45,1.23-1.13,2.38-2.03,3.46
			c-0.9,1.08-2.07,1.96-3.49,2.63c-1.43,0.67-3.13,1-5.12,1c-3.9,0-6.98-1.32-9.26-3.95c-2.27-2.63-3.41-6.04-3.41-10.23
			c0-2.24,0.27-4.3,0.81-6.2c0.54-1.9,1.38-3.56,2.52-5.01c1.14-1.44,2.56-2.56,4.28-3.36c1.71-0.79,3.71-1.19,5.98-1.19
			c1.77,0,3.31,0.29,4.63,0.87c1.32,0.58,2.4,1.36,3.25,2.36c0.85,0.99,1.49,2.1,1.92,3.33c0.43,1.23,0.7,2.49,0.81,3.79H706.03z"/>
		<path class="st0" d="M722.33,850.8v18.41c0,0.97,0.28,1.59,0.84,1.84c0.56,0.25,1.24,0.38,2.03,0.38h1.68v3.74
			c-0.4,0.04-1.12,0.11-2.17,0.22c-0.76,0.11-1.23,0.16-1.41,0.16c-2.17,0-3.66-0.53-4.49-1.6c-0.83-1.06-1.25-2.55-1.25-4.47V850.8
			h-3.84v-3.95h3.84v-7.91h4.76v7.91h4.55v3.95H722.33z"/>
		<path class="st0" d="M738.03,875.17h-4.76v-28.32h4.49v4.71h0.11c1.01-1.77,2.17-3.13,3.46-4.09c1.3-0.96,2.8-1.43,4.49-1.43
			c0.47,0,0.88,0.05,1.25,0.16v4.93h-1.79c-2.17,0-3.92,0.73-5.25,2.19c-1.34,1.46-2,3.26-2,5.39V875.17z"/>
		<path class="st0" d="M752.65,841.71v-5.41h4.76v5.41H752.65z M757.41,875.17h-4.76v-28.32h4.76V875.17z"/>
		<path class="st0" d="M783.35,856.38c-0.29-1.95-0.99-3.45-2.11-4.49c-1.12-1.05-2.65-1.57-4.6-1.57c-1.41,0-2.62,0.31-3.63,0.92
			c-1.01,0.61-1.82,1.43-2.44,2.44c-0.61,1.01-1.06,2.15-1.33,3.41c-0.27,1.26-0.41,2.56-0.41,3.9c0,1.37,0.11,2.68,0.32,3.93
			c0.22,1.25,0.6,2.4,1.16,3.46c0.56,1.07,1.35,1.91,2.38,2.54c1.03,0.63,2.32,0.95,3.87,0.95c1.66,0,3.1-0.59,4.33-1.76
			c1.23-1.17,2.04-2.82,2.44-4.95h4.6c-0.14,1.26-0.44,2.51-0.89,3.74c-0.45,1.23-1.13,2.38-2.03,3.46
			c-0.9,1.08-2.07,1.96-3.49,2.63c-1.43,0.67-3.13,1-5.12,1c-3.9,0-6.98-1.32-9.26-3.95c-2.27-2.63-3.41-6.04-3.41-10.23
			c0-2.24,0.27-4.3,0.81-6.2c0.54-1.9,1.38-3.56,2.52-5.01c1.14-1.44,2.56-2.56,4.28-3.36c1.71-0.79,3.71-1.19,5.98-1.19
			c1.77,0,3.31,0.29,4.63,0.87c1.32,0.58,2.4,1.36,3.25,2.36c0.85,0.99,1.49,2.1,1.92,3.33c0.43,1.23,0.7,2.49,0.81,3.79H783.35z"/>
		<path class="st0" d="M828.07,847.99c-0.36-1.62-0.94-2.97-1.73-4.03s-1.71-1.9-2.73-2.49c-1.03-0.59-2.08-1-3.17-1.22
			s-2.17-0.33-3.25-0.33c-3.68,0-6.72,1.35-9.12,4.03c-2.4,2.69-3.6,6.49-3.6,11.4c0,2.38,0.22,4.55,0.68,6.5
			c0.45,1.95,1.18,3.65,2.19,5.09c1.01,1.44,2.35,2.57,4.01,3.38c1.66,0.81,3.66,1.22,6.01,1.22c1.01,0,2.05-0.14,3.11-0.43
			c1.06-0.29,2.13-0.82,3.19-1.6c1.06-0.78,2.03-1.88,2.9-3.3c0.87-1.42,1.5-3.2,1.89-5.33h5.09c-0.51,3.39-1.49,6.16-2.95,8.28
			c-1.46,2.13-3.09,3.69-4.9,4.68c-1.81,0.99-3.47,1.63-5.01,1.92c-1.53,0.29-2.92,0.43-4.14,0.43c-2.31,0-4.5-0.4-6.58-1.19
			c-2.08-0.79-3.93-2.01-5.58-3.66c-1.64-1.64-2.94-3.79-3.9-6.44c-0.96-2.65-1.44-5.78-1.44-9.39c0-3,0.42-5.74,1.25-8.23
			c0.83-2.49,2.03-4.63,3.6-6.42c1.57-1.79,3.48-3.17,5.74-4.14s4.77-1.46,7.55-1.46c2.42,0,4.58,0.34,6.5,1.03
			c1.91,0.69,3.54,1.62,4.87,2.82c1.33,1.19,2.39,2.55,3.17,4.09c0.78,1.53,1.25,3.13,1.43,4.79H828.07z"/>
		<path class="st0" d="M839.55,855.51c0.54-1.77,1.35-3.38,2.44-4.82c1.08-1.44,2.46-2.58,4.14-3.41c1.68-0.83,3.6-1.25,5.77-1.25
			s4.09,0.42,5.77,1.25c1.68,0.83,3.06,1.96,4.14,3.38s1.89,3.03,2.44,4.82c0.54,1.79,0.81,3.62,0.81,5.5c0,1.88-0.27,3.7-0.81,5.47
			c-0.54,1.77-1.35,3.38-2.44,4.82c-1.08,1.44-2.46,2.58-4.14,3.41c-1.68,0.83-3.6,1.25-5.77,1.25s-4.09-0.42-5.77-1.25
			c-1.68-0.83-3.06-1.97-4.14-3.41c-1.08-1.44-1.89-3.05-2.44-4.82c-0.54-1.77-0.81-3.59-0.81-5.47
			C838.73,859.1,839,857.28,839.55,855.51z M844.04,864.45c0.25,1.23,0.68,2.4,1.27,3.52c0.6,1.12,1.43,2.04,2.52,2.76
			c1.08,0.72,2.44,1.08,4.06,1.08s2.98-0.36,4.06-1.08c1.08-0.72,1.93-1.64,2.54-2.76c0.61-1.12,1.04-2.29,1.27-3.52
			c0.23-1.23,0.35-2.38,0.35-3.46s-0.12-2.24-0.35-3.46c-0.24-1.23-0.66-2.4-1.27-3.52c-0.61-1.12-1.46-2.04-2.54-2.76
			s-2.44-1.08-4.06-1.08s-2.98,0.36-4.06,1.08s-1.92,1.64-2.52,2.76c-0.6,1.12-1.02,2.29-1.27,3.52c-0.25,1.23-0.38,2.38-0.38,3.46
			S843.79,863.22,844.04,864.45z"/>
		<path class="st0" d="M894.61,875.17h-4.76v-17.43c0-2.56-0.45-4.44-1.35-5.63c-0.9-1.19-2.47-1.79-4.71-1.79
			c-0.76,0-1.56,0.14-2.41,0.43s-1.66,0.79-2.44,1.49c-0.78,0.7-1.41,1.68-1.9,2.92s-0.73,2.77-0.73,4.58v15.43h-4.76v-28.32h4.49
			v4.01h0.11c0.36-0.51,0.77-1.01,1.22-1.52c0.45-0.5,1.03-1.01,1.73-1.52c0.7-0.5,1.52-0.93,2.46-1.27
			c0.94-0.34,1.99-0.51,3.14-0.51c1.23,0,2.41,0.14,3.55,0.43c1.14,0.29,2.19,0.8,3.17,1.54c0.97,0.74,1.75,1.76,2.33,3.06
			c0.58,1.3,0.87,2.91,0.87,4.82V875.17z"/>
		<path class="st0" d="M918.81,854.92c-0.04-0.58-0.13-1.12-0.27-1.62c-0.14-0.5-0.44-1-0.89-1.49c-0.45-0.49-1.14-0.88-2.06-1.19
			c-0.92-0.31-2.08-0.46-3.49-0.46c-0.47,0-1.01,0.05-1.62,0.13c-0.61,0.09-1.23,0.28-1.84,0.57c-0.61,0.29-1.13,0.7-1.54,1.25
			c-0.42,0.54-0.62,1.23-0.62,2.06c0,1.08,0.35,1.86,1.06,2.33c0.7,0.47,2.07,0.96,4.09,1.46l4.76,1.19
			c2.92,0.72,4.98,1.66,6.17,2.82c1.19,1.16,1.79,2.71,1.79,4.66c0,2.85-1.05,5.13-3.14,6.82c-2.09,1.7-4.78,2.54-8.07,2.54
			c-2.64,0-4.77-0.33-6.42-0.97c-1.64-0.65-2.87-1.49-3.68-2.52c-0.81-1.03-1.35-2.07-1.62-3.11c-0.27-1.05-0.42-2.15-0.46-3.3h4.6
			c0.07,0.76,0.19,1.43,0.35,2.03s0.5,1.19,1.03,1.79c0.52,0.6,1.29,1.08,2.3,1.44c1.01,0.36,2.29,0.54,3.84,0.54
			c1.84,0,3.38-0.38,4.63-1.14c1.25-0.76,1.87-1.88,1.87-3.36c0-1.08-0.41-1.89-1.22-2.44c-0.81-0.54-2.28-1.08-4.41-1.62
			l-5.52-1.35c-2.09-0.5-3.71-1.31-4.85-2.41c-1.14-1.1-1.71-2.59-1.71-4.47c0-1.52,0.29-2.84,0.87-3.98
			c0.58-1.14,1.37-2.1,2.38-2.9c1.95-1.44,4.44-2.17,7.47-2.17c2.35,0,4.26,0.36,5.74,1.08c1.48,0.72,2.58,1.59,3.3,2.6
			c0.72,1.01,1.2,1.98,1.43,2.9c0.23,0.92,0.35,1.69,0.35,2.3H918.81z"/>
		<path class="st0" d="M936.73,850.8v18.41c0,0.97,0.28,1.59,0.84,1.84c0.56,0.25,1.24,0.38,2.03,0.38h1.68v3.74
			c-0.4,0.04-1.12,0.11-2.17,0.22c-0.76,0.11-1.23,0.16-1.41,0.16c-2.17,0-3.66-0.53-4.49-1.6c-0.83-1.06-1.25-2.55-1.25-4.47V850.8
			h-3.84v-3.95h3.84v-7.91h4.76v7.91h4.55v3.95H936.73z"/>
		<path class="st0" d="M952.43,875.17h-4.76v-28.32h4.49v4.71h0.11c1.01-1.77,2.17-3.13,3.46-4.09c1.3-0.96,2.8-1.43,4.49-1.43
			c0.47,0,0.88,0.05,1.25,0.16v4.93h-1.79c-2.17,0-3.92,0.73-5.25,2.19c-1.34,1.46-2,3.26-2,5.39V875.17z"/>
		<path class="st0" d="M985.4,875.17v-4.12l-0.11-0.11c-1.05,1.73-2.26,3-3.63,3.82c-1.37,0.81-3.16,1.22-5.36,1.22
			c-1.12,0-2.21-0.15-3.28-0.43c-1.07-0.29-2.05-0.78-2.95-1.46c-0.9-0.69-1.62-1.6-2.17-2.73c-0.54-1.14-0.81-2.52-0.81-4.14
			v-20.36h4.76v18.79c0,2.2,0.49,3.79,1.46,4.76s2.31,1.46,4.01,1.46c1.44,0,2.67-0.28,3.68-0.84c1.01-0.56,1.81-1.31,2.41-2.25
			s1.03-1.95,1.3-3.03c0.27-1.08,0.41-2.18,0.41-3.3v-15.59h4.76v28.32H985.4z"/>
		<path class="st0" d="M1015.83,856.38c-0.29-1.95-0.99-3.45-2.11-4.49c-1.12-1.05-2.65-1.57-4.6-1.57c-1.41,0-2.62,0.31-3.63,0.92
			c-1.01,0.61-1.82,1.43-2.44,2.44c-0.61,1.01-1.06,2.15-1.33,3.41c-0.27,1.26-0.41,2.56-0.41,3.9c0,1.37,0.11,2.68,0.32,3.93
			c0.22,1.25,0.6,2.4,1.16,3.46c0.56,1.07,1.35,1.91,2.38,2.54c1.03,0.63,2.32,0.95,3.87,0.95c1.66,0,3.1-0.59,4.33-1.76
			c1.23-1.17,2.04-2.82,2.44-4.95h4.6c-0.14,1.26-0.44,2.51-0.89,3.74c-0.45,1.23-1.13,2.38-2.03,3.46
			c-0.9,1.08-2.07,1.96-3.49,2.63c-1.43,0.67-3.13,1-5.12,1c-3.9,0-6.98-1.32-9.26-3.95c-2.27-2.63-3.41-6.04-3.41-10.23
			c0-2.24,0.27-4.3,0.81-6.2c0.54-1.9,1.38-3.56,2.52-5.01c1.14-1.44,2.56-2.56,4.28-3.36c1.71-0.79,3.71-1.19,5.98-1.19
			c1.77,0,3.31,0.29,4.63,0.87c1.32,0.58,2.4,1.36,3.25,2.36c0.85,0.99,1.49,2.1,1.92,3.33c0.43,1.23,0.7,2.49,0.81,3.79H1015.83z"
			/>
		<path class="st0" d="M1032.13,850.8v18.41c0,0.97,0.28,1.59,0.84,1.84c0.56,0.25,1.24,0.38,2.03,0.38h1.68v3.74
			c-0.4,0.04-1.12,0.11-2.17,0.22c-0.76,0.11-1.23,0.16-1.41,0.16c-2.17,0-3.66-0.53-4.49-1.6c-0.83-1.06-1.25-2.55-1.25-4.47V850.8
			h-3.84v-3.95h3.84v-7.91h4.76v7.91h4.55v3.95H1032.13z"/>
		<path class="st0" d="M1042.52,841.71v-5.41h4.76v5.41H1042.52z M1047.29,875.17h-4.76v-28.32h4.76V875.17z"/>
		<path class="st0" d="M1054.71,855.51c0.54-1.77,1.35-3.38,2.44-4.82c1.08-1.44,2.46-2.58,4.14-3.41c1.68-0.83,3.6-1.25,5.77-1.25
			s4.09,0.42,5.77,1.25c1.68,0.83,3.06,1.96,4.14,3.38s1.89,3.03,2.44,4.82c0.54,1.79,0.81,3.62,0.81,5.5c0,1.88-0.27,3.7-0.81,5.47
			c-0.54,1.77-1.35,3.38-2.44,4.82c-1.08,1.44-2.46,2.58-4.14,3.41c-1.68,0.83-3.6,1.25-5.77,1.25s-4.09-0.42-5.77-1.25
			c-1.68-0.83-3.06-1.97-4.14-3.41c-1.08-1.44-1.89-3.05-2.44-4.82c-0.54-1.77-0.81-3.59-0.81-5.47
			C1053.89,859.1,1054.17,857.28,1054.71,855.51z M1059.2,864.45c0.25,1.23,0.68,2.4,1.27,3.52c0.6,1.12,1.43,2.04,2.52,2.76
			c1.08,0.72,2.44,1.08,4.06,1.08s2.98-0.36,4.06-1.08c1.08-0.72,1.93-1.64,2.54-2.76c0.61-1.12,1.04-2.29,1.27-3.52
			c0.23-1.23,0.35-2.38,0.35-3.46s-0.12-2.24-0.35-3.46c-0.24-1.23-0.66-2.4-1.27-3.52c-0.61-1.12-1.46-2.04-2.54-2.76
			s-2.44-1.08-4.06-1.08s-2.98,0.36-4.06,1.08s-1.92,1.64-2.52,2.76c-0.6,1.12-1.02,2.29-1.27,3.52c-0.25,1.23-0.38,2.38-0.38,3.46
			S1058.95,863.22,1059.2,864.45z"/>
		<path class="st0" d="M1109.77,875.17H1105v-17.43c0-2.56-0.45-4.44-1.35-5.63c-0.9-1.19-2.47-1.79-4.71-1.79
			c-0.76,0-1.56,0.14-2.41,0.43s-1.66,0.79-2.44,1.49c-0.78,0.7-1.41,1.68-1.9,2.92s-0.73,2.77-0.73,4.58v15.43h-4.76v-28.32h4.49
			v4.01h0.11c0.36-0.51,0.77-1.01,1.22-1.52c0.45-0.5,1.03-1.01,1.73-1.52c0.7-0.5,1.52-0.93,2.46-1.27
			c0.94-0.34,1.99-0.51,3.14-0.51c1.23,0,2.41,0.14,3.55,0.43c1.14,0.29,2.19,0.8,3.17,1.54c0.97,0.74,1.75,1.76,2.33,3.06
			c0.58,1.3,0.87,2.91,0.87,4.82V875.17z"/>
	</g>
</g>
</svg>
