<svg width="40" height="40" viewBox="0 0 40 40" fill="none" xmlns="http://www.w3.org/2000/svg">
<path fill-rule="evenodd" clip-rule="evenodd" d="M20.3093 0C19.2594 0 18.4082 0.851172 18.4082 1.90114V18.3984H1.52091C0.680936 18.3984 0 19.0794 0 19.9193V20.8775C0 21.7175 0.680936 22.3984 1.52091 22.3984H18.4082V38.0989C18.4082 39.1488 19.2594 40 20.3093 40H20.5071C21.557 40 22.4082 39.1488 22.4082 38.0989V22.3984H38.4791C39.3191 22.3984 40 21.7175 40 20.8775V19.9193C40 19.0794 39.3191 18.3984 38.4791 18.3984H22.4082V1.90114C22.4082 0.85117 21.557 0 20.5071 0H20.3093Z" fill="#0F172A"/>
</svg>
