<svg width="48" height="48" viewBox="0 0 48 48" fill="none" xmlns="http://www.w3.org/2000/svg">
<g clip-path="url(#clip0_90_68)">
<path d="M27.5356 20.4644C29.4882 22.417 29.4882 25.5828 27.5356 27.5355C25.583 29.4881 22.4171 29.4881 20.4645 27.5355C18.5119 25.5828 18.5119 22.417 20.4645 20.4644C22.4171 18.5118 25.583 18.5118 27.5356 20.4644Z" stroke="white" stroke-width="3" stroke-linecap="round" stroke-linejoin="round"/>
<path d="M29.698 8.24L30.864 8.628C31.932 8.984 32.654 9.984 32.654 11.11V12.784C32.654 14.208 33.79 15.37 35.214 15.4L36.89 15.436C37.86 15.456 38.74 16.014 39.174 16.882L39.724 17.982C40.228 18.99 40.03 20.206 39.234 21.002L38.05 22.186C37.044 23.192 37.026 24.818 38.01 25.846L39.17 27.058C39.842 27.76 40.07 28.774 39.762 29.696L39.374 30.862C39.018 31.93 38.018 32.652 36.892 32.652H35.218C33.794 32.652 32.632 33.788 32.602 35.212L32.566 36.888C32.546 37.858 31.988 38.738 31.12 39.172L30.02 39.722C29.012 40.226 27.796 40.028 27 39.232L25.816 38.048C24.81 37.042 23.184 37.024 22.156 38.008L20.944 39.168C20.242 39.84 19.228 40.068 18.306 39.76L17.14 39.372C16.072 39.016 15.35 38.016 15.35 36.89V35.216C15.35 33.792 14.214 32.63 12.79 32.6L11.114 32.564C10.144 32.544 9.264 31.986 8.83 31.118L8.28 30.018C7.776 29.01 7.974 27.794 8.77 26.998L9.954 25.814C10.96 24.808 10.978 23.182 9.994 22.154L8.834 20.942C8.16 20.238 7.932 19.222 8.24 18.302L8.628 17.136C8.984 16.068 9.984 15.346 11.11 15.346H12.784C14.208 15.346 15.37 14.21 15.4 12.786L15.436 11.11C15.46 10.14 16.016 9.26 16.884 8.826L17.984 8.276C18.992 7.772 20.208 7.97 21.004 8.766L22.188 9.95C23.194 10.956 24.82 10.974 25.848 9.99L27.06 8.83C27.762 8.16 28.778 7.932 29.698 8.24V8.24Z" stroke="white" stroke-width="3" stroke-linecap="round" stroke-linejoin="round"/>
</g>
<defs>
<clipPath id="clip0_90_68">
<rect width="48" height="48" fill="white"/>
</clipPath>
</defs>
</svg>
