<svg width="48" height="48" viewBox="0 0 48 48" fill="none" xmlns="http://www.w3.org/2000/svg">
<g clip-path="url(#clip0_90_126)">
<path d="M35.6 10.1L38.0021 12.5L42 8.5" stroke="white" stroke-width="3" stroke-linecap="round" stroke-linejoin="round"/>
<path d="M41.164 18.706C41.7101 20.4179 41.992 22.2031 42 24C42 27.5601 40.9443 31.0402 38.9665 34.0003C36.9886 36.9603 34.1774 39.2675 30.8883 40.6298C27.5992 41.9922 23.98 42.3487 20.4884 41.6541C16.9967 40.9596 13.7894 39.2453 11.2721 36.7279C8.75474 34.2106 7.04041 31.0033 6.34587 27.5116C5.65134 24.02 6.0078 20.4008 7.37018 17.1117C8.73255 13.8226 11.0397 11.0114 13.9997 9.03355C16.9598 7.05568 20.4399 6 24 6C25.7969 6.00799 27.5821 6.28989 29.294 6.836" stroke="white" stroke-width="3" stroke-linecap="round" stroke-linejoin="round"/>
<path d="M23.3603 14.4375C23.4808 14.2612 23.6547 14.1281 23.8564 14.0577C24.0581 13.9874 24.277 13.9835 24.4811 14.0466C24.6852 14.1097 24.8637 14.2365 24.9904 14.4084C25.1172 14.5804 25.1856 14.7884 25.1855 15.002V21.4908H30.9983C31.1803 21.4909 31.3589 21.5405 31.5147 21.6345C31.6706 21.7285 31.7978 21.8633 31.8828 22.0242C31.9677 22.1852 32.0071 22.3663 31.9967 22.548C31.9863 22.7297 31.9265 22.9052 31.8237 23.0554L24.6396 33.5627C24.519 33.739 24.3452 33.8721 24.1435 33.9424C23.9418 34.0128 23.7229 34.0167 23.5188 33.9536C23.3147 33.8904 23.1362 33.7636 23.0095 33.5917C22.8827 33.4198 22.8143 33.2118 22.8143 32.9982V26.5093H17.0015C16.8195 26.5093 16.641 26.4596 16.4851 26.3656C16.3293 26.2716 16.202 26.1369 16.1171 25.9759C16.0322 25.8149 15.9928 25.6338 16.0032 25.4521C16.0136 25.2704 16.0734 25.095 16.1762 24.9448L23.3603 14.4375Z" stroke="white" stroke-width="3" stroke-linecap="round" stroke-linejoin="round"/>
</g>
<defs>
<clipPath id="clip0_90_126">
<rect width="48" height="48" fill="white"/>
</clipPath>
</defs>
</svg>
