<svg width="379" height="391" viewBox="0 0 379 391" fill="none" xmlns="http://www.w3.org/2000/svg">
<path opacity="0.91" d="M140.413 -97.6081C142.14 -101.618 143.983 -105.585 145.951 -109.504C147.946 -113.407 150.072 -117.251 152.334 -121.047C154.64 -124.817 157.093 -128.526 159.688 -132.165C162.341 -135.781 165.133 -139.324 168.075 -142.798C171.064 -146.232 174.192 -149.592 177.453 -152.865C180.756 -156.1 184.178 -159.244 187.705 -162.285C191.254 -165.273 194.895 -168.155 198.603 -170.909C202.311 -173.6 206.064 -176.146 209.849 -178.545C213.597 -180.858 217.351 -182.998 221.09 -184.959C224.763 -186.816 228.396 -188.472 231.978 -189.917C235.472 -191.26 238.9 -192.387 242.252 -193.3C245.509 -194.121 248.695 -194.747 251.801 -195.183C256.332 -195.715 265.169 -196.262 269.587 -196.495C272.578 -196.815 275.653 -197.217 278.83 -197.748C282.116 -198.558 285.551 -199.564 289.162 -200.804C292.923 -202.375 296.875 -204.206 301.02 -206.279C305.306 -208.659 309.757 -211.231 314.359 -213.953C319.017 -216.824 323.749 -219.7 328.507 -222.507C333.194 -225.215 337.802 -227.662 342.286 -229.751C346.556 -231.481 350.609 -232.701 354.409 -233.343C357.915 -233.472 361.142 -232.968 364.096 -231.846C366.796 -230.275 369.282 -228.192 371.612 -225.694C373.861 -223.036 376.098 -220.215 378.4 -217.374C380.866 -214.796 383.565 -212.479 386.559 -210.551C389.915 -209.231 393.663 -208.455 397.809 -208.268C402.348 -208.731 407.244 -209.699 412.431 -211.071C417.819 -212.779 423.324 -214.579 428.821 -216.283C434.203 -217.777 439.357 -218.785 444.179 -219.137C448.606 -218.794 452.562 -217.575 456.029 -215.426C459.042 -212.492 461.613 -208.731 463.818 -204.274C465.797 -199.425 467.631 -194.276 469.459 -189.055C471.446 -184.118 473.655 -179.607 476.176 -175.698C479.144 -172.554 482.517 -170.171 486.295 -168.531C490.507 -167.653 495.015 -167.327 499.722 -167.399C504.605 -167.763 509.46 -168.132 514.177 -168.291C518.728 -168.153 522.935 -167.46 526.732 -166.086C530.158 -164.031 533.104 -161.183 535.589 -157.548C537.714 -153.249 539.468 -148.317 540.922 -142.876C542.227 -137.116 543.41 -131.143 544.578 -125.126C545.85 -119.237 547.271 -113.574 548.903 -108.248C550.834 -103.379 553.059 -98.976 555.574 -95.058C558.446 -91.6643 561.583 -88.6998 564.95 -86.1029C568.567 -83.8676 572.311 -81.8232 576.114 -79.869C579.997 -77.9922 583.823 -76.0069 587.527 -73.8211C591.143 -71.4512 594.544 -68.7403 597.69 -65.6589C600.639 -62.2377 603.297 -58.4025 605.655 -54.1698C607.771 -49.6 609.594 -44.6757 611.13 -39.4581C612.458 -34.0132 613.524 -28.3787 614.364 -22.6276C615.04 -16.8064 615.512 -10.9792 615.803 -5.21533C615.982 0.466478 616.006 5.99968 615.873 11.3363C615.66 16.4854 615.311 21.3912 614.81 26.0391C614.251 30.4528 613.541 34.5973 612.675 38.4813C611.762 42.1318 610.69 45.549 609.456 48.7557C608.179 51.7725 606.744 54.6155 605.157 57.3238C603.552 59.91 601.808 62.4103 599.938 64.855C598.1 67.2537 596.164 69.6489 594.149 72.0689C592.219 74.5146 590.255 77.0291 588.276 79.6408C586.443 82.3367 584.646 85.1647 582.893 88.1301C581.344 91.2311 579.876 94.4968 578.505 97.9304C577.37 101.517 576.347 105.287 575.437 109.228C574.765 113.317 574.196 117.573 573.717 121.98C573.439 126.509 573.216 131.164 573.026 135.927C572.953 140.762 572.86 145.663 572.7 150.607C572.558 155.562 572.284 160.459 571.85 165.268C571.329 170.022 570.577 174.648 569.572 179.129C568.392 183.508 566.918 187.711 565.141 191.728C563.134 195.612 560.799 199.289 558.142 202.768C555.251 206.095 552.041 209.219 548.534 212.143C544.815 214.927 540.828 217.521 536.595 219.931C532.208 222.229 527.628 224.363 522.886 226.338C518.063 228.232 513.126 229.994 508.124 231.637C503.106 233.224 498.074 234.714 493.047 236.113C488.083 237.496 483.174 238.804 478.337 240.047C473.615 241.305 468.997 242.516 464.494 243.682C460.138 244.886 455.91 246.064 451.812 247.211C447.862 248.426 444.044 249.628 440.34 250.814C436.771 252.084 433.309 253.351 429.937 254.617C426.672 255.98 423.474 257.34 420.324 258.699C417.253 260.156 414.212 261.602 411.187 263.039C408.206 264.554 405.222 266.044 402.222 267.489C399.248 268.991 396.254 270.428 393.222 271.784C390.208 273.163 387.162 274.434 384.07 275.591C380.988 276.73 377.868 277.73 374.705 278.593C371.539 279.419 368.325 280.093 365.066 280.612C361.795 281.101 358.466 281.444 355.077 281.647C351.666 281.838 348.19 281.896 344.65 281.841C341.072 281.782 337.427 281.613 333.724 281.34C329.985 281.07 326.19 280.692 322.352 280.206C318.487 279.704 314.593 279.08 310.682 278.323C306.766 277.533 302.848 276.595 298.934 275.506C295.032 274.377 291.139 273.088 287.264 271.657C283.392 270.199 279.534 268.606 275.684 266.896C271.823 265.196 267.96 263.407 264.095 261.541C260.203 259.711 256.303 257.824 252.39 255.877C248.449 253.979 244.51 252.016 240.578 249.97C236.641 247.943 232.767 245.837 228.98 243.632C225.207 241.401 221.531 239.055 217.951 236.582C214.4 234.061 210.949 231.416 207.597 228.651C204.262 225.855 201.012 222.954 197.84 219.969C194.665 216.977 191.554 213.928 188.496 210.827C185.425 207.747 182.398 204.634 179.418 201.478C176.417 198.351 173.468 195.183 170.572 191.964C167.662 188.759 164.815 185.486 162.04 182.148C159.262 178.797 156.555 175.363 153.931 171.847C151.312 168.311 148.776 164.693 146.314 161.006C143.863 157.302 141.482 153.539 139.177 149.724C136.864 145.924 134.624 142.088 132.452 138.228C130.273 134.398 128.159 130.559 126.12 126.711C124.08 122.897 122.115 119.074 120.243 115.244C118.382 111.446 116.62 107.628 114.965 103.789C113.35 99.9613 111.853 96.1022 110.489 92.2077C109.185 88.3008 108.019 84.3565 107.008 80.3713C106.063 76.3604 105.274 72.3155 104.643 68.2321C104.081 64.13 103.676 60.0008 103.429 55.8514C103.24 51.6941 103.198 47.5274 103.302 43.3625C103.452 39.2004 103.732 35.0553 104.138 30.9291C104.569 26.8295 105.117 22.7507 105.768 18.7078C106.427 14.6926 107.182 10.7153 108.026 6.76607C108.85 2.8522 109.757 -1.0316 110.735 -4.88601C111.679 -8.71275 112.691 -12.524 113.761 -16.3136C114.782 -20.09 115.864 -23.8605 116.994 -27.6214C118.067 -31.3856 119.191 -35.1559 120.365 -38.9323C121.473 -42.7173 122.637 -46.5171 123.848 -50.337C125.003 -54.1716 126.212 -58.0282 127.481 -61.9085C128.701 -65.8054 129.987 -69.7236 131.351 -73.6666C132.675 -77.6213 134.087 -81.5957 135.596 -85.5849C137.085 -89.5799 138.686 -93.5864 140.411 -97.6037" stroke="url(#paint0_linear_24_441)" stroke-opacity="0.5" stroke-width="1.27396" stroke-linecap="round" stroke-dasharray="9.68 1.02"/>
<path opacity="0.36" d="M157.338 -107.745C159.232 -111.574 161.23 -115.341 163.338 -119.041C165.47 -122.732 167.717 -126.347 170.08 -129.88C172.484 -133.391 175.014 -136.814 177.668 -140.149C180.367 -143.442 183.189 -146.642 186.124 -149.736C189.109 -152.786 192.206 -155.719 195.4 -158.54C198.633 -161.298 201.953 -163.931 205.347 -166.425C208.761 -168.857 212.235 -171.139 215.745 -173.263C219.256 -175.314 222.786 -177.199 226.326 -178.906C229.832 -180.533 233.328 -181.977 236.799 -183.236C240.217 -184.414 243.6 -185.408 246.936 -186.212C250.208 -186.956 253.43 -187.53 256.597 -187.947C259.724 -188.34 262.81 -188.607 265.864 -188.769C268.901 -188.971 271.938 -189.125 274.997 -189.258C278.078 -189.517 281.219 -189.821 284.441 -190.201C287.744 -190.796 291.168 -191.53 294.732 -192.429C298.42 -193.6 302.272 -194.974 306.293 -196.549C310.442 -198.392 314.751 -200.423 319.212 -202.61C323.749 -204.986 328.388 -207.435 333.086 -209.899C337.766 -212.381 342.424 -214.738 347.015 -216.901C351.452 -218.866 355.724 -220.488 359.799 -221.691C363.602 -222.518 367.146 -222.832 370.406 -222.601C373.374 -221.939 376.073 -220.747 378.518 -219.058C380.764 -217.066 382.856 -214.712 384.853 -212.103C386.85 -209.482 388.897 -206.828 391.09 -204.267C393.51 -202.039 396.21 -200.126 399.245 -198.609C402.666 -197.662 406.473 -197.198 410.683 -197.226C415.247 -197.79 420.126 -198.731 425.251 -199.944C430.524 -201.372 435.85 -202.788 441.117 -204.023C446.221 -205 451.055 -205.483 455.526 -205.333C459.577 -204.544 463.152 -202.959 466.231 -200.546C468.866 -197.45 471.073 -193.641 472.924 -189.224C474.563 -184.478 476.068 -179.471 477.569 -174.395C479.238 -169.573 481.127 -165.113 483.336 -161.157C485.983 -157.876 489.041 -155.246 492.519 -153.272C496.442 -151.975 500.687 -151.193 505.169 -150.792C509.859 -150.705 514.579 -150.672 519.204 -150.524C523.714 -150.183 527.928 -149.409 531.772 -148.085C535.265 -146.199 538.3 -143.627 540.865 -140.351C543.052 -136.464 544.831 -131.948 546.266 -126.909C547.477 -121.486 548.5 -115.766 549.425 -109.879C550.373 -103.982 551.392 -98.1733 552.552 -92.5589C553.951 -87.2624 555.595 -82.3107 557.512 -77.7534C559.765 -73.6517 562.294 -69.96 565.077 -66.6443C568.143 -63.7216 571.393 -61.0686 574.764 -58.6168C578.282 -56.361 581.803 -54.139 585.277 -51.8815C588.722 -49.5885 592.007 -47.1193 595.084 -44.4158C597.994 -41.5163 600.627 -38.3057 602.963 -34.784C605.056 -30.9951 606.827 -26.8936 608.274 -22.5118C609.477 -17.8997 610.362 -13.0639 610.949 -8.06393C611.326 -2.9285 611.435 2.28756 611.299 7.52479C610.999 12.77 610.488 17.9556 609.78 23.042C608.958 28.0229 607.971 32.8395 606.819 37.469C605.6 41.9321 604.237 46.1783 602.741 50.202C601.202 54.0394 599.541 57.6626 597.76 61.0716C595.97 64.3168 594.074 67.3816 592.077 70.283C590.103 73.0769 588.049 75.7511 585.925 78.3367C583.86 80.8696 581.751 83.3675 579.609 85.85C577.581 88.346 575.546 90.8802 573.529 93.4694C571.669 96.1369 569.849 98.8988 568.087 101.778C566.518 104.771 565.033 107.906 563.631 111.193C562.449 114.618 561.355 118.206 560.36 121.95C559.566 125.832 558.853 129.872 558.214 134.046C557.741 138.341 557.306 142.753 556.887 147.261C556.568 151.841 556.214 156.483 555.791 161.165C555.387 165.854 554.857 170.484 554.18 175.023C553.427 179.512 552.47 183.873 551.285 188.09C549.961 192.203 548.369 196.14 546.513 199.884C544.46 203.493 542.121 206.895 539.5 210.087C536.675 213.126 533.57 215.95 530.2 218.557C526.645 221.017 522.846 223.274 518.836 225.332C514.682 227.258 510.347 229.003 505.867 230.58C501.293 232.059 496.622 233.388 491.874 234.575C487.104 235.704 482.298 236.718 477.489 237.627C472.717 238.517 467.977 239.331 463.288 240.068C458.68 240.829 454.146 241.534 449.7 242.206C445.361 242.93 441.123 243.629 436.988 244.322C432.967 245.091 429.046 245.864 425.222 246.641C421.504 247.523 417.877 248.417 414.32 249.333C410.856 250.359 407.454 251.401 404.099 252.456C400.818 253.62 397.564 254.79 394.343 255.957C391.168 257.21 388.008 258.442 384.858 259.638C381.743 260.894 378.631 262.09 375.515 263.217C372.427 264.356 369.335 265.401 366.238 266.333C363.165 267.256 360.08 268.049 356.974 268.706C353.892 269.337 350.79 269.814 347.66 270.156C344.531 270.469 341.37 270.645 338.173 270.681C334.967 270.705 331.708 270.603 328.407 270.381C325.076 270.158 321.689 269.825 318.26 269.379C314.804 268.939 311.298 268.387 307.756 267.726C304.189 267.055 300.597 266.263 296.988 265.351C293.37 264.414 289.746 263.339 286.124 262.131C282.503 260.893 278.887 259.519 275.283 258.005C271.686 256.472 268.09 254.817 264.503 253.047C260.905 251.274 257.309 249.406 253.712 247.446C250.096 245.516 246.476 243.498 242.853 241.411C239.21 239.347 235.571 237.2 231.94 234.968C228.304 232.744 224.735 230.436 221.241 228.043C217.755 225.637 214.354 223.129 211.042 220.514C207.747 217.874 204.541 215.127 201.424 212.281C198.318 209.418 195.286 206.463 192.33 203.436C189.374 200.403 186.479 197.313 183.643 194.17C180.795 191.036 177.996 187.857 175.254 184.635C172.497 181.428 169.796 178.173 167.159 174.868C164.515 171.564 161.938 168.195 159.432 164.763C156.933 161.322 154.513 157.807 152.175 154.223C149.851 150.618 147.606 146.948 145.443 143.211C143.291 139.475 141.216 135.686 139.215 131.86C137.22 128.051 135.294 124.213 133.438 120.36C131.579 116.549 129.792 112.73 128.076 108.915C126.359 105.148 124.72 101.384 123.164 97.6317C121.62 93.9176 120.168 90.2029 118.825 86.4877C117.507 82.8005 116.312 79.1028 115.243 75.3902C114.221 71.6788 113.343 67.9454 112.607 64.19C111.934 60.4215 111.417 56.6211 111.056 52.7958C110.762 48.9531 110.627 45.0813 110.647 41.1888C110.729 37.2832 110.963 33.3613 111.347 29.4343C111.776 25.4943 112.338 21.5564 113.025 17.622C113.747 13.6917 114.584 9.77065 115.526 5.87586C116.475 1.97961 117.52 -1.88466 118.649 -5.72962C119.765 -9.56462 120.956 -13.3746 122.223 -17.1596C123.447 -20.9358 124.733 -24.6954 126.072 -28.4327C127.363 -32.1711 128.704 -35.8943 130.089 -39.6079C131.416 -43.3281 132.788 -47.0501 134.197 -50.7652C135.551 -54.4983 136.938 -58.2345 138.379 -61.978C139.757 -65.7381 141.185 -69.5084 142.666 -73.2861C144.098 -77.0903 145.592 -80.8964 147.153 -84.7126C148.682 -88.5443 150.288 -92.3806 151.985 -96.2174C153.661 -100.068 155.439 -103.907 157.335 -107.741" stroke="url(#paint1_linear_24_441)" stroke-opacity="0.5" stroke-width="1.27396" stroke-linecap="round" stroke-dasharray="6.62 8.15"/>
<path opacity="0.88" d="M173.826 -115.197C175.857 -118.813 177.973 -122.346 180.174 -125.797C182.396 -129.225 184.715 -132.562 187.127 -135.792C189.575 -138.995 192.116 -142.083 194.757 -145.059C197.438 -147.986 200.208 -150.795 203.075 -153.469C205.975 -156.092 208.958 -158.572 212.016 -160.905C215.098 -163.177 218.246 -165.298 221.445 -167.259C224.656 -169.148 227.904 -170.876 231.177 -172.432C234.452 -173.924 237.735 -175.238 241.017 -176.381C244.279 -177.462 247.534 -178.371 250.768 -179.118C253.983 -179.821 257.169 -180.367 260.332 -180.779C263.475 -181.173 266.605 -181.457 269.725 -181.64C272.842 -181.863 275.964 -182.025 279.113 -182.154C282.294 -182.387 285.525 -182.634 288.821 -182.926C292.192 -183.379 295.659 -183.926 299.244 -184.589C302.933 -185.466 306.76 -186.488 310.734 -187.662C314.818 -189.07 319.048 -190.631 323.419 -192.329C327.868 -194.209 332.428 -196.185 337.059 -198.216C341.706 -200.317 346.362 -202.38 350.992 -204.349C355.522 -206.226 359.94 -207.894 364.206 -209.282C368.254 -210.419 372.083 -211.179 375.654 -211.515C380.439 -211.256 388.244 -207.936 391.378 -205.03C393.27 -202.803 395.078 -200.36 396.866 -197.798C398.725 -195.33 400.714 -192.935 402.905 -190.708C405.371 -188.849 408.154 -187.312 411.292 -186.158C414.816 -185.512 418.717 -185.277 422.984 -185.43C427.568 -186.008 432.413 -186.843 437.443 -187.831C442.559 -188.934 447.674 -189.943 452.674 -190.712C457.464 -191.2 461.948 -191.192 466.044 -190.588C469.712 -189.402 472.904 -187.503 475.608 -184.88C477.879 -181.671 479.736 -177.837 481.263 -173.485C482.589 -168.864 483.793 -164.011 484.998 -159.092C486.368 -154.394 487.957 -149.996 489.862 -146.031C492.193 -142.637 494.938 -139.806 498.096 -137.538C501.709 -135.877 505.659 -134.678 509.874 -133.833C514.333 -133.315 518.859 -132.887 523.345 -132.413C527.765 -131.835 531.941 -130.93 535.795 -129.593C539.333 -127.816 542.443 -125.456 545.096 -122.484C547.361 -118.968 549.198 -114.869 550.648 -110.245C551.825 -105.22 552.749 -99.8374 553.489 -94.2102C554.177 -88.4698 554.847 -82.6977 555.576 -76.9961C556.465 -71.4742 557.538 -66.1902 558.824 -61.192C560.406 -56.5645 562.248 -52.2769 564.34 -48.3497C566.731 -44.7972 569.332 -41.5519 572.1 -38.5638C575.065 -35.8483 578.104 -33.2746 581.159 -30.7907C584.255 -28.3965 587.259 -25.9634 590.118 -23.4474C592.872 -20.8578 595.4 -18.0934 597.655 -15.1255C599.708 -11.9901 601.446 -8.61955 602.857 -5.02303C604.021 -1.24148 604.847 2.74567 605.347 6.91498C605.6 11.2184 605.548 15.6498 605.197 20.1574C604.648 24.7265 603.838 29.3044 602.787 33.8553C601.592 38.3872 600.187 42.8329 598.599 47.167C596.914 51.4095 595.079 55.5025 593.105 59.4338C591.08 63.245 588.95 66.8821 586.715 70.3451C584.481 73.6951 582.17 76.8852 579.793 79.9246C577.458 82.8814 575.078 85.7211 572.669 88.463C570.345 91.167 568.009 93.8109 565.68 96.4283C563.473 99.0606 561.297 101.703 559.158 104.373C557.178 107.111 555.259 109.92 553.41 112.814C551.745 115.812 550.161 118.922 548.667 122.15C547.367 125.51 546.148 129 545.016 132.62C544.068 136.369 543.189 140.247 542.366 144.237C541.688 148.341 541.034 152.539 540.391 156.816C539.834 161.157 539.236 165.544 538.577 169.954C537.934 174.377 537.181 178.724 536.298 182.974C535.353 187.178 534.233 191.251 532.919 195.167C531.482 198.984 529.821 202.622 527.928 206.061C525.878 209.369 523.578 212.46 521.031 215.334C518.313 218.056 515.352 220.557 512.165 222.833C508.812 224.966 505.251 226.873 501.493 228.577C497.61 230.149 493.564 231.523 489.379 232.716C485.11 233.809 480.738 234.742 476.286 235.527C471.8 236.248 467.27 236.847 462.72 237.336C458.183 237.809 453.648 238.201 449.146 238.516C444.685 238.862 440.275 239.156 435.919 239.421C431.637 239.747 427.415 240.061 423.277 240.375C419.206 240.776 415.214 241.192 411.294 241.63C407.452 242.176 403.676 242.746 399.962 243.351C396.316 244.07 392.721 244.814 389.177 245.583C385.696 246.456 382.249 247.342 378.839 248.231C375.485 249.205 372.153 250.159 368.854 251.085C365.606 252.063 362.376 252.983 359.171 253.834C356.014 254.708 352.878 255.483 349.758 256.162C346.683 256.823 343.621 257.373 340.568 257.791C337.552 258.185 334.532 258.449 331.515 258.581C328.515 258.689 325.501 258.664 322.474 258.51C319.444 258.352 316.381 258.069 313.291 257.676C310.182 257.283 307.033 256.782 303.854 256.177C300.646 255.576 297.402 254.871 294.123 254.058C290.831 253.247 287.51 252.319 284.173 251.278C280.824 250.228 277.471 249.054 274.111 247.754C270.752 246.436 267.397 244.993 264.048 243.422C260.705 241.836 257.362 240.129 254.028 238.308C250.694 236.48 247.363 234.553 244.035 232.52C240.697 230.5 237.364 228.38 234.035 226.169C230.695 223.974 227.365 221.679 224.055 219.291C220.734 216.907 217.481 214.441 214.294 211.896C211.112 209.343 208.002 206.703 204.97 203.976C201.954 201.235 199.006 198.411 196.137 195.5C193.275 192.587 190.484 189.595 187.758 186.543C185.032 183.491 182.363 180.379 179.756 177.218C177.143 174.066 174.581 170.862 172.085 167.613C169.58 164.375 167.138 161.078 164.759 157.731C162.39 154.379 160.093 150.973 157.874 147.498C155.668 144.013 153.546 140.458 151.511 136.847C149.495 133.218 147.564 129.526 145.718 125.788C143.886 122.042 142.138 118.258 140.471 114.444C138.812 110.643 137.225 106.832 135.709 103.01C134.195 99.2283 132.751 95.4545 131.379 91.6959C130.003 87.9851 128.7 84.2966 127.478 80.6253C126.259 77.012 125.131 73.4108 124.095 69.8328C123.082 66.2914 122.18 62.7631 121.392 59.2365C120.643 55.7333 120.024 52.2256 119.544 48.7126C119.111 45.2036 118.825 41.6769 118.693 38.1387C118.618 34.585 118.697 31.0126 118.93 27.4287C119.218 23.8222 119.658 20.2012 120.241 16.5665C120.875 12.9134 121.648 9.25489 122.544 5.59304C123.48 1.91071 124.527 -1.76575 125.69 -5.43738C126.859 -9.12431 128.128 -12.8002 129.482 -16.4631C130.828 -20.1392 132.251 -23.8013 133.739 -27.4471C135.204 -31.1042 136.724 -34.7511 138.295 -38.3798C139.822 -42.0278 141.392 -45.6637 143.007 -49.2843C144.572 -52.9304 146.166 -56.5663 147.802 -60.1972C149.38 -63.8524 150.994 -67.5057 152.646 -71.1499C154.243 -74.8225 155.884 -78.4942 157.569 -82.1578C159.204 -85.8468 160.898 -89.5298 162.646 -93.2099C164.365 -96.9001 166.149 -100.585 168.013 -104.249C169.857 -107.922 171.789 -111.574 173.823 -115.193" stroke="url(#paint2_linear_24_441)" stroke-opacity="0.5" stroke-width="1.27396" stroke-linecap="round" stroke-dasharray="10.7 13.25"/>
<path opacity="0.93" d="M189.223 -119.719C191.354 -123.087 193.545 -126.359 195.798 -129.525C198.068 -132.67 200.413 -135.699 202.822 -138.606C205.259 -141.484 207.773 -144.23 210.349 -146.837C212.965 -149.405 215.648 -151.822 218.39 -154.089C221.17 -156.305 224.006 -158.367 226.892 -160.266C229.805 -162.11 232.761 -163.784 235.756 -165.299C238.764 -166.75 241.803 -168.04 244.857 -169.166C247.926 -170.239 251.005 -171.149 254.09 -171.909C257.181 -172.636 260.274 -173.222 263.374 -173.676C266.479 -174.118 269.593 -174.453 272.722 -174.696C275.867 -174.965 279.039 -175.171 282.244 -175.337C285.492 -175.578 288.793 -175.81 292.16 -176.058C295.6 -176.432 299.125 -176.86 302.75 -177.358C306.472 -178.02 310.309 -178.786 314.274 -179.657C318.335 -180.713 322.525 -181.881 326.838 -183.158C331.232 -184.601 335.724 -186.12 340.297 -187.705C344.892 -189.371 349.519 -191.043 354.146 -192.676C358.706 -194.285 363.198 -195.765 367.578 -197.065C371.791 -198.214 375.823 -199.101 379.64 -199.67C384.856 -199.961 393.545 -198.191 397.027 -196.13C399.983 -193.407 405.113 -186.66 407.643 -183.05C409.49 -180.821 411.524 -178.728 413.805 -176.84C416.393 -175.325 419.317 -174.121 422.599 -173.256C426.245 -172.823 430.24 -172.716 434.552 -172.908C439.128 -173.404 443.907 -174.062 448.804 -174.774C453.727 -175.524 458.592 -176.11 463.291 -176.429C467.738 -176.448 471.856 -175.99 475.57 -174.98C478.85 -173.456 481.664 -171.299 484.004 -168.501C485.927 -165.216 487.466 -161.395 488.688 -157.127C489.726 -152.641 490.655 -147.954 491.586 -143.198C492.685 -138.634 493.991 -134.323 495.602 -130.367C497.627 -126.902 500.053 -123.905 502.883 -121.395C506.163 -119.412 509.794 -117.838 513.705 -116.596C517.882 -115.67 522.171 -114.868 526.464 -114.064C530.737 -113.229 534.825 -112.164 538.636 -110.772C542.183 -109.043 545.33 -106.839 548.055 -104.117C550.392 -100.929 552.301 -97.2151 553.8 -93.0143C554.989 -88.4147 555.859 -83.4369 556.488 -78.1637C556.979 -72.7123 557.369 -67.1402 557.733 -61.5297C558.17 -55.9977 558.709 -50.5866 559.394 -45.3652C560.314 -40.4061 561.441 -35.7252 562.8 -31.3353C564.434 -27.2872 566.285 -23.5361 568.325 -20.0581C570.593 -16.8815 572.988 -13.9183 575.451 -11.1238C578.025 -8.50866 580.575 -5.96742 583.054 -3.45984C585.503 -0.996778 587.78 1.52085 589.854 4.12088C591.785 6.78736 593.446 9.58549 594.808 12.5321C595.96 15.5944 596.785 18.8147 597.278 22.1756C597.54 25.654 597.475 29.2579 597.097 32.9501C596.494 36.7266 595.607 40.5564 594.449 44.4056C593.111 48.2885 591.542 52.144 589.752 55.9533C587.849 59.747 585.765 63.4549 583.524 67.0642C581.224 70.6241 578.803 74.068 576.277 77.3906C573.747 80.6557 571.148 83.8037 568.489 86.8411C565.877 89.8311 563.24 92.7328 560.587 95.5491C558.021 98.358 555.465 101.115 552.943 103.841C550.538 106.593 548.18 109.344 545.885 112.108C543.738 114.95 541.662 117.832 539.669 120.777C537.846 123.826 536.11 126.954 534.465 130.172C532.987 133.517 531.599 136.96 530.293 140.496C529.145 144.16 528.063 147.92 527.029 151.766C526.126 155.709 525.247 159.726 524.376 163.79C523.579 167.923 522.748 172.073 521.87 176.224C521 180.381 520.043 184.459 518.982 188.423C517.871 192.344 516.61 196.119 515.194 199.738C513.677 203.263 511.969 206.595 510.075 209.73C508.043 212.736 505.804 215.527 503.358 218.091C500.763 220.515 497.967 222.711 494.974 224.674C491.839 226.497 488.519 228.105 485.036 229.488C481.426 230.751 477.672 231.814 473.795 232.691C469.826 233.472 465.759 234.084 461.611 234.547C457.41 234.954 453.159 235.23 448.871 235.402C444.565 235.553 440.25 235.629 435.936 235.633C431.635 235.661 427.352 235.651 423.096 235.61C418.874 235.639 414.691 235.653 410.553 235.678C406.457 235.786 402.411 235.915 398.413 236.072C394.468 236.334 390.57 236.628 386.717 236.953C382.921 237.387 379.167 237.849 375.461 238.332C371.812 238.916 368.202 239.506 364.637 240.101C361.128 240.77 357.665 241.417 354.246 242.035C350.885 242.702 347.567 243.311 344.297 243.855C341.086 244.415 337.919 244.885 334.794 245.264C331.723 245.635 328.689 245.891 325.693 246.039C321.27 246.172 312.572 245.82 308.252 245.339C303.934 244.747 295.199 243.038 290.769 241.938C287.775 241.189 284.763 240.343 281.72 239.399C278.66 238.461 275.577 237.422 272.477 236.277C269.367 235.136 266.247 233.881 263.128 232.513C260.005 231.134 256.883 229.637 253.772 228.022C250.66 226.393 247.563 224.651 244.478 222.785C241.393 220.919 238.319 218.936 235.261 216.839C232.2 214.747 229.155 212.548 226.126 210.243C223.09 207.939 220.078 205.535 217.082 203.024C214.086 200.514 211.156 197.926 208.285 195.267C205.414 192.602 202.612 189.861 199.876 187.05C197.147 184.239 194.478 181.357 191.874 178.404C189.272 175.459 186.733 172.454 184.25 169.39C181.765 166.337 179.337 163.232 176.966 160.082C174.596 156.939 172.28 153.749 170.029 150.513C167.781 147.281 165.601 143.992 163.489 140.654C161.395 137.31 159.379 133.906 157.448 130.447C155.542 126.969 153.717 123.432 151.992 119.841C150.287 116.233 148.683 112.569 147.161 108.862C145.669 105.153 144.26 101.407 142.936 97.6399C141.624 93.8897 140.391 90.1256 139.234 86.3658C138.073 82.6425 136.985 78.9347 135.968 75.2461C134.949 71.6156 133.997 68.0082 133.12 64.4379C132.241 60.9255 131.44 57.4462 130.727 54.0066C130.021 50.6133 129.411 47.2479 128.901 43.9065C128.419 40.6025 128.051 37.314 127.804 34.0406C127.594 30.7857 127.518 27.5301 127.573 24.2779C127.681 21.0246 127.93 17.763 128.316 14.4969C128.763 11.2147 129.345 7.92096 130.065 4.62268C130.836 1.29466 131.733 -2.04051 132.761 -5.37956C133.828 -8.75101 135.008 -12.1284 136.296 -15.5078C137.606 -18.9145 139.011 -22.322 140.509 -25.7303C142.006 -29.1673 143.574 -32.6033 145.219 -36.035C146.847 -39.4942 148.53 -42.9472 150.268 -46.394C151.97 -49.8775 153.716 -53.3504 155.502 -56.8159C157.246 -60.3175 159.027 -63.815 160.837 -67.3006C162.604 -70.8223 164.402 -74.3321 166.228 -77.8372C168.013 -81.3712 169.83 -84.8972 171.682 -88.408C173.498 -91.9484 175.356 -95.4742 177.262 -98.9717C179.138 -102.495 181.071 -105.984 183.065 -109.442C185.042 -112.913 187.093 -116.336 189.22 -119.715" stroke="url(#paint3_linear_24_441)" stroke-opacity="0.5" stroke-width="1.27396" stroke-linecap="round" stroke-dasharray="6.62 9.17"/>
<path opacity="0.61" d="M203.229 -121.603C205.418 -124.71 207.645 -127.696 209.916 -130.571C212.197 -133.429 214.533 -136.158 216.915 -138.752C219.32 -141.317 221.775 -143.736 224.278 -146.012C226.81 -148.245 229.39 -150.329 232.021 -152.258C234.678 -154.135 237.379 -155.857 240.117 -157.419C242.885 -158.93 245.693 -160.284 248.53 -161.484C251.398 -162.634 254.291 -163.634 257.21 -164.49C260.151 -165.317 263.124 -166.009 266.123 -166.571C269.15 -167.12 272.209 -167.569 275.3 -167.918C278.43 -168.285 281.601 -168.579 284.821 -168.826C288.09 -169.118 291.428 -169.387 294.834 -169.647C298.311 -169.995 301.873 -170.367 305.528 -170.77C309.27 -171.295 313.119 -171.872 317.077 -172.522C321.123 -173.307 325.281 -174.167 329.549 -175.098C333.883 -176.157 338.316 -177.277 342.823 -178.445C347.353 -179.697 351.926 -180.957 356.507 -182.196C361.048 -183.445 365.545 -184.617 369.965 -185.671C374.254 -186.639 378.403 -187.423 382.375 -187.982C386.139 -188.367 389.672 -188.471 392.961 -188.274C397.38 -187.468 404.568 -183.91 407.436 -181.247C409.943 -178.188 414.645 -171.453 417.195 -168.136C420.216 -165.278 428.058 -161.107 433.041 -159.963C436.812 -159.652 440.877 -159.583 445.209 -159.716C449.742 -160.067 454.413 -160.482 459.135 -160.878C463.826 -161.247 468.399 -161.419 472.771 -161.297C476.859 -160.883 480.594 -160.023 483.918 -158.655C486.817 -156.839 489.259 -154.467 491.244 -151.546C492.849 -148.219 494.085 -144.434 495.025 -140.263C495.803 -135.93 496.485 -131.413 497.169 -126.832C498.01 -122.417 499.055 -118.202 500.381 -114.283C502.104 -110.775 504.205 -107.658 506.699 -104.949C509.635 -102.698 512.915 -100.81 516.489 -99.2177C520.348 -97.9251 524.347 -96.7659 528.392 -95.6548C532.466 -94.5588 536.406 -93.3152 540.122 -91.8349C543.621 -90.1109 546.769 -88.0101 549.521 -85.4913C551.927 -82.585 553.901 -79.2309 555.462 -75.4335C556.686 -71.2666 557.556 -66.7335 558.124 -61.8824C558.5 -56.8136 558.693 -51.5669 558.774 -46.2162C558.844 -40.8473 558.928 -35.5147 559.077 -30.2741C559.381 -25.2033 559.831 -20.3239 560.459 -15.6762C561.325 -11.3016 562.389 -7.18815 563.638 -3.33552C565.123 0.229646 566.751 3.55676 568.499 6.66803C570.403 9.55527 572.349 12.2864 574.282 14.8989C577.206 18.6062 582.325 25.8346 584.305 29.5237C585.797 33.341 587.02 41.5089 586.717 45.8569C586.205 48.855 585.399 51.9114 584.306 55.0114C583.038 58.163 581.511 61.3287 579.753 64.4932C577.851 67.6832 575.758 70.8458 573.483 73.9627C571.133 77.0853 568.641 80.1504 566.031 83.1537C563.4 86.1503 560.684 89.0808 557.913 91.9442C555.163 94.8142 552.39 97.6272 549.604 100.386C546.892 103.173 544.197 105.926 541.533 108.66C538.976 111.446 536.469 114.237 534.027 117.041C531.725 119.928 529.492 122.853 527.346 125.819C525.348 128.896 523.438 132.036 521.616 135.238C519.945 138.563 518.363 141.957 516.854 145.428C515.486 149.012 514.184 152.665 512.931 156.371C511.784 160.179 510.672 164.026 509.57 167.898C508.528 171.826 507.472 175.754 506.375 179.665C505.286 183.583 504.14 187.398 502.908 191.097C501.635 194.749 500.25 198.254 498.745 201.588C497.148 204.842 495.401 207.898 493.509 210.753C491.495 213.492 489.312 216.015 486.965 218.312C484.485 220.476 481.837 222.417 479.023 224.124C476.081 225.709 472.984 227.063 469.742 228.216C466.385 229.246 462.896 230.081 459.294 230.724C455.596 231.284 451.797 231.676 447.921 231.92C443.979 232.107 439.973 232.177 435.916 232.137C431.82 232.08 427.696 231.94 423.549 231.737C419.385 231.559 415.219 231.338 411.057 231.091C406.896 230.902 402.752 230.702 398.624 230.509C394.515 230.391 390.436 230.293 386.382 230.213C382.36 230.233 378.374 230.274 374.425 230.336C370.519 230.5 366.656 230.679 362.837 230.877C359.066 231.157 355.347 231.436 351.685 231.713C348.078 232.051 344.525 232.368 341.036 232.648C337.617 232.966 334.257 233.228 330.964 233.427C327.736 233.639 324.572 233.777 321.469 233.819C316.939 233.835 308.221 233.349 303.997 232.841C299.843 232.223 291.629 230.501 287.524 229.41C283.395 228.254 275.014 225.553 270.763 224C267.899 222.955 265.014 221.82 262.126 220.585C259.221 219.361 256.306 218.036 253.395 216.61C250.477 215.177 247.571 213.635 244.679 211.982C241.787 210.314 238.914 208.537 236.067 206.638C233.223 204.727 230.401 202.704 227.605 200.565C224.819 198.415 222.059 196.148 219.322 193.777C216.595 191.395 213.894 188.903 211.219 186.311C208.551 183.71 205.939 181.036 203.393 178.292C200.844 175.552 198.355 172.749 195.925 169.883C193.489 167.024 191.104 164.11 188.784 161.144C186.453 158.188 184.174 155.185 181.949 152.14C179.716 149.11 177.537 146.032 175.418 142.92C173.292 139.815 171.226 136.669 169.224 133.478C167.225 130.298 165.301 127.061 163.462 123.779C161.634 120.487 159.898 117.141 158.247 113.742C156.628 110.325 155.105 106.858 153.682 103.338C152.291 99.7989 150.999 96.2142 149.807 92.5907C148.644 88.9594 147.57 85.3004 146.593 81.6208C145.623 77.9554 144.744 74.284 143.944 70.6178C143.148 66.9839 142.421 63.3661 141.771 59.7788C141.108 56.2423 140.518 52.7399 139.993 49.279C139.46 45.8796 138.996 42.5252 138.609 39.2157C138.217 35.964 137.908 32.7497 137.684 29.5872C137.467 26.4606 137.35 23.3782 137.333 20.322C137.336 17.2977 137.455 14.2919 137.689 11.3048C137.953 8.33122 138.339 5.36163 138.855 2.40302C139.407 -0.563752 140.089 -3.53396 140.897 -6.50391C141.741 -9.48922 142.714 -12.4852 143.806 -15.4879C144.926 -18.5202 146.165 -21.5592 147.507 -24.6118C148.871 -27.6938 150.332 -30.7892 151.883 -33.8834C153.443 -37.0247 155.079 -40.1716 156.787 -43.3204C158.487 -46.5122 160.247 -49.7093 162.066 -52.9079C163.862 -56.1491 165.704 -59.3952 167.586 -62.6315C169.442 -65.9212 171.33 -69.201 173.251 -72.478C175.135 -75.7972 177.058 -79.1068 179 -82.4059C180.912 -85.7476 182.85 -89.0719 184.821 -92.3718C186.758 -95.7106 188.735 -99.0251 190.746 -102.301C192.735 -105.605 194.768 -108.874 196.849 -112.09C198.919 -115.317 201.044 -118.492 203.226 -121.599" stroke="url(#paint4_linear_24_441)" stroke-opacity="0.5" stroke-width="1.27396" stroke-linecap="round" stroke-dasharray="12.23 2.04"/>
<path opacity="0.18" d="M215.996 -121.567C218.204 -124.398 220.444 -127.113 222.709 -129.711C224.991 -132.29 227.302 -134.736 229.648 -137.054C232.019 -139.338 234.424 -141.489 236.869 -143.493C239.34 -145.454 241.851 -147.276 244.396 -148.95C246.976 -150.579 249.598 -152.059 252.251 -153.393C256.306 -155.267 264.674 -158.27 268.983 -159.432C271.919 -160.145 274.899 -160.751 277.926 -161.263C280.999 -161.776 284.135 -162.208 287.331 -162.577C290.585 -162.973 293.913 -163.327 297.312 -163.65C300.782 -164.024 304.344 -164.389 307.994 -164.757C311.722 -165.206 315.551 -165.674 319.475 -166.174C323.485 -166.762 327.59 -167.39 331.79 -168.051C336.054 -168.807 340.399 -169.59 344.809 -170.399C349.25 -171.272 353.73 -172.147 358.225 -173.008C362.695 -173.88 367.13 -174.699 371.516 -175.43C375.796 -176.117 379.967 -176.667 384 -177.059C387.859 -177.331 391.527 -177.396 394.983 -177.227C399.707 -176.598 407.6 -173.744 410.784 -171.532C413.511 -168.899 418.185 -162.712 420.404 -159.407C422.837 -156.274 428.847 -150.831 432.673 -148.746C435.64 -147.734 438.91 -146.951 442.486 -146.385C446.349 -146.101 450.455 -145.976 454.759 -145.973C459.201 -146.107 463.712 -146.243 468.213 -146.299C472.633 -146.286 476.887 -146.048 480.896 -145.511C484.609 -144.702 487.958 -143.483 490.892 -141.806C493.414 -139.749 495.499 -137.212 497.15 -134.206C498.452 -130.865 499.41 -127.138 500.097 -123.089C500.643 -118.908 501.091 -114.571 501.554 -110.172C502.159 -105.912 502.953 -101.816 504.011 -97.9536C505.436 -94.4357 507.219 -91.2452 509.372 -88.3888C511.946 -85.9261 514.862 -83.7697 518.067 -81.8851C521.573 -80.2756 525.243 -78.805 528.99 -77.4076C532.804 -76.0657 536.536 -74.64 540.101 -73.0502C543.498 -71.3036 546.594 -69.2676 549.341 -66.9039C551.767 -64.2405 553.796 -61.197 555.416 -57.7774C556.694 -54.0372 557.6 -49.9557 558.165 -45.568C558.488 -40.9537 558.563 -36.1275 558.452 -31.1488C558.256 -26.097 557.991 -21.0079 557.701 -15.9376C557.486 -10.9586 557.343 -6.08901 557.313 -1.38161C557.463 3.12971 557.76 7.42588 558.22 11.5002C558.896 15.3291 559.725 18.9178 560.683 22.2872C561.825 25.421 563.05 28.3591 564.319 31.1293C566.366 34.9593 570.207 41.9477 571.79 45.2544C573.063 48.5041 574.237 55.1215 574.061 58.5336C573.356 62.0511 570.363 69.3485 568.114 73.0973C566.41 75.6451 564.488 78.2003 562.376 80.753C560.173 83.3424 557.818 85.9197 555.323 88.4816C552.788 91.0747 550.159 93.6503 547.449 96.2052C544.747 98.8002 542.007 101.383 539.234 103.947C536.514 106.574 533.801 109.193 531.106 111.817C528.495 114.516 525.931 117.234 523.419 119.98C521.017 122.818 518.681 125.692 516.42 128.615C514.289 131.646 512.235 134.731 510.259 137.876C508.412 141.129 506.646 144.446 504.951 147.817C503.368 151.291 501.852 154.815 500.388 158.38C499.008 162.027 497.664 165.704 496.333 169.382C495.063 173.115 493.774 176.83 492.466 180.508C491.164 184.194 489.826 187.767 488.431 191.219C486.998 194.63 485.483 197.887 483.873 200.975C482.193 203.988 480.396 206.811 478.48 209.431C476.463 211.944 474.312 214.246 472.027 216.332C469.624 218.298 467.083 220.044 464.409 221.573C461.613 222.978 458.683 224.174 455.63 225.164C452.469 226.046 449.187 226.741 445.8 227.248C442.314 227.679 438.736 227.946 435.069 228.072C431.332 228.146 427.519 228.095 423.649 227.937C419.725 227.767 415.753 227.509 411.744 227.188C407.698 226.881 403.632 226.53 399.549 226.145C395.45 225.804 391.348 225.451 387.246 225.091C383.145 224.793 379.056 224.498 374.987 224.219C370.935 224.009 366.911 223.814 362.926 223.631C358.971 223.517 355.059 223.412 351.194 223.313C347.381 223.276 343.629 223.23 339.932 223.169C336.302 223.156 332.742 223.113 329.251 223.032C325.831 222.976 322.493 222.871 319.232 222.701C316.043 222.548 312.932 222.321 309.892 222.013C305.473 221.517 297.033 220.098 292.974 219.166C288.998 218.165 281.169 215.782 277.28 214.412C273.367 213.009 265.446 209.887 261.442 208.164C258.736 207.013 256.029 205.786 253.306 204.476C250.572 203.176 247.841 201.79 245.113 200.303C242.381 198.82 239.667 197.236 236.975 195.541C234.286 193.835 231.63 192.022 229 190.095C226.391 188.147 223.815 186.084 221.279 183.908C218.758 181.71 216.273 179.402 213.828 176.979C211.401 174.547 209.006 172 206.655 169.35C204.304 166.692 202.016 163.968 199.792 161.178C197.56 158.395 195.384 155.559 193.256 152.671C191.121 149.798 189.038 146.875 187 143.918C184.95 140.978 182.941 138 180.983 134.995C179.01 132.004 177.085 128.982 175.219 125.925C173.342 122.887 171.523 119.814 169.774 116.704C168.032 113.601 166.36 110.454 164.776 107.266C163.207 104.072 161.736 100.826 160.357 97.5372C159.011 94.231 157.768 90.8777 156.63 87.4809C155.533 84.0601 154.542 80.6032 153.652 77.1134C152.799 73.6105 152.048 70.082 151.395 66.5386C150.763 63.0031 150.225 59.4634 149.769 55.9301C149.317 52.422 148.946 48.9346 148.651 45.4749C148.347 42.0582 148.106 38.6796 147.937 35.3465C147.75 32.0706 147.624 28.8435 147.568 25.6691C147.499 22.5556 147.494 19.4947 147.562 16.483C147.691 12.0672 148.356 3.52998 148.926 -0.62276C149.607 -4.71067 151.526 -12.7819 152.773 -16.7866C154.168 -20.8045 157.537 -28.8793 159.493 -32.9476C160.851 -35.7013 162.299 -38.4629 163.835 -41.2362C165.379 -44.0523 167.006 -46.8767 168.705 -49.7131C170.399 -52.6001 172.158 -55.4923 173.979 -58.3933C175.78 -61.3454 177.635 -64.3065 179.537 -67.2698C181.415 -70.2807 183.337 -73.2973 185.291 -76.3094C187.221 -79.369 189.181 -82.4278 191.175 -85.471C193.135 -88.5585 195.135 -91.634 197.159 -94.6834C199.158 -97.7733 201.19 -100.83 203.256 -103.856C205.301 -106.905 207.385 -109.913 209.506 -112.865C211.628 -115.825 213.788 -118.729 215.992 -121.564" stroke="url(#paint5_linear_24_441)" stroke-opacity="0.5" stroke-width="1.27396" stroke-linecap="round" stroke-dasharray="4.08 6.11"/>
<path opacity="0.46" d="M228.092 -120.484C230.306 -123.05 232.539 -125.505 234.797 -127.85C237.072 -130.175 239.372 -132.381 241.701 -134.466C244.049 -136.52 246.436 -138.448 248.854 -140.242C252.545 -142.817 260.184 -147.254 264.132 -149.122C268.191 -150.817 276.635 -153.577 281.035 -154.68C284.04 -155.371 287.109 -155.977 290.251 -156.504C293.447 -157.037 296.726 -157.512 300.082 -157.932C303.502 -158.379 307.013 -158.789 310.613 -159.18C314.285 -159.605 318.042 -160.021 321.897 -160.432C325.815 -160.895 329.826 -161.357 333.918 -161.826C338.065 -162.348 342.281 -162.868 346.559 -163.392C350.861 -163.95 355.195 -164.495 359.552 -165.012C363.884 -165.535 368.197 -166.01 372.467 -166.415C376.662 -166.785 380.761 -167.054 384.754 -167.196C388.606 -167.26 392.303 -167.168 395.817 -166.897C400.7 -166.209 409.068 -163.58 412.536 -161.621C415.521 -159.285 420.488 -153.654 422.665 -150.506C424.853 -147.375 429.77 -141.389 432.774 -138.745C435.099 -137.259 437.681 -135.941 440.543 -134.796C443.698 -133.915 447.121 -133.204 450.801 -132.654C454.71 -132.308 458.8 -132.053 463.026 -131.851C467.321 -131.727 471.624 -131.543 475.863 -131.246C479.97 -130.853 483.875 -130.225 487.504 -129.314C490.827 -128.149 493.781 -126.616 496.329 -124.686C498.486 -122.438 500.23 -119.778 501.568 -116.721C502.585 -113.397 503.286 -109.751 503.742 -105.834C504.07 -101.817 504.316 -97.6657 504.568 -93.4526C504.958 -89.3609 505.518 -85.3983 506.316 -81.6202C507.456 -78.1329 508.926 -74.9013 510.733 -71.95C512.94 -69.3313 515.478 -66.9753 518.298 -64.847C521.423 -62.9729 524.72 -61.2423 528.126 -59.5958C531.638 -58.0302 535.11 -56.4319 538.461 -54.7326C541.698 -52.9388 544.685 -50.9434 547.379 -48.7035C549.795 -46.2394 551.843 -43.4687 553.505 -40.3968C554.846 -37.0576 555.802 -33.417 556.403 -29.5014C556.734 -25.3679 556.774 -21.0186 556.564 -16.5005C556.21 -11.8689 555.703 -7.15711 555.103 -2.41406C554.494 2.31006 553.882 6.9833 553.301 11.5652C552.836 16.0167 552.461 20.3135 552.2 24.4363C552.12 28.362 552.163 32.0856 552.338 35.6005C552.918 40.455 554.711 48.9084 555.771 52.5946C556.901 55.9436 558.746 62.039 559.3 64.8938C559.221 70.4298 556.463 78.8256 554.596 81.7124C552.343 84.6761 546.742 90.7712 543.482 93.889C541.209 96.0332 538.82 98.1884 536.338 100.36C533.843 102.597 531.289 104.849 528.686 107.122C526.112 109.477 523.524 111.857 520.927 114.265C518.401 116.766 515.889 119.308 513.41 121.889C511.015 124.572 508.67 127.306 506.375 130.093C504.185 132.99 502.055 135.943 499.986 138.952C498.025 142.07 496.125 145.243 494.282 148.461C492.535 151.779 490.839 155.133 489.188 158.518C487.612 161.985 486.06 165.458 484.531 168.932C483.04 172.454 481.545 175.947 480.039 179.395C478.536 182.854 477.007 186.202 475.443 189.421C473.85 192.604 472.194 195.641 470.473 198.512C468.683 201.315 466.811 203.934 464.842 206.363C462.787 208.697 460.627 210.833 458.356 212.757C455.982 214.581 453.497 216.192 450.897 217.6C448.192 218.898 445.37 219.993 442.44 220.894C439.404 221.699 436.264 222.323 433.024 222.773C429.687 223.144 426.262 223.363 422.748 223.444C419.16 223.467 415.493 223.37 411.762 223.174C407.966 222.947 404.119 222.635 400.225 222.25C396.287 221.868 392.31 221.432 388.308 220.958C384.283 220.503 380.245 220.026 376.198 219.529C372.148 219.069 368.098 218.601 364.068 218.124C360.054 217.699 356.063 217.269 352.104 216.831C348.185 216.448 344.306 216.05 340.486 215.643C336.716 215.28 333.01 214.898 329.375 214.49C325.805 214.113 322.312 213.7 318.901 213.25C315.565 212.812 312.313 212.33 309.153 211.791C304.56 210.966 295.878 209.004 291.768 207.858C287.785 206.658 280.106 203.941 276.368 202.437C272.639 200.913 265.207 197.625 261.464 195.868C257.678 194.1 250.021 190.303 246.167 188.254C243.583 186.878 241.005 185.423 238.443 183.883C235.881 182.342 233.342 180.71 230.833 178.979C228.337 177.231 225.88 175.378 223.472 173.418C221.08 171.437 218.742 169.346 216.451 167.135C214.187 164.909 211.976 162.573 209.816 160.121C207.675 157.653 205.584 155.077 203.538 152.405C201.504 149.722 199.529 146.976 197.622 144.175C195.702 141.383 193.838 138.539 192.024 135.66C190.188 132.792 188.401 129.897 186.653 126.97C184.881 124.069 183.152 121.139 181.464 118.188C179.752 115.263 178.086 112.314 176.472 109.348C174.845 106.399 173.279 103.419 171.774 100.415C170.274 97.4198 168.847 94.3911 167.506 91.3304C166.183 88.2678 164.958 85.1635 163.827 82.0207C162.733 78.8669 161.748 75.6688 160.864 72.4328C160.035 69.1838 159.308 65.8971 158.696 62.581C158.128 59.2545 157.664 55.9013 157.305 52.5397C156.979 49.1775 156.748 45.8094 156.607 42.4459C156.485 39.1059 156.442 35.7804 156.472 32.4796C156.502 29.2187 156.602 25.993 156.766 22.8058C156.915 19.6715 157.125 16.5862 157.395 13.5569C157.789 9.11719 158.849 0.609702 159.523 -3.47172C160.236 -7.43373 162.018 -15.0972 163.111 -18.8183C164.282 -22.4924 167.087 -29.7404 168.722 -33.3431C170.465 -36.9686 174.407 -44.2683 176.593 -47.9582C178.077 -50.4603 179.642 -52.9767 181.28 -55.5009C182.912 -58.0727 184.61 -60.6602 186.371 -63.2528C188.121 -65.897 189.92 -68.5549 191.777 -71.2147C193.614 -73.9306 195.494 -76.6498 197.418 -79.3722C199.321 -82.1436 201.26 -84.9116 203.235 -87.6764C205.192 -90.4791 207.181 -93.2752 209.204 -96.0465C211.205 -98.8596 213.239 -101.641 215.311 -104.393C217.366 -107.165 219.458 -109.901 221.588 -112.583C223.712 -115.28 225.878 -117.911 228.088 -120.481" stroke="url(#paint6_linear_24_441)" stroke-opacity="0.5" stroke-width="1.27396" stroke-linecap="round" stroke-dasharray="10.7 7.64"/>
<path opacity="0.47" d="M240.307 -119.07C242.516 -121.389 244.747 -123.61 247.009 -125.728C249.281 -127.834 251.587 -129.832 253.928 -131.723C257.487 -134.462 264.844 -139.33 268.659 -141.447C272.578 -143.413 280.752 -146.744 285.026 -148.135C287.945 -149.002 290.934 -149.782 293.991 -150.479C297.105 -151.168 300.298 -151.775 303.566 -152.323C306.898 -152.862 310.31 -153.352 313.81 -153.793C317.365 -154.243 321.009 -154.651 324.732 -155.029C328.513 -155.423 332.372 -155.787 336.304 -156.122C340.28 -156.484 344.313 -156.818 348.401 -157.123C352.505 -157.439 356.643 -157.717 360.79 -157.958C364.925 -158.19 369.041 -158.37 373.127 -158.477C377.141 -158.556 381.093 -158.545 384.946 -158.43C388.691 -158.254 392.3 -157.952 395.768 -157.509C399.077 -156.979 402.206 -156.292 405.145 -155.439C409.185 -153.911 416.006 -149.848 418.827 -147.345C421.318 -144.61 425.729 -138.612 427.849 -135.497C430.135 -132.51 435.565 -127.017 438.904 -124.654C441.458 -123.328 444.256 -122.143 447.306 -121.1C450.607 -120.255 454.135 -119.532 457.86 -118.911C461.756 -118.428 465.771 -117.989 469.847 -117.544C473.942 -117.126 477.983 -116.617 481.909 -115.973C485.672 -115.215 489.2 -114.233 492.438 -112.986C495.367 -111.512 497.928 -109.722 500.098 -107.587C501.907 -105.185 503.322 -102.443 504.367 -99.3765C505.122 -96.0957 505.591 -92.5482 505.834 -88.7762C505.971 -84.9327 506.029 -80.9737 506.089 -76.9596C506.277 -73.0393 506.619 -69.2267 507.169 -65.5613C508.036 -62.1288 509.196 -58.9069 510.664 -55.9119C512.512 -53.191 514.656 -50.6879 517.081 -48.3863C519.803 -46.3096 522.708 -44.3619 525.742 -42.5151C528.91 -40.761 532.067 -39.012 535.159 -37.2147C538.183 -35.373 541.014 -33.3964 543.591 -31.2506C545.954 -28.9475 547.991 -26.4166 549.672 -23.6482C551.059 -20.6691 552.08 -17.4463 552.742 -13.9899C553.124 -10.3391 553.186 -6.48503 552.966 -2.47321C552.552 1.66955 551.928 5.91558 551.143 10.2245C550.286 14.5665 549.343 18.9027 548.367 23.1938C547.425 27.421 546.518 31.5475 545.662 35.5471C544.928 39.4121 544.282 43.1117 543.735 46.6368C543.203 51.5746 542.816 60.2621 542.883 64.0439C543.368 70.429 543.686 78.5526 543.39 80.9239C541.846 85.4683 537.456 92.2645 535.267 94.5941C532.813 97.0183 527.098 102.087 523.915 104.751C521.742 106.613 519.487 108.517 517.167 110.463C514.858 112.501 512.506 114.583 510.133 116.714C507.798 118.948 505.455 121.24 503.114 123.587C500.841 126.042 498.587 128.558 496.358 131.133C494.199 133.821 492.085 136.57 490.004 139.371C488.003 142.29 486.043 145.255 484.12 148.263C482.276 151.37 480.464 154.511 478.678 157.677C476.949 160.914 475.242 164.162 473.546 167.401C471.88 170.687 470.21 173.945 468.522 177.159C466.84 180.381 465.141 183.495 463.413 186.492C461.663 189.46 459.863 192.282 458.012 194.958C456.109 197.571 454.136 200.013 452.089 202.277C448.864 205.459 441.835 210.731 438.011 212.817C435.344 214.043 432.57 215.081 429.7 215.945C426.738 216.711 423.681 217.306 420.533 217.741C417.298 218.094 413.976 218.303 410.572 218.375C407.093 218.389 403.545 218.283 399.923 218.067C396.247 217.821 392.512 217.479 388.731 217.057C384.901 216.621 381.041 216.125 377.149 215.57C373.234 215.018 369.301 214.424 365.366 213.793C361.42 213.182 357.487 212.537 353.565 211.871C349.664 211.227 345.793 210.562 341.954 209.873C338.159 209.208 334.413 208.525 330.724 207.815C327.093 207.124 323.527 206.41 320.04 205.658C316.62 204.926 313.282 204.152 310.03 203.34C306.853 202.542 303.759 201.696 300.757 200.801C296.391 199.449 288.163 196.501 284.269 194.903C280.49 193.282 273.187 189.835 269.617 188.017C266.061 186.208 258.949 182.436 255.368 180.474C251.745 178.524 244.439 174.42 240.784 172.246C237.115 170.027 229.89 165.218 226.372 162.595C222.93 159.859 216.368 153.845 213.263 150.563C211.249 148.313 209.299 145.952 207.411 143.495C205.549 141.012 203.748 138.433 202.006 135.761C200.268 133.079 198.597 130.341 196.995 127.559C195.382 124.779 193.818 121.962 192.302 119.117C190.761 116.289 189.267 113.44 187.803 110.569C186.315 107.728 184.859 104.869 183.438 101.998C181.995 99.1561 180.586 96.3011 179.226 93.4354C177.844 90.5919 176.517 87.7274 175.253 84.8543C173.988 81.9883 172.791 79.1034 171.678 76.1948C170.583 73.2854 169.581 70.3461 168.676 67.3851C167.811 64.4082 167.048 61.3995 166.396 58.3601C165.788 55.3128 165.3 52.2289 164.923 49.1254C164.596 46.0112 164.377 42.8733 164.273 39.7273C164.203 36.5753 164.239 33.4212 164.368 30.2739C164.526 27.131 164.765 24.004 165.088 20.9041C165.418 17.8237 165.824 14.7765 166.29 11.7676C167.006 7.3388 168.689 -1.215 169.64 -5.31673C170.602 -9.29301 172.736 -16.9075 173.913 -20.5488C175.113 -24.0992 177.791 -30.9684 179.287 -34.3064C180.833 -37.6185 184.272 -44.1687 186.171 -47.4311C188.138 -50.7307 192.42 -57.3831 194.722 -60.7523C197.082 -64.1965 202.087 -71.1988 204.721 -74.762C206.475 -77.1827 208.283 -79.6173 210.134 -82.0525C211.967 -84.5378 213.847 -87.0196 215.767 -89.4991C217.671 -92.0175 219.61 -94.5305 221.594 -97.0258C223.558 -99.5569 225.566 -102.063 227.606 -104.543C229.642 -107.045 231.717 -109.512 233.832 -111.933C235.942 -114.369 238.098 -116.751 240.303 -119.067" stroke="url(#paint7_linear_24_441)" stroke-opacity="0.5" stroke-width="1.27396" stroke-linecap="round" stroke-dasharray="9.17 7.64"/>
<path opacity="0.21" d="M253.339 -117.706C255.542 -119.795 257.784 -121.806 260.059 -123.73C263.51 -126.545 270.641 -131.675 274.341 -133.978C276.848 -135.45 279.412 -136.826 282.029 -138.102C287.369 -140.566 292.966 -142.643 298.826 -144.363C304.868 -145.989 311.211 -147.293 317.853 -148.324C324.694 -149.302 331.824 -150.049 339.218 -150.578C346.734 -151.089 354.426 -151.393 362.204 -151.473C369.907 -151.479 377.511 -151.191 384.859 -150.547C391.846 -149.711 398.358 -148.409 404.251 -146.582C409.572 -144.456 414.196 -141.768 418.117 -138.524C421.603 -135.09 424.62 -131.253 427.373 -127.141C430.279 -123.225 433.417 -119.352 437.049 -115.684C441.505 -112.637 446.785 -109.986 452.922 -107.765C459.89 -106.145 467.4 -104.719 475.114 -103.28C482.703 -101.79 489.677 -99.7302 495.616 -96.8328C499.232 -94.1033 504.148 -86.918 505.476 -82.4746C505.989 -79.2645 506.245 -75.8326 506.299 -72.2264C506.259 -68.559 506.148 -64.8034 506.032 -60.9899C506.038 -57.2612 506.174 -53.6117 506.492 -50.0858C507.098 -46.7418 507.961 -43.5645 509.106 -40.5706C510.592 -37.7989 512.358 -35.2148 514.377 -32.8017C516.689 -30.5732 519.191 -28.474 521.824 -26.4723C527.506 -22.7454 533.057 -18.9761 538.019 -14.9083C542.331 -10.4365 545.413 -5.26788 547.153 0.633203C547.808 7.17349 547.254 14.3233 545.724 21.8776C543.682 29.655 541.217 37.4275 538.597 44.9609C536.234 52.1692 534.085 58.8486 532.221 64.8994C530.905 70.3812 529.844 75.2171 528.926 79.4427C528.366 83.2172 527.701 86.5312 526.779 89.4888C525.893 92.2476 524.543 94.8273 522.679 97.2979C520.664 99.8177 518.087 102.369 514.99 104.991C511.766 107.848 508.116 110.872 504.126 114.074C500.159 117.639 495.995 121.453 491.709 125.517C487.604 130.01 483.477 134.779 479.385 139.787C477.428 142.451 475.484 145.163 473.554 147.925C471.678 150.78 469.815 153.663 467.957 156.573C466.151 159.554 464.338 162.544 462.524 165.529C460.738 168.551 458.93 171.556 457.098 174.516C455.275 177.489 453.429 180.361 451.564 183.13C449.675 185.872 447.745 188.483 445.769 190.959C443.752 193.383 441.673 195.653 439.532 197.763C437.336 199.799 435.062 201.667 432.706 203.363C427.797 206.489 422.537 208.906 416.937 210.652C411.03 212.037 404.786 212.803 398.237 213.014C391.433 212.965 384.383 212.462 377.143 211.572C369.758 210.563 362.274 209.273 354.76 207.747C347.255 206.208 339.824 204.494 332.552 202.621C325.44 200.779 318.565 198.789 311.996 196.642C305.672 194.536 299.681 192.268 294.04 189.828C288.621 187.449 283.499 184.902 278.643 182.201C273.875 179.599 269.263 176.873 264.759 174.021C260.189 171.322 255.637 168.52 251.096 165.594C246.428 162.819 241.765 159.882 237.156 156.758C232.499 153.69 227.976 150.353 223.645 146.713C220.476 143.905 214.536 137.8 211.778 134.493C209.155 131.05 204.319 123.661 202.096 119.727C200.648 117.07 199.268 114.369 197.952 111.626C196.631 108.893 195.36 106.127 194.131 103.34C192.879 100.573 191.66 97.7921 190.479 95.0041C189.264 92.2383 188.079 89.4715 186.925 86.6965C184.512 81.2386 182.258 75.7628 180.202 70.2736C178.114 64.8478 176.325 59.3673 174.887 53.8287C173.576 48.2619 172.705 42.6039 172.288 36.8875C172.069 31.1098 172.296 25.2905 172.957 19.4748C173.743 13.6632 174.88 7.91511 176.322 2.29059C177.762 -3.25339 179.424 -8.61392 181.282 -13.7673C183.036 -18.7918 184.949 -23.5982 187.03 -28.1851C188.971 -32.6689 191.088 -36.9755 193.401 -41.1301C195.598 -45.2577 198.011 -49.2951 200.653 -53.2622C203.209 -57.2952 206.007 -61.3213 209.043 -65.3446C212.007 -69.5087 215.201 -73.7012 218.606 -77.9154C221.94 -82.3028 225.479 -86.7133 229.204 -91.1175C231.983 -94.4992 237.755 -101.262 240.746 -104.617C242.743 -106.864 244.794 -109.085 246.891 -111.263C248.984 -113.457 251.133 -115.602 253.337 -117.699" stroke="url(#paint8_linear_24_441)" stroke-opacity="0.5" stroke-width="1.27396" stroke-linecap="round" stroke-dasharray="12.74 4.08"/>
<path opacity="0.96" d="M267.511 -116.32C271.933 -120.088 276.54 -123.551 281.322 -126.697C286.173 -129.753 291.244 -132.465 296.545 -134.823C301.958 -137.067 307.632 -138.956 313.569 -140.508C319.642 -141.944 325.987 -143.066 332.575 -143.887C339.287 -144.613 346.203 -145.052 353.263 -145.208C360.341 -145.27 367.457 -145.03 374.495 -144.483C381.357 -143.782 387.977 -142.714 394.228 -141.243C400.084 -139.559 405.419 -137.42 410.162 -134.808C414.45 -131.984 418.162 -128.721 421.366 -125.063C424.369 -121.366 427.145 -117.44 429.895 -113.406C432.999 -109.656 436.493 -106.022 440.557 -102.625C445.435 -99.7557 451.055 -97.1983 457.37 -94.925C464.305 -93.0573 471.549 -91.2429 478.766 -89.2901C485.696 -87.203 491.888 -84.5601 497.001 -81.1628C500.983 -77.1381 503.597 -72.188 504.884 -66.3353C505.301 -59.9926 504.986 -53.0808 504.392 -45.8572C504.233 -38.8877 504.698 -32.2852 506.056 -26.2263C508.656 -20.8692 512.19 -16.0854 516.43 -11.762C521.353 -7.83395 526.27 -3.97861 530.777 -0.000589083C534.848 4.20185 537.876 8.86932 539.709 14.0535C540.566 19.7286 540.209 25.8964 538.801 32.4224C536.74 39.2142 534.05 46.0836 530.979 52.8412C527.927 59.4471 524.885 65.6782 521.987 71.4222C519.515 76.7597 517.276 81.53 515.24 85.7393C513.627 89.5376 512.076 92.8671 510.478 95.7768C509.086 98.47 507.474 100.901 505.553 103.151C503.653 105.406 501.37 107.627 498.685 109.872C495.976 112.313 492.895 114.894 489.495 117.646C486.126 120.738 482.515 124.068 478.725 127.658C475.054 131.643 471.277 135.905 467.431 140.407C463.75 145.289 460.02 150.364 456.246 155.569C452.598 161.025 448.861 166.49 445.003 171.867C441.156 177.272 437.188 182.3 433.059 186.881C428.812 191.264 424.327 195.086 419.583 198.31C414.628 201.215 409.372 203.476 403.821 205.119C398.04 206.418 391.964 207.128 385.642 207.293C379.125 207.187 372.4 206.614 365.538 205.625C358.581 204.468 351.562 202.977 344.562 201.2C337.596 199.338 330.738 197.245 324.066 194.941C317.545 192.615 311.276 190.104 305.307 187.429C299.548 184.762 294.099 181.949 288.96 178.982C283.99 176.084 279.262 173.065 274.761 169.94C270.28 166.933 265.92 163.851 261.641 160.694C257.257 157.702 252.889 154.636 248.533 151.499C244.045 148.49 239.601 145.362 235.23 142.075C230.835 138.837 226.614 135.36 222.628 131.625C218.756 127.825 215.201 123.704 211.988 119.247C208.941 114.69 206.218 109.808 203.809 104.612C201.458 99.3825 199.365 94.0299 197.481 88.6112C195.486 83.2556 193.616 77.8931 191.857 72.5498C189.941 67.3131 188.157 62.1012 186.541 56.9168C184.865 51.8017 183.462 46.6719 182.382 41.5337C181.402 36.3855 180.84 31.1873 180.714 25.9632C180.787 20.6849 181.314 15.382 182.276 10.0898C183.394 4.7732 184.884 -0.486039 186.704 -5.65128C188.56 -10.7729 190.657 -15.75 192.96 -20.5511C195.181 -25.2702 197.551 -29.7989 200.057 -34.1295C202.424 -38.3863 204.912 -42.4717 207.534 -46.3932C210.01 -50.3023 212.632 -54.1006 215.419 -57.8051C218.084 -61.5692 220.931 -65.2906 223.963 -68.9878C226.892 -72.8027 230.021 -76.6262 233.347 -80.4558C236.583 -84.422 240.021 -88.4037 243.658 -92.3756C247.222 -96.476 250.996 -100.538 254.974 -104.528C258.913 -108.589 263.088 -112.533 267.507 -116.317" stroke="url(#paint9_linear_24_441)" stroke-opacity="0.5" stroke-width="1.27396" stroke-linecap="round" stroke-dasharray="8.66 0.51"/>
<path opacity="0.67" d="M282.599 -114.516C287.036 -117.902 291.661 -121.012 296.471 -123.827C301.338 -126.561 306.416 -128.974 311.708 -131.055C317.091 -133.021 322.696 -134.643 328.518 -135.928C334.425 -137.085 340.535 -137.904 346.788 -138.397C353.093 -138.75 359.493 -138.775 365.904 -138.465C372.247 -138.006 378.494 -137.2 384.548 -136.025C390.374 -134.681 395.876 -132.943 400.957 -130.805C405.691 -128.483 409.947 -125.76 413.706 -122.65C417.169 -119.416 420.24 -115.869 423.007 -112.075C425.8 -108.334 428.578 -104.495 431.511 -100.641C434.938 -97.0878 438.828 -93.6785 443.296 -90.4692C448.506 -87.6782 454.319 -85.0939 460.638 -82.6691C467.371 -80.4885 474.191 -78.2482 480.793 -75.8038C486.977 -73.1814 492.352 -70.0454 496.646 -66.2673C499.887 -61.9859 501.869 -56.9629 502.654 -51.2345C502.7 -45.1472 502.091 -38.6163 501.22 -31.8428C500.74 -25.268 500.782 -18.9847 501.588 -13.1423C503.507 -7.84386 506.267 -3.02916 509.695 1.37617C513.833 5.41337 518.069 9.30516 522.055 13.1958C525.794 17.1741 528.698 21.4175 530.585 25.982C531.635 30.9026 531.542 36.1779 530.39 41.7263C528.533 47.538 525.902 53.4533 522.718 59.3294C519.352 65.1819 515.8 70.7851 512.214 76.0418C508.888 81.0444 505.713 85.592 502.71 89.6732C500.106 93.444 497.65 96.778 495.273 99.709C493.2 102.439 491.085 104.888 488.848 107.113C486.773 109.32 484.479 111.443 481.942 113.543C479.475 115.797 476.731 118.148 473.725 120.633C470.786 123.405 467.609 126.396 464.23 129.6C460.952 133.169 457.509 136.98 453.926 141.012C450.462 145.379 446.872 149.926 443.158 154.592C439.534 159.475 435.758 164.371 431.806 169.199C427.866 174.051 423.781 178.576 419.537 182.697C415.207 186.656 410.658 190.114 405.883 193.036C400.957 195.664 395.781 197.716 390.362 199.194C384.78 200.344 378.968 200.937 372.97 201.002C366.845 200.789 360.574 200.096 354.223 198.977C347.833 197.65 341.428 195.961 335.081 193.942C328.804 191.798 322.655 189.385 316.703 186.727C310.898 184.02 305.326 181.106 300.035 178.014C294.908 174.932 290.039 171.705 285.433 168.353C280.916 165.078 276.595 161.705 272.436 158.27C268.24 154.966 264.126 151.61 260.058 148.221C255.862 144.985 251.677 141.705 247.509 138.376C243.221 135.163 238.993 131.852 234.885 128.415C230.769 125.009 226.864 121.408 223.226 117.578C219.737 113.692 216.587 109.537 213.813 105.087C211.216 100.555 208.976 95.7452 207.067 90.6747C205.218 85.5749 203.638 80.3874 202.256 75.1758C200.769 70.0161 199.401 64.8775 198.126 59.7895C196.681 54.7964 195.344 49.8585 194.148 44.9873C192.86 40.1841 191.809 35.4116 191.045 30.6678C190.342 25.9334 190.027 21.1894 190.118 16.4496C190.386 11.6674 191.099 6.88722 192.243 2.12731C193.56 -2.67282 195.271 -7.42323 197.323 -12.0923C199.46 -16.7632 201.858 -21.319 204.484 -25.7369C207.066 -30.1164 209.809 -34.3423 212.682 -38.3991C215.435 -42.4199 218.291 -46.2921 221.239 -50.0112C224.043 -53.7332 226.945 -57.3386 229.959 -60.8454C232.829 -64.4122 235.831 -67.9191 238.967 -71.3729C241.987 -74.9344 245.16 -78.4747 248.504 -82.0028C251.748 -85.6521 255.174 -89.2892 258.79 -92.9003C262.339 -96.6212 266.092 -100.3 270.06 -103.898C273.991 -107.562 278.164 -111.114 282.594 -114.514" stroke="url(#paint10_linear_24_441)" stroke-opacity="0.5" stroke-width="1.27396" stroke-linecap="round" stroke-dasharray="10.7 5.61"/>
<path opacity="0.25" d="M297.859 -111.765C302.287 -114.783 306.885 -117.53 311.648 -119.993C316.442 -122.38 321.417 -124.457 326.559 -126.206C331.749 -127.842 337.106 -129.134 342.598 -130.079C348.126 -130.89 353.754 -131.345 359.433 -131.445C365.093 -131.393 370.727 -130.982 376.273 -130.207C381.698 -129.271 386.943 -127.964 391.912 -126.287C396.67 -124.443 401.085 -122.233 405.107 -119.657C408.885 -116.951 412.28 -113.91 415.312 -110.573C418.24 -107.196 420.957 -103.61 423.564 -99.8656C426.373 -96.2343 429.33 -92.5661 432.57 -88.9348C436.345 -85.5685 440.6 -82.3224 445.372 -79.2171C450.758 -76.4106 456.59 -73.715 462.732 -71.0729C469.088 -68.5495 475.341 -65.9048 481.223 -63.0257C486.611 -59.9542 491.153 -56.4364 494.639 -52.3944C497.177 -47.9627 498.574 -42.9597 498.902 -37.4219C498.616 -31.6239 497.749 -25.4976 496.633 -19.1884C495.875 -13.0253 495.538 -7.11191 495.841 -1.54136C497.128 3.60764 499.16 8.35871 501.806 12.7447C505.16 16.8149 508.693 20.6932 512.108 24.4773C515.447 28.2657 518.146 32.1594 520.021 36.2132C521.228 40.4939 521.417 44.9953 520.6 49.684C519.089 54.5889 516.746 59.5801 513.742 64.5635C510.405 69.5988 506.706 74.4832 502.809 79.1244C498.998 83.6409 495.209 87.8276 491.508 91.6501C488.117 95.2753 484.868 98.5419 481.743 101.462C478.943 104.235 476.208 106.742 473.491 109.03C471.004 111.3 468.448 113.459 465.78 115.562C463.261 117.795 460.579 120.074 457.722 122.439C454.965 125.049 452.021 127.822 448.89 130.767C445.861 134.018 442.65 137.467 439.27 141.093C435.986 145.011 432.529 149.068 428.908 153.222C425.348 157.56 421.603 161.905 417.646 166.179C413.703 170.475 409.608 174.476 405.352 178.124C401.044 181.622 396.541 184.672 391.852 187.242C387.07 189.552 382.083 191.329 376.925 192.581C371.656 193.532 366.236 193.954 360.685 193.873C355.075 193.507 349.384 192.677 343.671 191.414C337.959 189.929 332.284 188.064 326.709 185.857C321.198 183.502 315.842 180.859 310.676 177.959C305.624 174.989 300.789 171.811 296.193 168.455C291.691 165.108 287.395 161.624 283.305 158.037C279.227 154.517 275.283 150.934 271.445 147.302C267.516 143.795 263.636 140.258 259.776 136.706C255.774 133.287 251.777 129.842 247.82 126.359C243.754 122.972 239.777 119.509 235.944 115.94C232.135 112.389 228.571 108.673 225.307 104.775C222.204 100.826 219.462 96.6466 217.118 92.2433C214.956 87.7579 213.164 83.0495 211.718 78.1393C210.335 73.1966 209.223 68.2117 208.311 63.2304C207.287 58.2968 206.381 53.4072 205.564 48.5849C204.558 43.8535 203.642 39.2007 202.841 34.6375C201.92 30.1467 201.193 25.7183 200.703 21.3553C200.247 17.0058 200.119 12.6887 200.364 8.41352C200.754 4.10423 201.564 -0.183003 202.784 -4.42813C204.182 -8.72126 205.973 -12.9643 208.115 -17.1348C210.381 -21.3408 212.928 -25.4559 215.729 -29.4566C218.542 -33.468 221.527 -37.3588 224.661 -41.1077C227.718 -44.8683 230.874 -48.4994 234.118 -52.0015C237.238 -55.5343 240.432 -58.9598 243.705 -62.2865C246.842 -65.6767 250.067 -68.9996 253.392 -72.2591C256.592 -75.6156 259.915 -78.93 263.364 -82.209C266.717 -85.5969 270.223 -88.9499 273.893 -92.256C277.5 -95.6574 281.289 -98.997 285.281 -102.246C289.239 -105.552 293.426 -108.734 297.855 -111.763" stroke="url(#paint11_linear_24_441)" stroke-opacity="0.5" stroke-width="1.27396" stroke-linecap="round" stroke-dasharray="11.21 8.15"/>
<path opacity="0.16" d="M312.212 -107.63C316.592 -110.278 321.096 -112.657 325.7 -114.752C330.332 -116.781 335.076 -118.499 339.908 -119.891C344.765 -121.167 349.705 -122.105 354.682 -122.694C359.66 -123.143 364.64 -123.235 369.575 -122.966C374.456 -122.547 379.224 -121.759 383.827 -120.614C388.312 -119.314 392.561 -117.66 396.535 -115.654C400.35 -113.516 403.86 -111.047 407.055 -108.278C410.132 -105.418 412.958 -102.301 415.577 -98.9643C418.248 -95.6303 420.872 -92.1551 423.545 -88.589C426.533 -85.1403 429.765 -81.6754 433.327 -78.2524C437.413 -75.0315 441.919 -71.8783 446.843 -68.8092C452.231 -65.9264 457.893 -63.0651 463.669 -60.1851C469.496 -57.3447 475.072 -54.3447 480.162 -51.1128C484.714 -47.7059 488.424 -43.9297 491.143 -39.7472C493.015 -35.2693 493.881 -30.3639 493.807 -25.0759C493.229 -19.6088 492.142 -13.9013 490.82 -8.06188C489.813 -2.33982 489.148 3.18539 489.002 8.42321C489.721 13.354 491.079 17.9548 492.989 22.2353C495.592 26.2589 498.413 30.0751 501.231 33.7302C504.111 37.3471 506.531 40.9487 508.317 44.5918C509.617 48.3588 510.051 52.2282 509.596 56.1859C508.509 60.3091 506.593 64.4775 503.972 68.6371C500.936 72.879 497.423 77.0254 493.57 81.0061C489.647 84.9575 485.605 88.6807 481.538 92.1369C477.65 95.5025 473.839 98.5974 470.136 101.416C466.707 104.17 463.375 106.695 460.131 109.026C457.13 111.373 454.158 113.603 451.177 115.759C448.385 118.038 445.527 120.33 442.584 122.657C439.768 125.203 436.837 127.851 433.769 130.617C430.798 133.641 427.677 136.804 424.405 140.092C421.202 143.62 417.835 147.249 414.292 150.93C410.798 154.767 407.111 158.591 403.22 162.326C399.336 166.085 395.317 169.568 391.159 172.721C386.975 175.754 382.639 178.376 378.164 180.56C373.631 182.522 368.965 184.001 364.183 184.985C359.351 185.707 354.423 185.932 349.444 185.678C344.439 185.168 339.419 184.205 334.433 182.818C329.463 181.219 324.57 179.242 319.797 176.92C315.081 174.452 310.514 171.689 306.128 168.672C301.808 165.583 297.669 162.289 293.713 158.827C289.789 155.36 286.015 151.768 282.377 148.091C278.69 144.469 275.078 140.787 271.528 137.079C267.853 133.463 264.189 129.832 260.542 126.185C256.745 122.651 252.965 119.089 249.241 115.501C245.428 111.983 241.736 108.395 238.215 104.725C234.752 101.066 231.55 97.2718 228.67 93.3358C225.961 89.3498 223.635 85.1902 221.705 80.8521C219.968 76.4505 218.597 71.8758 217.573 67.1508C216.62 62.3955 215.93 57.6382 215.441 52.9124C214.847 48.2242 214.36 43.5951 213.955 39.0611C213.36 34.6001 212.841 30.2312 212.405 25.9734C211.823 21.7781 211.4 17.678 211.163 13.6629C210.919 9.6722 210.952 5.74533 211.307 1.88791C211.767 -1.99091 212.602 -5.82385 213.814 -9.5965C215.193 -13.4175 216.952 -17.1896 219.062 -20.8863C221.311 -24.6325 223.868 -28.3041 226.689 -31.8858C229.566 -35.5089 232.652 -39.0329 235.905 -42.449C239.13 -45.9145 242.48 -49.2728 245.922 -52.5233C249.284 -55.8319 252.717 -59.0468 256.214 -62.1711C259.609 -65.3724 263.066 -68.5039 266.595 -71.5692C270.017 -74.7259 273.528 -77.8279 277.135 -80.8721C280.651 -84.0193 284.29 -87.1125 288.057 -90.1325C291.761 -93.2383 295.619 -96.2632 299.644 -99.1803C303.638 -102.14 307.825 -104.969 312.202 -107.626" stroke="url(#paint12_linear_24_441)" stroke-opacity="0.5" stroke-width="1.27396" stroke-linecap="round" stroke-dasharray="8.66 8.15"/>
<path opacity="0.82" d="M324.588 -101.95C328.864 -104.237 333.189 -106.245 337.552 -107.979C341.923 -109.645 346.329 -111.009 350.745 -112.047C355.167 -112.991 359.582 -113.593 363.952 -113.858C368.3 -113.996 372.575 -113.782 376.733 -113.222C380.83 -112.528 384.767 -111.484 388.509 -110.108C392.162 -108.601 395.592 -106.768 398.776 -104.625C401.878 -102.384 404.759 -99.8617 407.432 -97.0877C410.103 -94.2654 412.658 -91.2396 415.139 -88.049C417.79 -84.8759 420.519 -81.5982 423.39 -78.2503C426.625 -75.0027 430.131 -71.7331 433.959 -68.4718C438.229 -65.3496 442.836 -62.2401 447.728 -59.1499C452.921 -56.1575 458.224 -53.1334 463.483 -50.0433C468.65 -46.9375 473.462 -43.6699 477.723 -40.1949C481.438 -36.572 484.345 -32.6615 486.344 -28.4448C487.612 -24.0214 487.996 -19.2989 487.572 -14.3049C486.746 -9.19936 485.474 -3.92747 483.988 1.42793C482.773 6.71011 481.829 11.8127 481.3 16.6832C481.514 21.3329 482.266 25.7151 483.511 29.8215C485.399 33.7306 487.539 37.4287 489.748 40.9425C492.123 44.3918 494.204 47.7569 495.827 51.0638C497.133 54.4308 497.742 57.8091 497.606 61.1807C496.942 64.6687 495.519 68.1591 493.402 71.6125C490.848 75.1553 487.752 78.617 484.235 81.9671C480.524 85.3418 476.571 88.5586 472.479 91.5926C468.437 94.6124 464.376 97.4412 460.349 100.075C456.506 102.702 452.741 105.159 449.06 107.469C445.589 109.824 442.185 112.08 438.835 114.268C435.664 116.578 432.505 118.875 429.327 121.182C426.285 123.678 423.196 126.235 420.03 128.857C416.959 131.696 413.797 134.62 410.51 137.611C407.298 140.804 403.947 144.048 400.455 147.3C396.995 150.682 393.374 154.02 389.583 157.248C385.8 160.5 381.917 163.484 377.951 166.164C373.96 168.739 369.877 170.942 365.715 172.745C361.525 174.359 357.263 175.527 352.953 176.253C348.618 176.747 344.257 176.787 339.905 176.379C335.551 175.748 331.227 174.689 326.973 173.234C322.744 171.586 318.604 169.572 314.593 167.234C310.617 164.758 306.774 161.995 303.08 158.992C299.407 155.919 295.862 152.645 292.456 149.208C289.021 145.764 285.674 142.204 282.412 138.55C279.052 134.946 275.727 131.279 272.43 127.578C268.984 123.951 265.541 120.297 262.11 116.628C258.541 113.037 255.008 109.42 251.546 105.771C248.033 102.169 244.664 98.5147 241.491 94.7873C238.395 91.0645 235.584 87.2321 233.105 83.2981C230.805 79.3228 228.886 75.2157 227.359 70.9788C226.02 66.6929 225.043 62.2858 224.411 57.768C223.844 53.2367 223.533 48.7266 223.417 44.2711C223.204 39.844 223.099 35.4969 223.068 31.2559C222.853 27.0626 222.693 22.981 222.594 19.0196C222.339 15.1085 222.197 11.3082 222.197 7.6152C222.15 3.94614 222.327 0.366443 222.766 -3.13035C223.266 -6.63441 224.093 -10.074 225.246 -13.4331C226.539 -16.8383 228.186 -20.1764 230.166 -23.4465C232.285 -26.7676 234.714 -30.025 237.422 -33.1988C240.22 -36.4304 243.245 -39.5901 246.461 -42.6617C249.706 -45.7951 253.09 -48.852 256.596 -51.8171C260.064 -54.8611 263.624 -57.8257 267.253 -60.7149C270.816 -63.6858 274.441 -66.5898 278.123 -69.4254C281.729 -72.3559 285.402 -75.2208 289.143 -78.0203C292.819 -80.9125 296.576 -83.7274 300.42 -86.4615C304.226 -89.2696 308.137 -91.9753 312.162 -94.5603C316.166 -97.1817 320.308 -99.6573 324.583 -101.949" stroke="url(#paint13_linear_24_441)" stroke-opacity="0.5" stroke-width="1.27396" stroke-linecap="round" stroke-dasharray="5.1 10.7"/>
<path opacity="0.29" d="M334.275 -94.8978C338.379 -96.8192 342.464 -98.48 346.512 -99.871C350.568 -101.201 354.58 -102.239 358.531 -102.976C362.482 -103.619 366.357 -103.951 370.129 -103.957C373.877 -103.859 377.5 -103.439 380.972 -102.698C384.401 -101.842 387.667 -100.672 390.74 -99.2025C393.778 -97.6307 396.631 -95.7712 399.309 -93.6472C401.987 -91.4552 404.533 -89.0188 406.972 -86.3806C409.509 -83.707 412.026 -80.867 414.574 -77.8878C417.359 -74.9258 420.282 -71.8645 423.387 -68.735C426.839 -65.6685 430.547 -62.5558 434.506 -59.4168C438.809 -56.3507 443.328 -53.2553 447.995 -50.1308C452.816 -47.0414 457.6 -43.886 462.211 -40.6391C466.637 -37.3553 470.637 -33.9224 474.057 -30.3263C476.962 -26.6077 479.119 -22.6875 480.457 -18.5498C481.184 -14.2731 481.153 -9.79254 480.433 -5.14493C479.402 -0.421153 477.986 4.40568 476.371 9.27774C474.997 14.1005 473.822 18.7681 472.979 23.2449C472.757 27.5756 472.981 31.6845 473.628 35.5614C474.865 39.2989 476.353 42.8328 477.967 46.1814C479.82 49.4598 481.51 52.6135 482.894 55.6643C484.112 58.7214 484.804 61.7204 484.903 64.6609C484.605 67.666 483.646 70.6223 482.064 73.5221C480.079 76.4874 477.543 79.3792 474.543 82.1783C471.288 85.03 467.708 87.7673 463.891 90.3759C460.008 93.0152 456.012 95.5285 451.964 97.9072C447.994 100.326 444.035 102.632 440.129 104.827C436.355 107.102 432.644 109.305 428.988 111.448C425.479 113.715 422.014 115.966 418.574 118.212C415.256 120.623 411.938 123.061 408.6 125.529C405.347 128.182 402.05 130.871 398.695 133.583C395.392 136.456 392.008 139.337 388.529 142.193C385.08 145.157 381.524 148.04 377.851 150.804C374.177 153.584 370.471 156.104 366.73 158.34C362.982 160.494 359.198 162.306 355.398 163.75C351.584 165.041 347.758 165.937 343.945 166.429C340.12 166.729 336.326 166.615 332.583 166.102C328.843 165.396 325.166 164.304 321.584 162.845C318.005 161.219 314.527 159.256 311.17 156.993C307.81 154.606 304.562 151.954 301.429 149.071C298.266 146.122 295.195 142.984 292.213 139.685C289.155 136.373 286.142 132.935 283.171 129.409C280.076 125.911 276.991 122.343 273.911 118.727C270.69 115.159 267.466 111.555 264.267 107.924C260.954 104.34 257.701 100.721 254.546 97.0753C251.37 93.4498 248.355 89.7771 245.564 86.0534C242.87 82.3183 240.467 78.5115 238.397 74.624C236.507 70.7058 234.984 66.6989 233.849 62.6039C232.884 58.4754 232.271 54.2667 231.988 49.9884C231.774 45.6942 231.798 41.4558 232.004 37.2855C232.132 33.1383 232.363 29.0774 232.657 25.1278C232.786 21.2155 232.956 17.4141 233.165 13.7396C233.216 10.1013 233.34 6.58205 233.575 3.17885C233.718 -0.208984 234.038 -3.49047 234.553 -6.67011C235.097 -9.86151 235.898 -12.9597 236.978 -15.9752C238.16 -19.0294 239.647 -22.0017 241.438 -24.9019C243.359 -27.8526 245.573 -30.7339 248.059 -33.5415C250.651 -36.4148 253.483 -39.2224 256.52 -41.9514C259.625 -44.7532 262.895 -47.4934 266.303 -50.1552C269.723 -52.9033 273.256 -55.5884 276.869 -58.1976C280.466 -60.9024 284.135 -63.5451 287.852 -66.11C291.537 -68.7721 295.279 -71.3687 299.065 -73.8865C302.814 -76.4953 306.625 -79.0187 310.484 -81.4434C314.318 -83.9355 318.219 -86.3123 322.187 -88.558C326.141 -90.8422 330.169 -92.9605 334.271 -94.8917" stroke="url(#paint14_linear_24_441)" stroke-opacity="0.5" stroke-width="1.27396" stroke-linecap="round" stroke-dasharray="10.7 1.02"/>
<path opacity="0.44" d="M341.148 -86.8723C345.022 -88.4569 348.819 -89.7911 352.529 -90.8732C356.246 -91.91 359.87 -92.6729 363.389 -93.1602C366.901 -93.5738 370.3 -93.695 373.566 -93.5307C376.821 -93.2817 379.939 -92.7362 382.907 -91.9126C385.859 -90.9985 388.666 -89.8072 391.33 -88.3545C393.998 -86.8198 396.552 -85.0388 398.992 -83.0375C401.501 -80.9699 403.955 -78.7022 406.387 -76.2553C408.964 -73.7755 411.596 -71.1501 414.312 -68.3939C417.271 -65.6367 420.381 -62.7757 423.664 -59.84C427.234 -56.921 430.991 -53.93 434.917 -50.8894C439.066 -47.8705 443.309 -44.7846 447.571 -41.6451C451.865 -38.5005 456.013 -35.2747 459.897 -31.9585C463.534 -28.6013 466.711 -25.1212 469.331 -21.5172C471.473 -17.8288 472.941 -14.0023 473.699 -10.037C473.964 -5.98976 473.579 -1.8137 472.622 2.46271C471.429 6.77842 469.909 11.1535 468.212 15.5478C466.711 19.9095 465.36 24.1431 464.269 28.2092C463.687 32.1908 463.466 35.9882 463.596 39.5931C464.247 43.106 465.143 46.4439 466.19 49.6017C467.518 52.7076 468.775 55.6703 469.861 58.5014C471.239 62.6839 471.477 70.6099 470.091 74.3843C468.653 76.9223 466.711 79.3788 464.315 81.7405C461.643 84.1582 458.611 86.4862 455.283 88.7186C451.82 91.0046 448.156 93.2 444.362 95.2983C440.554 97.471 436.687 99.5608 432.797 101.582C428.969 103.691 425.159 105.756 421.383 107.774C417.689 109.917 414.039 112.043 410.424 114.158C406.894 116.419 403.388 118.691 399.901 120.961C396.477 123.385 393.048 125.815 389.607 128.237C386.209 130.791 382.776 133.32 379.308 135.792C375.86 138.355 372.359 140.817 368.805 143.15C365.253 145.492 361.723 147.592 358.222 149.43C354.709 151.203 351.223 152.666 347.78 153.797C344.322 154.811 340.909 155.472 337.55 155.777C334.186 155.929 330.886 155.713 327.666 155.143C324.44 154.414 321.296 153.341 318.253 151.941C315.197 150.404 312.231 148.562 309.368 146.445C306.472 144.22 303.659 141.754 300.929 139.067C298.142 136.317 295.402 133.389 292.719 130.302C289.929 127.192 287.164 123.953 284.413 120.619C281.535 117.29 278.659 113.879 275.783 110.411C272.786 106.962 269.803 103.465 266.859 99.9309C263.841 96.4139 260.904 92.8576 258.086 89.2712C255.279 85.6881 252.656 82.064 250.27 78.4006C247.99 74.7247 246.001 70.9953 244.344 67.2157C242.854 63.4135 241.721 59.552 240.946 55.6411C240.333 51.7085 240.053 47.7258 240.082 43.7071C240.171 39.6784 240.484 35.721 240.977 31.8524C241.394 27.9913 241.914 24.2267 242.499 20.5701C242.924 16.9402 243.392 13.4218 243.886 10.0232C244.213 6.64721 244.596 3.39101 245.049 0.247075C245.391 -2.88349 245.86 -5.90091 246.47 -8.81776C247.464 -13.152 250.619 -21.3944 252.873 -25.3236C254.562 -27.9653 256.517 -30.5324 258.721 -33.0274C261.034 -35.5818 263.58 -38.0716 266.334 -40.4877C269.169 -42.9791 272.189 -45.4135 275.36 -47.775C278.585 -50.2227 281.933 -52.6084 285.386 -54.9287C288.854 -57.3395 292.405 -59.6866 296.019 -61.9667C299.634 -64.3297 303.302 -66.629 307.015 -68.8429C310.714 -71.1371 314.454 -73.3451 318.227 -75.445C321.989 -77.6103 325.786 -79.6574 329.607 -81.5637C333.428 -83.5011 337.275 -85.2776 341.143 -86.8714" stroke="url(#paint15_linear_24_441)" stroke-opacity="0.5" stroke-width="1.27396" stroke-linecap="round" stroke-dasharray="4.08 1.02"/>
<path opacity="0.47" d="M345.711 -78.3601C349.306 -79.6343 352.808 -80.6783 356.195 -81.4999C359.586 -82.281 362.865 -82.8195 366.026 -83.1098C370.702 -83.3307 379.44 -82.4105 383.497 -81.274C387.463 -79.7846 394.98 -75.5572 398.622 -72.8752C401.136 -70.9698 403.649 -68.8799 406.189 -66.629C408.887 -64.3435 411.662 -61.9125 414.537 -59.3589C417.614 -56.7858 420.821 -54.0985 424.156 -51.3171C427.686 -48.5258 431.318 -45.6479 435.03 -42.6965C438.85 -39.7361 442.653 -36.6971 446.372 -33.5875C450.031 -30.4563 453.463 -27.2445 456.579 -23.9583C459.429 -20.6333 461.826 -17.2243 463.69 -13.7227C465.149 -10.1779 466.017 -6.54471 466.279 -2.83162C466.151 0.928058 465.487 4.75503 464.352 8.63214C463.045 12.5276 461.459 16.4527 459.714 20.3793C458.142 24.2876 456.664 28.0781 455.378 31.7356C454.511 35.3433 453.927 38.8082 453.623 42.1152C453.77 45.3742 454.136 48.4766 454.665 51.4284C455.886 55.7312 458.092 63.6447 458.608 67.2948C458.547 70.8578 455.987 77.5308 453.465 80.6536C451.408 82.7532 448.989 84.7735 446.253 86.7045C443.354 88.6938 440.207 90.6123 436.872 92.4583C433.459 94.3794 429.922 96.2471 426.301 98.0569C422.666 99.9658 418.996 101.837 415.313 103.674C411.661 105.626 408.014 107.567 404.39 109.485C400.806 111.537 397.246 113.576 393.711 115.607C390.21 117.763 386.728 119.907 383.263 122.018C379.824 124.234 376.386 126.409 372.956 128.511C369.538 130.679 366.109 132.745 362.682 134.678C359.25 136.621 355.892 138.337 352.606 139.819C349.314 141.25 346.09 142.403 342.945 143.276C339.788 144.052 336.712 144.518 333.721 144.678C329.257 144.579 320.749 142.64 316.708 140.835C314.011 139.421 311.397 137.737 308.861 135.808C306.272 133.783 303.748 131.535 301.274 129.092C298.721 126.581 296.206 123.897 293.716 121.062C291.12 118.192 288.536 115.192 285.961 112.089C283.277 108.967 280.593 105.757 277.928 102.479C275.176 99.2003 272.452 95.8567 269.796 92.4702C267.099 89.0829 264.509 85.6482 262.06 82.1782C259.651 78.7089 257.438 75.1984 255.462 71.6574C253.603 68.1091 252.032 64.5199 250.771 60.9029C249.673 57.2737 248.904 53.6095 248.465 49.9254C248.174 46.2257 248.183 42.4992 248.482 38.7674C248.838 35.0296 249.402 31.3721 250.124 27.8054C250.796 24.2441 251.555 20.7811 252.381 17.4236C253.075 14.0752 253.797 10.8365 254.54 7.7083C255.442 3.08728 257.28 -5.59974 258.322 -9.67199C259.405 -13.6613 262.41 -21.1966 264.424 -24.7624C265.902 -27.1539 267.603 -29.4668 269.523 -31.7004C271.524 -33.9888 273.742 -36.2132 276.162 -38.3618C278.663 -40.5803 281.344 -42.7361 284.187 -44.822C287.088 -46.9858 290.134 -49.0881 293.293 -51.1308C296.492 -53.2443 299.789 -55.2965 303.159 -57.2848C306.553 -59.3422 310.01 -61.3346 313.513 -63.2395C317.023 -65.217 320.568 -67.1009 324.14 -68.8851C327.716 -70.7211 331.311 -72.436 334.909 -74.018C338.509 -75.6259 342.111 -77.0802 345.706 -78.3595" stroke="url(#paint16_linear_24_441)" stroke-opacity="0.5" stroke-width="1.27396" stroke-linecap="round" stroke-dasharray="8.15 3.06"/>
<path opacity="0.7" d="M348.929 -69.7286C352.233 -70.7264 355.44 -71.5206 358.544 -72.1162C363.152 -72.8541 371.844 -73.1983 375.939 -72.7948C379.952 -72.0864 387.603 -69.5144 391.296 -67.6788C393.809 -66.3333 396.294 -64.7978 398.778 -63.0836C401.356 -61.3229 403.967 -59.3954 406.621 -57.3169C409.405 -55.1935 412.261 -52.9358 415.195 -50.5491C418.268 -48.1281 421.418 -45.5935 424.629 -42.9597C427.943 -40.2951 431.287 -37.54 434.615 -34.6975C437.954 -31.8402 441.199 -28.8968 444.28 -25.8845C447.244 -22.8564 449.941 -19.7545 452.305 -16.591C454.404 -13.4098 456.082 -10.168 457.284 -6.87307C458.149 -3.55716 458.512 -0.197095 458.372 3.20713C457.931 6.62554 457.059 10.0746 455.799 13.5368C454.422 17.0096 452.816 20.4881 451.062 23.9584C449.45 27.427 447.9 30.7855 446.483 34.0409C445.401 37.2754 444.528 40.3928 443.878 43.3823C443.56 47.7795 444.113 55.926 444.673 59.6798C445.319 63.302 445.629 69.9856 445.04 73.0642C443.891 76.0722 439.621 81.6763 436.556 84.3004C434.258 86.072 431.701 87.7793 428.926 89.4204C426.048 91.1276 422.999 92.7867 419.821 94.4009C416.585 96.0995 413.261 97.7665 409.874 99.4059C406.477 101.138 403.043 102.856 399.593 104.549C396.148 106.344 392.707 108.129 389.27 109.888C385.853 111.748 382.44 113.583 379.055 115.37C375.68 117.243 372.317 119.065 368.981 120.804C365.653 122.594 362.34 124.286 359.047 125.844C355.759 127.413 352.564 128.783 349.466 129.944C346.361 131.065 343.352 131.952 340.439 132.595C336.101 133.315 327.872 133.311 323.975 132.572C320.126 131.422 312.753 127.725 309.202 125.229C306.8 123.414 304.439 121.393 302.116 119.192C299.719 116.928 297.344 114.494 294.988 111.922C292.548 109.303 290.118 106.556 287.707 103.696C285.209 100.814 282.737 97.834 280.302 94.7759C277.815 91.7049 275.387 88.5648 273.047 85.3644C270.702 82.1643 268.483 78.9123 266.419 75.6223C264.422 72.3242 262.627 68.996 261.066 65.6415C259.622 62.2815 258.447 58.8986 257.567 55.5017C256.83 52.0981 256.393 48.6803 256.257 45.2535C256.248 41.8257 256.514 38.3951 257.036 34.9677C257.613 31.5326 258.379 28.1907 259.292 24.9388C260.164 21.6888 261.127 18.5313 262.145 15.4683C263.057 12.4102 263.999 9.45279 264.96 6.59135C266.204 2.35449 268.638 -5.63207 269.899 -9.38513C271.128 -13.0602 274.127 -19.997 275.978 -23.2626C278.039 -26.4974 283.14 -32.656 286.185 -35.5852C288.336 -37.5693 290.654 -39.4897 293.127 -41.3411C295.659 -43.2563 298.332 -45.1018 301.125 -46.8866C303.966 -48.7348 306.907 -50.5164 309.943 -52.2259C313.002 -53.9978 316.141 -55.6969 319.329 -57.3167C322.536 -58.9883 325.792 -60.5705 329.069 -62.0517C332.359 -63.5742 335.67 -64.9804 338.981 -66.2643C342.302 -67.5689 345.619 -68.7255 348.924 -69.7284" stroke="url(#paint17_linear_24_441)" stroke-opacity="0.5" stroke-width="1.27396" stroke-linecap="round" stroke-dasharray="7.13 9.17"/>
<path opacity="0.35" d="M351.891 -61.1112C356.372 -62.1496 364.958 -63.3136 369.056 -63.4188C374.487 -63.325 379.655 -62.4596 384.59 -60.8785C389.666 -59.0918 394.661 -56.5875 399.655 -53.4411C404.962 -50.1076 410.404 -46.1712 415.979 -41.744C421.863 -37.1705 427.752 -32.1587 433.402 -26.8134C438.864 -21.3886 443.567 -15.6822 447.107 -9.80594C449.714 -3.89463 450.749 2.15129 450.108 8.23884C449.435 11.2836 448.421 14.3397 447.096 17.3922C445.695 20.4438 444.1 23.488 442.378 26.5206C440.763 29.5595 439.184 32.5071 437.699 35.3641C436.468 38.224 435.386 40.9888 434.473 43.6588C433.539 49.0091 433.12 53.973 432.96 58.5169C433.325 63.0771 433.261 67.2399 432.499 70.9869C431.425 74.8017 429.295 78.2627 426.15 81.3908C422.494 84.6761 417.933 87.7215 412.702 90.5501C407.177 93.6557 401.206 96.6286 395.001 99.4714C388.721 102.65 382.326 105.715 375.942 108.591C372.755 110.129 369.568 111.605 366.407 113C363.241 114.436 360.096 115.77 356.979 116.988C353.861 118.215 350.842 119.266 347.917 120.134C344.992 120.976 342.156 121.616 339.424 122.053C333.928 122.754 328.778 122.551 323.964 121.476C319.052 120.083 314.395 117.817 309.962 114.769C305.322 111.438 300.808 107.406 296.418 102.804C291.78 98.0206 287.254 92.7648 282.947 87.1598C278.559 81.4826 274.567 75.5297 271.182 69.4259C268.089 63.305 265.853 57.0668 264.647 50.8048C264.24 47.6761 264.098 44.5454 264.221 41.4178C264.456 38.2966 264.93 35.1782 265.639 32.0727C266.394 28.9677 267.316 25.9462 268.369 23.0129C269.397 20.0843 270.511 17.2332 271.684 14.4797C273.746 8.94883 275.916 3.75561 278.128 -1.0753C279.897 -5.95214 281.836 -10.5009 284.015 -14.7053C286.022 -18.9984 288.489 -22.9855 291.462 -26.6609C294.528 -30.4728 298.198 -34.0179 302.415 -37.2762C306.802 -40.716 311.696 -43.9053 316.968 -46.7947C322.365 -49.8711 328.059 -52.6434 333.927 -55.0315C336.877 -56.2712 339.856 -57.4087 342.855 -58.4236C345.858 -59.4538 348.87 -60.3564 351.886 -61.1112" stroke="url(#paint18_linear_24_441)" stroke-opacity="0.5" stroke-width="1.27396" stroke-linecap="round" stroke-dasharray="12.74 6.62"/>
<path opacity="0.89" d="M355.457 -52.4014C360.927 -53.4712 366.224 -53.8994 371.314 -53.7088C376.426 -53.4041 381.4 -52.4299 386.247 -50.8362C391.206 -49.0762 396.141 -46.6846 401.066 -43.7265C406.179 -40.602 411.33 -36.9383 416.434 -32.8233C421.627 -28.5846 426.608 -23.9522 431.144 -19.0293C435.355 -14.0527 438.738 -8.8587 441.024 -3.54794C442.531 1.74351 442.73 7.10616 441.576 12.45C439.817 17.7613 437.098 23.061 433.73 28.2945C430.712 33.5578 427.873 38.5375 425.453 43.2198C423.948 47.9616 422.853 52.4155 422.014 56.5453C421.729 60.7295 421.243 64.5878 420.351 68.0957C419.384 71.6647 417.688 74.9217 415.223 77.8588C412.417 80.9149 408.837 83.7324 404.614 86.3105C400.111 89.0986 395.108 91.7238 389.76 94.1714C384.293 96.8609 378.607 99.397 372.825 101.712C367.019 104.214 361.167 106.421 355.365 108.214C349.561 110.036 344.072 111.223 338.917 111.742C333.741 112.108 328.849 111.722 324.249 110.605C319.563 109.253 315.087 107.154 310.813 104.39C306.396 101.391 302.115 97.7736 298.003 93.6418C293.759 89.3475 289.716 84.6075 285.971 79.5412C282.263 74.4008 279.017 69.002 276.394 63.4631C274.083 57.9157 272.581 52.272 271.998 46.6269C271.848 41.0072 272.602 35.395 274.229 29.8599C276.024 24.3314 278.324 19.1094 280.927 14.2102C283.267 9.28214 285.725 4.63829 288.228 0.304102C290.342 -4.09837 292.569 -8.21703 294.933 -12.0399C297.074 -15.9552 299.528 -19.598 302.323 -22.941C305.112 -26.4069 308.357 -29.6108 312.036 -32.5235C315.803 -35.5833 320.015 -38.3716 324.583 -40.8537C329.238 -43.4728 334.203 -45.7789 339.386 -47.7118C344.601 -49.7294 349.981 -51.3217 355.451 -52.4017" stroke="url(#paint19_linear_24_441)" stroke-opacity="0.5" stroke-width="1.27396" stroke-linecap="round" stroke-dasharray="11.21 9.68"/>
<path opacity="0.88" d="M359.951 -43.3635C364.882 -44.0585 369.739 -44.1875 374.486 -43.7811C379.252 -43.2848 383.948 -42.2118 388.564 -40.5994C393.245 -38.8602 397.886 -36.5765 402.464 -33.8025C407.113 -30.9012 411.665 -27.5395 416.024 -23.792C420.314 -19.9557 424.244 -15.7963 427.619 -11.4007C430.628 -6.99615 432.845 -2.42233 434.081 2.21429C434.723 6.80436 434.307 11.4265 432.828 16.003C430.954 20.5383 428.322 25.0522 425.149 29.5009C422.242 33.9894 419.401 38.2551 416.816 42.292C414.912 46.4227 413.298 50.3392 411.9 54.0167C410.999 57.7793 410.035 61.287 408.865 64.5161C407.777 67.8228 406.216 70.8573 404.131 73.6129C401.869 76.4638 399.007 79.0771 395.6 81.4451C391.99 83.9563 387.891 86.2753 383.419 88.3815C378.827 90.657 373.943 92.7301 368.882 94.5439C363.782 96.4965 358.553 98.1444 353.282 99.3965C348.009 100.664 342.951 101.388 338.141 101.549C333.324 101.606 328.722 101.034 324.347 99.8588C319.933 98.5141 315.693 96.5445 311.654 94.0153C307.541 91.3069 303.604 88.0715 299.884 84.3865C296.135 80.5744 292.658 76.3711 289.543 71.8756C286.548 67.3239 284.039 62.5477 282.148 57.6461C280.554 52.7524 279.689 47.7839 279.632 42.8124C279.918 37.8856 280.989 32.9683 282.805 28.1274C284.764 23.2999 287.175 18.7419 289.869 14.4622C292.378 10.148 295.025 6.07287 297.73 2.25714C300.127 -1.63469 302.602 -5.29543 305.163 -8.70356C307.493 -12.2032 310.02 -15.4718 312.768 -18.4701C315.443 -21.5755 318.436 -24.4341 321.746 -27.0099C325.076 -29.7013 328.757 -32.121 332.747 -34.2384C336.776 -36.4485 341.103 -38.3474 345.659 -39.8773C350.234 -41.4665 355.013 -42.654 359.951 -43.3635Z" stroke="url(#paint20_linear_24_441)" stroke-opacity="0.5" stroke-width="1.27396" stroke-linecap="round" stroke-dasharray="4.59 10.7"/>
<path opacity="0.78" d="M365.052 -33.7852C369.45 -34.1619 373.822 -34.0456 378.124 -33.4599C382.437 -32.8154 386.696 -31.6726 390.869 -30.0793C395.057 -28.3952 399.162 -26.2546 403.119 -23.7169C407.06 -21.089 410.799 -18.0895 414.237 -14.7844C417.531 -11.434 420.388 -7.82965 422.679 -4.05814C424.64 -0.297559 425.888 3.58159 426.316 7.49133C426.323 11.352 425.504 15.2164 423.874 19.0403C422.001 22.8285 419.525 26.5953 416.603 30.3133C413.879 34.0744 411.131 37.6648 408.515 41.0832C406.377 44.598 404.41 47.9583 402.595 51.1403C401.192 54.4264 399.781 57.5297 398.278 60.413C396.935 63.3838 395.31 66.1403 393.353 68.657C391.353 71.2591 388.929 73.6402 386.089 75.7764C383.136 78.0205 379.776 80.0525 376.068 81.8469C372.272 83.7491 368.172 85.4222 363.856 86.8155C359.496 88.2992 354.956 89.4737 350.303 90.2685C345.646 91.0783 341.112 91.4082 336.75 91.2678C332.391 91.0555 328.184 90.322 324.163 89.1001C320.134 87.7573 316.274 85.9073 312.616 83.5976C308.954 81.1681 305.495 78.2999 302.298 75.0665C299.149 71.7437 296.311 68.0962 293.871 64.2081C291.582 60.2917 289.781 56.1828 288.55 51.9697C287.578 47.7802 287.243 43.5198 287.595 39.271C288.215 35.0627 289.486 30.8643 291.404 26.7269C293.428 22.6095 295.849 18.7183 298.538 15.0594C301.102 11.3717 303.826 7.88047 306.625 4.59538C309.197 1.24643 311.848 -1.91638 314.552 -4.86679C317.06 -7.90132 319.691 -10.7411 322.464 -13.3464C325.125 -16.0455 327.999 -18.5228 331.087 -20.7412C334.145 -23.0433 337.461 -25.0939 341.017 -26.8499C344.57 -28.6739 348.376 -30.1954 352.395 -31.36C356.416 -32.5657 360.646 -33.3945 365.052 -33.7852Z" stroke="url(#paint21_linear_24_441)" stroke-opacity="0.5" stroke-width="1.27396" stroke-linecap="round" stroke-dasharray="10.19 1.53"/>
<path opacity="0.7" d="M369.912 -23.6678C373.757 -23.7863 377.568 -23.4773 381.303 -22.7829C385.038 -22.0464 388.691 -20.9046 392.226 -19.3936C395.738 -17.8357 399.109 -15.9085 402.272 -13.6764C405.366 -11.3987 408.198 -8.82991 410.679 -6.03929C413.004 -3.23539 414.895 -0.246956 416.26 2.86158C417.377 5.93874 417.898 9.10249 417.768 12.286C417.368 15.417 416.335 18.5567 414.695 21.6643C412.919 24.7482 410.673 27.8188 408.051 30.8627C405.562 33.9402 402.999 36.894 400.47 39.7144C398.261 42.6206 396.121 45.4183 394.066 48.0851C392.308 50.8477 390.558 53.4755 388.764 55.9451C387.142 58.5003 385.363 60.8896 383.396 63.0844C381.457 65.3548 379.242 67.4292 376.755 69.2882C374.229 71.2211 371.398 72.9459 368.292 74.4279C365.141 75.9827 361.726 77.2923 358.103 78.3234C354.449 79.4101 350.61 80.1923 346.634 80.6245C342.654 81.0666 338.743 81.0948 334.948 80.7216C331.162 80.3138 327.499 79.4798 323.994 78.2494C320.506 76.9498 317.183 75.2451 314.067 73.1825C310.99 71.0457 308.136 68.5658 305.571 65.7961C303.085 62.9832 300.926 59.9114 299.157 56.6538C297.535 53.3915 296.363 49.9744 295.695 46.4742C295.235 43.0053 295.303 39.4805 295.949 35.9594C296.785 32.4758 298.161 28.9969 300.071 25.5684C302.067 22.1562 304.405 18.9252 306.979 15.8849C309.491 12.8235 312.161 9.92302 314.935 7.19582C317.55 4.40774 320.257 1.77928 323.01 -0.674829C325.617 -3.20214 328.309 -5.5612 331.089 -7.72975C333.76 -9.96773 336.568 -12.0139 339.506 -13.8324C342.393 -15.7164 345.453 -17.3678 348.677 -18.752C351.877 -20.1893 355.263 -21.3432 358.809 -22.173C362.352 -23.03 366.061 -23.5455 369.912 -23.6678Z" stroke="url(#paint22_linear_24_441)" stroke-opacity="0.5" stroke-width="1.27396" stroke-linecap="round" stroke-dasharray="4.59 4.59"/>
<path opacity="0.89" d="M373.434 -13.283C379.945 -13.1035 386.142 -11.5588 391.717 -8.90653C397.178 -6.1461 401.805 -2.33444 405.153 2.14235C408.022 6.59617 409.239 11.5277 408.494 16.5454C407.144 21.4148 404.029 26.3576 399.426 31.1888C395.189 36.1302 390.647 40.7349 386.221 44.9379C382.585 49.4491 378.774 53.5633 374.69 57.0727C370.845 60.8394 366.267 63.9683 361.005 66.2137C355.671 68.6553 349.592 70.1724 343.044 70.4673C336.481 70.7899 330.171 69.7062 324.438 67.4159C318.82 64.9852 313.898 61.3313 310.028 56.7968C306.493 52.2021 304.251 46.8938 303.66 41.2834C303.634 35.7978 305.35 30.1408 308.87 24.6259C312.634 19.1876 317.424 14.2712 322.697 9.95627C327.624 5.48895 332.924 1.51364 338.384 -1.81794C343.536 -5.35896 349.082 -8.23582 354.927 -10.2117C360.684 -12.3168 366.911 -13.4398 373.434 -13.283Z" stroke="url(#paint23_linear_24_441)" stroke-opacity="0.5" stroke-width="1.27396" stroke-linecap="round" stroke-dasharray="1.02 1.02"/>
<path opacity="0.2" d="M374.658 -3.12669C379.907 -2.70493 384.661 -1.28346 388.708 0.904501C392.651 3.1348 395.731 6.08297 397.67 9.46288C399.319 12.8029 399.66 16.4676 398.566 20.2062C397.182 23.8615 394.507 27.5969 390.687 31.2768C387.085 35.0402 383.064 38.5453 378.969 41.7279C375.338 45.1256 371.507 48.2179 367.548 50.8466C363.798 53.6537 359.648 55.9533 355.159 57.54C350.667 59.2346 345.742 60.1639 340.584 60.088C335.412 60.0341 330.547 58.903 326.253 56.8931C322.049 54.8307 318.526 51.8991 315.952 48.3693C313.629 44.8375 312.397 40.8056 312.475 36.5702C312.906 32.4257 314.68 28.1501 317.843 23.963C321.165 19.8311 325.346 16.1086 329.969 12.8551C334.433 9.51898 339.26 6.58873 344.215 4.18169C348.993 1.65254 354.009 -0.343795 359.109 -1.61558C364.152 -2.96881 369.4 -3.54074 374.658 -3.12669Z" stroke="url(#paint24_linear_24_441)" stroke-opacity="0.5" stroke-width="1.27396" stroke-linecap="round" stroke-dasharray="5.61 4.08"/>
<path opacity="0.29" d="M373.058 6.22805C376.986 6.75184 380.349 7.92102 383.022 9.56729C386.573 12.2685 389.241 19.2952 388.086 23.1848C386.879 25.7651 384.766 28.4183 381.8 31.0443C378.952 33.7294 375.679 36.2059 372.242 38.4243C369.024 40.7639 365.601 42.8655 362.104 44.6097C358.737 46.4627 355.163 47.9317 351.504 48.8705C347.859 49.8771 344.049 50.3065 340.233 50.0177C336.411 49.7428 332.969 48.7341 330.059 47.143C326.088 44.4702 321.902 36.9275 322.122 32.5441C322.763 29.6354 324.373 26.6329 326.989 23.6812C329.702 20.7735 333.064 18.1635 336.798 15.9057C340.476 13.6228 344.481 11.6551 348.583 10.0941C352.608 8.48152 356.779 7.27583 360.904 6.59197C365.006 5.87487 369.125 5.71356 373.058 6.22805Z" stroke="url(#paint25_linear_24_441)" stroke-opacity="0.5" stroke-width="1.27396" stroke-linecap="round" stroke-dasharray="2.04 13.25"/>
<path opacity="0.67" d="M368.72 14.3652C375.484 16.5081 377.759 25.3144 372.794 30.3597C368.883 33.7766 363.647 36.6265 358.304 38.5171C353.171 40.587 347.602 41.589 342.576 40.8733C337.547 40.1736 334.042 37.8041 332.629 34.6027C331.425 31.4531 332.538 27.6241 336.271 23.9531C340.169 20.3627 345.763 17.5331 351.625 15.8277C357.42 14.0641 363.543 13.4211 368.72 14.3652Z" stroke="url(#paint26_linear_24_441)" stroke-opacity="0.5" stroke-width="1.27396" stroke-linecap="round" stroke-dasharray="12.23 1.53"/>
<defs>
<linearGradient id="paint0_linear_24_441" x1="141.34" y1="-102.045" x2="586.468" y2="154.949" gradientUnits="userSpaceOnUse">
<stop stop-color="#1F89DB"/>
<stop offset="1" stop-color="#F42A8B"/>
</linearGradient>
<linearGradient id="paint1_linear_24_441" x1="156.65" y1="-109.498" x2="570.807" y2="163.281" gradientUnits="userSpaceOnUse">
<stop stop-color="#1F89DB"/>
<stop offset="1" stop-color="#F42A8B"/>
</linearGradient>
<linearGradient id="paint2_linear_24_441" x1="172.055" y1="-115.602" x2="554.983" y2="170.247" gradientUnits="userSpaceOnUse">
<stop stop-color="#1F89DB"/>
<stop offset="1" stop-color="#F42A8B"/>
</linearGradient>
<linearGradient id="paint3_linear_24_441" x1="187.459" y1="-120.369" x2="539.095" y2="175.853" gradientUnits="userSpaceOnUse">
<stop stop-color="#1F89DB"/>
<stop offset="1" stop-color="#F42A8B"/>
</linearGradient>
<linearGradient id="paint4_linear_24_441" x1="202.757" y1="-123.826" x2="523.248" y2="180.112" gradientUnits="userSpaceOnUse">
<stop stop-color="#1F89DB"/>
<stop offset="1" stop-color="#F42A8B"/>
</linearGradient>
<linearGradient id="paint5_linear_24_441" x1="217.849" y1="-126.011" x2="507.546" y2="183.045" gradientUnits="userSpaceOnUse">
<stop stop-color="#1F89DB"/>
<stop offset="1" stop-color="#F42A8B"/>
</linearGradient>
<linearGradient id="paint6_linear_24_441" x1="232.64" y1="-126.969" x2="492.087" y2="184.675" gradientUnits="userSpaceOnUse">
<stop stop-color="#1F89DB"/>
<stop offset="1" stop-color="#F42A8B"/>
</linearGradient>
<linearGradient id="paint7_linear_24_441" x1="247.083" y1="-126.69" x2="476.755" y2="184.746" gradientUnits="userSpaceOnUse">
<stop stop-color="#1F89DB"/>
<stop offset="1" stop-color="#F42A8B"/>
</linearGradient>
<linearGradient id="paint8_linear_24_441" x1="260.702" y1="-125.122" x2="461.955" y2="184.342" gradientUnits="userSpaceOnUse">
<stop stop-color="#1F89DB"/>
<stop offset="1" stop-color="#F42A8B"/>
</linearGradient>
<linearGradient id="paint9_linear_24_441" x1="274.146" y1="-122.746" x2="447.856" y2="182.212" gradientUnits="userSpaceOnUse">
<stop stop-color="#1F89DB"/>
<stop offset="1" stop-color="#F42A8B"/>
</linearGradient>
<linearGradient id="paint10_linear_24_441" x1="286.891" y1="-119.283" x2="434.303" y2="179.033" gradientUnits="userSpaceOnUse">
<stop stop-color="#1F89DB"/>
<stop offset="1" stop-color="#F42A8B"/>
</linearGradient>
<linearGradient id="paint11_linear_24_441" x1="298.933" y1="-114.864" x2="421.455" y2="174.822" gradientUnits="userSpaceOnUse">
<stop stop-color="#1F89DB"/>
<stop offset="1" stop-color="#F42A8B"/>
</linearGradient>
<linearGradient id="paint12_linear_24_441" x1="310.205" y1="-109.562" x2="409.383" y2="169.645" gradientUnits="userSpaceOnUse">
<stop stop-color="#1F89DB"/>
<stop offset="1" stop-color="#F42A8B"/>
</linearGradient>
<linearGradient id="paint13_linear_24_441" x1="320.645" y1="-103.447" x2="398.151" y2="163.586" gradientUnits="userSpaceOnUse">
<stop stop-color="#1F89DB"/>
<stop offset="1" stop-color="#F42A8B"/>
</linearGradient>
<linearGradient id="paint14_linear_24_441" x1="330.17" y1="-96.5935" x2="387.79" y2="156.72" gradientUnits="userSpaceOnUse">
<stop stop-color="#1F89DB"/>
<stop offset="1" stop-color="#F42A8B"/>
</linearGradient>
<linearGradient id="paint15_linear_24_441" x1="338.711" y1="-89.083" x2="378.337" y2="149.131" gradientUnits="userSpaceOnUse">
<stop stop-color="#1F89DB"/>
<stop offset="1" stop-color="#F42A8B"/>
</linearGradient>
<linearGradient id="paint16_linear_24_441" x1="346.257" y1="-81.0129" x2="369.87" y2="140.894" gradientUnits="userSpaceOnUse">
<stop stop-color="#1F89DB"/>
<stop offset="1" stop-color="#F42A8B"/>
</linearGradient>
<linearGradient id="paint17_linear_24_441" x1="352.827" y1="-72.1974" x2="362.46" y2="131.784" gradientUnits="userSpaceOnUse">
<stop stop-color="#1F89DB"/>
<stop offset="1" stop-color="#F42A8B"/>
</linearGradient>
<linearGradient id="paint18_linear_24_441" x1="358.255" y1="-63.5444" x2="356.087" y2="122.732" gradientUnits="userSpaceOnUse">
<stop stop-color="#1F89DB"/>
<stop offset="1" stop-color="#F42A8B"/>
</linearGradient>
<linearGradient id="paint19_linear_24_441" x1="362.749" y1="-54.3167" x2="350.932" y2="113.112" gradientUnits="userSpaceOnUse">
<stop stop-color="#1F89DB"/>
<stop offset="1" stop-color="#F42A8B"/>
</linearGradient>
<linearGradient id="paint20_linear_24_441" x1="366.104" y1="-44.8903" x2="346.849" y2="103.218" gradientUnits="userSpaceOnUse">
<stop stop-color="#1F89DB"/>
<stop offset="1" stop-color="#F42A8B"/>
</linearGradient>
<linearGradient id="paint21_linear_24_441" x1="368.37" y1="-35.363" x2="343.905" y2="93.1544" gradientUnits="userSpaceOnUse">
<stop stop-color="#1F89DB"/>
<stop offset="1" stop-color="#F42A8B"/>
</linearGradient>
<linearGradient id="paint22_linear_24_441" x1="369.538" y1="-25.823" x2="342.101" y2="83.0194" gradientUnits="userSpaceOnUse">
<stop stop-color="#1F89DB"/>
<stop offset="1" stop-color="#F42A8B"/>
</linearGradient>
<linearGradient id="paint23_linear_24_441" x1="369.685" y1="-16.3129" x2="341.515" y2="72.9307" gradientUnits="userSpaceOnUse">
<stop stop-color="#1F89DB"/>
<stop offset="1" stop-color="#F42A8B"/>
</linearGradient>
<linearGradient id="paint24_linear_24_441" x1="368.663" y1="-7.04068" x2="341.942" y2="62.9746" gradientUnits="userSpaceOnUse">
<stop stop-color="#1F89DB"/>
<stop offset="1" stop-color="#F42A8B"/>
</linearGradient>
<linearGradient id="paint25_linear_24_441" x1="366.59" y1="1.97902" x2="343.479" y2="53.2619" gradientUnits="userSpaceOnUse">
<stop stop-color="#1F89DB"/>
<stop offset="1" stop-color="#F42A8B"/>
</linearGradient>
<linearGradient id="paint26_linear_24_441" x1="362.719" y1="11.0568" x2="345.655" y2="43.6551" gradientUnits="userSpaceOnUse">
<stop stop-color="#1F89DB"/>
<stop offset="1" stop-color="#F42A8B"/>
</linearGradient>
</defs>
</svg>
