<svg width="457" height="474" viewBox="0 0 457 474" fill="none" xmlns="http://www.w3.org/2000/svg">
<path opacity="0.91" d="M200.523 250.897C204.969 254.408 209.321 258.049 213.57 261.831C217.791 265.641 221.896 269.596 225.893 273.705C229.843 277.861 233.667 282.18 237.355 286.654C240.996 291.193 244.498 295.881 247.864 300.734C251.164 305.633 254.324 310.681 257.33 315.866C260.275 321.092 263.066 326.435 265.693 331.876C268.245 337.327 270.634 342.857 272.84 348.429C274.967 353.978 276.898 359.536 278.632 365.085C280.273 370.559 281.694 375.982 282.895 381.325C283.989 386.551 284.845 391.661 285.452 396.634C285.962 401.463 286.224 406.138 286.243 410.644C286.177 415.001 285.892 419.204 285.396 423.243C284.541 429.1 282.26 440.357 281.068 445.971C280.465 449.827 279.936 453.815 279.534 457.975C279.446 462.365 279.553 467.007 279.894 471.948C280.6 477.188 281.568 482.756 282.774 488.646C284.317 494.816 286.046 501.258 287.911 507.938C289.945 514.74 291.96 521.635 293.881 528.539C295.699 535.322 297.219 541.918 298.331 548.238C299.065 554.171 299.233 559.659 298.761 564.637C297.747 569.073 296.031 572.949 293.633 576.272C290.758 579.129 287.313 581.546 283.4 583.626C279.315 585.552 275.028 587.408 270.695 589.338C266.637 591.563 262.827 594.167 259.405 597.271C256.624 601.034 254.394 605.47 252.767 610.603C251.823 616.447 251.393 622.907 251.369 629.868C251.701 637.193 252.108 644.696 252.398 652.156C252.463 659.402 251.996 666.199 250.818 672.36C248.901 677.792 246.045 682.341 242.188 685.964C237.5 688.754 231.923 690.713 225.598 691.98C218.857 692.831 211.789 693.401 204.632 693.938C197.779 694.771 191.384 696.023 185.639 697.87C180.703 700.534 176.584 703.961 173.26 708.145C170.746 713.128 168.824 718.667 167.333 724.59C166.15 730.831 164.982 737.039 163.598 743.004C161.896 748.66 159.615 753.699 156.619 757.995C152.893 761.6 148.335 764.334 142.945 766.228C136.845 767.448 130.076 767.99 122.769 767.985C115.112 767.686 107.231 767.162 99.2979 766.606C91.4912 766.223 83.9183 766.101 76.6959 766.358C69.9457 767.144 63.6816 768.453 57.9271 770.29C52.7102 772.749 47.9421 775.684 43.5572 779.031C39.5417 782.813 35.7225 786.819 31.9968 790.928C28.3412 795.164 24.5687 799.291 20.5859 803.199C16.402 806.935 11.863 810.286 6.94523 813.194C1.66753 815.742 -4.0309 817.784 -10.1267 819.318C-16.5637 820.435 -23.3466 821.066 -30.4007 821.239C-37.6698 821.075 -45.0885 820.519 -52.5773 819.64C-60.0988 818.532 -67.5596 817.167 -74.8801 815.597C-82.0604 813.914 -89.0023 812.086 -95.645 810.127C-102.026 808.131 -108.056 806.046 -113.713 803.859C-119.056 801.676 -124.011 799.394 -128.587 797.006C-132.855 794.635 -136.777 792.144 -140.382 789.521C-143.733 786.908 -146.814 784.155 -149.675 781.257C-152.377 778.377 -154.924 775.352 -157.36 772.188C-159.749 769.079 -162.1 765.849 -164.456 762.511C-166.873 759.272 -169.364 755.967 -171.973 752.61C-174.736 749.408 -177.676 746.206 -180.803 743.013C-184.169 740.031 -187.769 737.095 -191.611 734.225C-195.725 731.598 -200.105 729.05 -204.738 726.586C-209.637 724.371 -214.779 722.23 -220.141 720.149C-225.722 718.279 -231.481 716.438 -237.386 714.601C-243.421 712.885 -249.53 711.123 -255.673 709.262C-261.834 707.42 -267.878 705.433 -273.759 703.274C-279.542 701.025 -285.086 698.529 -290.364 695.766C-295.454 692.817 -300.227 689.558 -304.663 685.982C-308.857 682.163 -312.68 678.003 -316.149 673.506C-319.346 668.765 -322.184 663.693 -324.671 658.318C-326.91 652.722 -328.822 646.855 -330.421 640.741C-331.828 634.472 -332.964 628.016 -333.847 621.411C-334.6 614.731 -335.151 607.953 -335.53 601.132C-335.834 594.312 -336.012 587.506 -336.077 580.737C-336.143 574.052 -336.133 567.461 -336.068 560.982C-336.058 554.643 -336.026 548.449 -335.974 542.414C-336.021 536.552 -336.077 530.858 -336.138 525.337C-336.334 519.98 -336.559 514.791 -336.802 509.752C-337.194 504.853 -337.62 500.089 -338.073 495.438C-338.686 490.89 -339.317 486.425 -339.962 482.022C-340.756 477.684 -341.546 473.388 -342.332 469.115C-343.229 464.871 -344.094 460.631 -344.898 456.386C-345.782 452.155 -346.576 447.92 -347.259 443.666C-347.974 439.426 -348.544 435.182 -348.956 430.918C-349.348 426.674 -349.554 422.429 -349.573 418.175C-349.545 413.931 -349.311 409.677 -348.867 405.418C-348.381 401.155 -347.694 396.868 -346.81 392.553C-345.903 388.215 -344.809 383.84 -343.552 379.422C-342.276 374.958 -340.841 370.447 -339.256 365.898C-337.662 361.303 -335.913 356.675 -334.016 352.029C-332.09 347.354 -330 342.684 -327.737 338.037C-325.433 333.396 -322.941 328.8 -320.263 324.261C-317.537 319.75 -314.616 315.305 -311.521 310.929C-308.394 306.568 -305.103 302.267 -301.667 298.018C-298.24 293.75 -294.702 289.51 -291.065 285.293C-287.465 281.03 -283.791 276.776 -280.037 272.527C-276.335 268.226 -272.553 263.949 -268.668 259.709C-264.807 255.455 -260.866 251.308 -256.832 247.302C-252.77 243.324 -248.595 239.505 -244.295 235.849C-239.943 232.245 -235.469 228.809 -230.878 225.537C-226.255 222.297 -221.529 219.198 -216.723 216.225C-211.909 213.252 -207.042 210.377 -202.129 207.586C-197.239 204.772 -192.322 202.023 -187.367 199.349C-182.439 196.638 -177.48 194.006 -172.473 191.459C-167.481 188.888 -162.423 186.419 -157.308 184.063C-152.176 181.707 -146.963 179.468 -141.676 177.36C-136.366 175.266 -130.981 173.302 -125.535 171.456C-120.07 169.628 -114.554 167.908 -109 166.3C-103.461 164.677 -97.9028 163.158 -92.3353 161.732C-86.8052 160.288 -81.2844 158.928 -75.7776 157.665C-70.3129 156.389 -64.8623 155.211 -59.435 154.15C-54.0498 153.094 -48.6739 152.168 -43.3074 151.383C-37.9689 150.644 -32.6305 150.064 -27.292 149.662C-21.9582 149.34 -16.6244 149.204 -11.2906 149.274C-5.94746 149.438 -0.613664 149.807 4.71546 150.387C10.0446 151.06 15.355 151.939 20.6374 153.024C25.9104 154.183 31.146 155.529 36.3302 157.058C41.4957 158.642 46.5958 160.386 51.6304 162.279C56.623 164.196 61.55 166.253 66.3977 168.427C71.2079 170.6 75.9387 172.882 80.604 175.266C85.2319 177.612 89.7944 180.052 94.2961 182.572C98.7744 185.04 103.211 187.588 107.6 190.201C111.99 192.749 116.351 195.371 120.685 198.05C125.041 200.658 129.389 203.332 133.727 206.072C138.098 208.732 142.469 211.466 146.849 214.266C151.266 217.001 155.693 219.81 160.129 222.704C164.603 225.542 169.081 228.468 173.564 231.502C178.075 234.489 182.582 237.593 187.074 240.823C191.581 244.03 196.064 247.382 200.519 250.892" stroke="url(#paint0_linear_24_412)" stroke-opacity="0.5" stroke-width="1.65274" stroke-linecap="round" stroke-dasharray="12.56 1.32"/>
<path opacity="0.36" d="M207.543 275.509C211.706 279.168 215.755 282.937 219.684 286.821C223.593 290.732 227.369 294.762 231.002 298.909C234.595 303.101 238.036 307.42 241.323 311.865C244.543 316.354 247.606 320.964 250.498 325.681C253.317 330.446 255.953 335.312 258.415 340.262C260.786 345.239 262.971 350.284 264.956 355.374C266.857 360.469 268.551 365.588 270.034 370.7C271.425 375.788 272.602 380.844 273.552 385.855C274.414 390.794 275.049 395.66 275.461 400.432C275.79 405.111 275.9 409.683 275.788 414.134C275.621 418.484 275.259 422.715 274.717 426.823C274.16 430.873 273.459 434.831 272.636 438.711C271.869 442.586 271.043 446.442 270.182 450.321C269.472 454.268 268.799 458.307 268.193 462.472C267.83 466.81 267.6 471.349 267.53 476.116C267.759 481.131 268.187 486.42 268.81 491.987C269.727 497.805 270.825 503.887 272.068 510.212C273.522 516.694 275.033 523.33 276.543 530.045C278.082 536.743 279.472 543.371 280.64 549.85C281.613 556.07 282.212 561.968 282.351 567.479C282.11 572.522 281.313 577.069 279.93 581.075C278.103 584.574 275.703 587.556 272.765 590.052C269.516 592.197 265.863 594.028 261.923 595.655C257.969 597.277 253.955 598.951 250.009 600.84C246.404 603.124 243.101 605.865 240.181 609.159C237.845 613.128 235.986 617.743 234.607 623.028C233.781 628.936 233.323 635.367 233.122 642.197C233.14 649.283 233.127 656.432 232.906 663.448C232.416 670.172 231.399 676.392 229.709 681.944C227.361 686.756 224.173 690.703 220.116 693.751C215.352 696.013 209.837 697.501 203.681 698.337C197.183 698.797 190.404 699.002 183.538 699.178C176.936 699.651 170.713 700.521 165.013 701.96C160.013 704.175 155.69 707.124 152.049 710.82C149.107 715.301 146.702 720.357 144.693 725.84C143.01 731.687 141.384 737.59 139.645 743.337C137.703 748.874 135.319 753.894 132.369 758.268C128.833 762.012 124.591 764.951 119.624 767.065C114.019 768.501 107.763 769.214 100.966 769.319C93.7634 769.017 86.2524 768.378 78.5647 767.56C70.8566 766.769 63.2353 766.095 55.8105 765.663C48.7035 765.637 41.9462 766.036 35.5919 766.907C29.6954 768.353 24.22 770.283 19.1305 772.657C14.4384 775.518 10.0225 778.7 5.81852 782.1C1.81049 785.751 -2.15638 789.418 -6.15178 793.013C-10.1818 796.56 -14.3792 799.848 -18.8 802.795C-23.4108 805.469 -28.318 807.69 -33.5156 809.435C-38.9663 810.786 -44.7008 811.628 -50.6774 811.969C-56.8609 811.928 -63.2178 811.414 -69.6807 810.471C-76.2424 809.218 -82.8157 807.604 -89.3328 805.675C-95.805 803.538 -102.132 801.156 -108.268 798.561C-114.234 795.859 -119.938 793.004 -125.352 790.007C-130.536 786.981 -135.399 783.847 -139.939 780.62C-144.231 777.403 -148.214 774.106 -151.888 770.729C-155.353 767.397 -158.557 763.991 -161.523 760.515C-164.361 757.103 -167.022 753.631 -169.549 750.101C-172.03 746.663 -174.452 743.181 -176.844 739.664C-179.29 736.284 -181.783 732.883 -184.35 729.487C-187.068 726.259 -189.918 723.052 -192.934 719.878C-196.159 716.906 -199.588 713.993 -203.236 711.132C-207.132 708.501 -211.26 705.926 -215.618 703.421C-220.217 701.123 -225.039 698.872 -230.055 696.671C-235.278 694.635 -240.661 692.609 -246.17 690.571C-251.802 688.633 -257.5 686.63 -263.225 684.528C-268.965 682.448 -274.589 680.229 -280.05 677.857C-285.422 675.405 -290.566 672.742 -295.453 669.841C-300.163 666.801 -304.561 663.484 -308.63 659.901C-312.462 656.116 -315.941 652.043 -319.06 647.687C-321.92 643.127 -324.416 638.287 -326.551 633.189C-328.441 627.907 -329.994 622.389 -331.226 616.673C-332.244 610.821 -332.976 604.803 -333.448 598.659C-333.765 592.431 -333.862 586.132 -333.755 579.783C-333.568 573.426 -333.226 567.063 -332.75 560.732C-332.263 554.453 -331.691 548.24 -331.04 542.116C-330.446 536.087 -329.808 530.168 -329.157 524.371C-328.607 518.691 -328.061 513.146 -327.54 507.731C-327.153 502.434 -326.807 497.261 -326.495 492.208C-326.353 487.252 -326.255 482.407 -326.208 477.643C-326.331 472.957 -326.494 468.344 -326.69 463.786C-327.047 459.284 -327.421 454.813 -327.801 450.384C-328.306 445.985 -328.788 441.611 -329.23 437.263C-329.757 432.938 -330.211 428.636 -330.577 424.353C-330.968 420.101 -331.239 415.876 -331.366 411.682C-331.491 407.521 -331.449 403.388 -331.23 399.276C-330.986 395.202 -330.541 391.154 -329.92 387.117C-329.261 383.091 -328.42 379.071 -327.392 375.053C-326.345 371.027 -325.123 366.978 -323.737 362.915C-322.339 358.816 -320.784 354.684 -319.074 350.537C-317.362 346.353 -315.494 342.146 -313.476 337.928C-311.437 333.684 -309.239 329.449 -306.884 325.233C-304.495 321.014 -301.931 316.833 -299.201 312.7C-296.434 308.578 -293.498 304.508 -290.391 300.5C-287.262 296.508 -283.981 292.557 -280.557 288.656C-277.128 284.742 -273.58 280.863 -269.916 277.014C-266.283 273.13 -262.539 269.272 -258.707 265.433C-254.897 261.56 -250.985 257.721 -246.969 253.921C-242.961 250.111 -238.87 246.414 -234.698 242.839C-230.513 239.278 -226.228 235.859 -221.839 232.587C-217.425 229.344 -212.906 226.248 -208.293 223.298C-203.662 220.368 -198.941 217.56 -194.156 214.873C-189.362 212.186 -184.517 209.596 -179.626 207.098C-174.744 204.581 -169.819 202.141 -164.862 199.787C-159.917 197.409 -154.931 195.117 -149.904 192.922C-144.876 190.718 -139.788 188.62 -134.647 186.633C-129.496 184.656 -124.278 182.804 -119.002 181.078C-113.704 179.376 -108.352 177.795 -102.942 176.339C-97.5376 174.896 -92.093 173.569 -86.6264 172.345C-81.1834 171.125 -75.7272 170 -70.2766 168.967C-64.8764 167.918 -59.4911 166.961 -54.1343 166.092C-48.8374 165.205 -43.5696 164.415 -38.3451 163.725C-33.1723 163.037 -28.0297 162.464 -22.9233 162.03C-17.8603 161.616 -12.8253 161.36 -7.81388 161.267C-2.82007 161.233 2.15342 161.385 7.10658 161.724C12.0548 162.146 16.9909 162.774 21.9056 163.607C26.8198 164.529 31.7169 165.66 36.5882 166.991C41.4545 168.406 46.2906 170.016 51.0828 171.816C55.8761 173.676 60.6222 175.702 65.3216 177.885C70.0045 180.109 74.6369 182.475 79.2012 184.963C83.765 187.461 88.2568 190.067 92.6959 192.773C97.1268 195.459 101.501 198.231 105.819 201.089C110.14 203.891 114.419 206.766 118.653 209.698C122.904 212.571 127.12 215.502 131.308 218.484C135.525 221.397 139.728 224.365 143.91 227.379C148.134 230.329 152.35 233.322 156.557 236.384C160.806 239.373 165.052 242.428 169.288 245.553C173.575 248.625 177.843 251.775 182.1 255.013C186.389 258.216 190.657 261.515 194.895 264.931C199.158 268.324 203.371 271.841 207.539 275.504" stroke="url(#paint1_linear_24_412)" stroke-opacity="0.5" stroke-width="1.65274" stroke-linecap="round" stroke-dasharray="8.59 10.58"/>
<path opacity="0.88" d="M211.345 298.673C215.194 302.432 218.911 306.27 222.496 310.187C226.046 314.123 229.449 318.149 232.687 322.256C235.879 326.399 238.896 330.62 241.738 334.929C244.506 339.271 247.095 343.686 249.483 348.177C251.797 352.692 253.903 357.262 255.8 361.878C257.612 366.503 259.213 371.159 260.596 375.827C261.886 380.484 262.96 385.135 263.811 389.759C264.58 394.364 265.125 398.919 265.455 403.416C265.715 407.867 265.762 412.25 265.611 416.554C265.413 420.818 265.027 424.995 264.481 429.097C263.92 433.168 263.224 437.186 262.406 441.156C261.639 445.137 260.794 449.104 259.898 453.094C259.122 457.158 258.346 461.289 257.606 465.518C257.042 469.895 256.563 474.423 256.189 479.138C256.051 484.055 256.046 489.194 256.183 494.567C256.576 500.159 257.112 505.984 257.771 512.031C258.634 518.238 259.579 524.615 260.568 531.101C261.642 537.629 262.664 544.156 263.576 550.619C264.407 556.926 265.014 563.023 265.32 568.835C265.387 574.289 265.053 579.343 264.275 583.93C262.343 589.84 255.562 598.504 250.869 601.457C247.443 603.08 243.775 604.525 239.964 605.906C236.246 607.406 232.578 609.095 229.051 611.093C225.893 613.558 223.033 616.529 220.533 620.075C218.54 624.274 216.936 629.083 215.695 634.481C214.881 640.42 214.299 646.772 213.849 653.407C213.514 660.189 213.06 666.937 212.345 673.461C211.348 679.628 209.832 685.243 207.701 690.174C204.983 694.371 201.531 697.734 197.337 700.241C192.552 702.011 187.124 703.049 181.158 703.502C174.922 703.613 168.436 703.491 161.868 703.35C155.52 703.489 149.476 704.004 143.868 705.059C138.832 706.841 134.363 709.33 130.459 712.526C127.166 716.496 124.336 721.042 121.862 726.041C119.716 731.455 117.66 736.983 115.56 742.444C113.351 747.79 110.815 752.72 107.845 757.099C104.43 760.937 100.429 764.041 95.8145 766.367C90.6477 768.026 84.8944 768.951 78.6119 769.216C71.9198 769.004 64.8653 768.353 57.5651 767.392C50.1407 766.326 42.6825 765.228 35.2927 764.227C28.0746 763.487 21.0929 763.057 14.3977 762.991C8.06759 763.42 2.07618 764.288 -3.54759 765.591C-8.80213 767.394 -13.7422 769.564 -18.416 772.029C-22.8143 774.833 -27.0599 777.776 -31.1984 780.771C-35.2383 783.847 -39.2959 786.794 -43.4089 789.533C-47.5785 792.114 -51.8914 794.353 -56.3676 796.182C-60.9862 797.703 -65.7936 798.749 -70.7741 799.309C-75.9038 799.498 -81.1777 799.195 -86.5701 798.421C-92.0478 797.293 -97.5835 795.74 -103.114 793.787C-108.656 791.565 -114.12 789.012 -119.47 786.168C-124.748 783.148 -129.847 779.895 -134.745 776.45C-139.496 772.913 -144.009 769.24 -148.272 765.446C-152.368 761.629 -156.211 757.738 -159.8 753.774C-163.248 749.851 -166.469 745.883 -169.48 741.884C-172.401 737.966 -175.161 734.029 -177.787 730.089C-180.396 726.27 -182.924 722.454 -185.422 718.657C-187.98 715.008 -190.561 711.394 -193.188 707.816C-195.954 704.416 -198.83 701.068 -201.835 697.78C-205.033 694.686 -208.398 691.657 -211.942 688.701C-215.716 685.944 -219.68 683.244 -223.836 680.611C-228.217 678.163 -232.781 675.76 -237.504 673.389C-242.419 671.161 -247.461 668.931 -252.604 666.69C-257.857 664.535 -263.154 662.313 -268.459 660.005C-273.785 657.714 -278.98 655.311 -284.009 652.778C-288.96 650.182 -293.688 647.411 -298.154 644.45C-302.454 641.367 -306.456 638.065 -310.129 634.538C-313.587 630.858 -316.687 626.937 -319.435 622.781C-321.932 618.461 -324.073 613.91 -325.854 609.153C-327.401 604.234 -328.596 599.132 -329.469 593.851C-330.135 588.458 -330.498 582.926 -330.589 577.281C-330.525 571.564 -330.226 565.772 -329.715 559.93C-329.111 554.065 -328.341 548.188 -327.426 542.322C-326.495 536.478 -325.465 530.664 -324.348 524.916C-323.282 519.21 -322.17 513.585 -321.039 508.037C-320.011 502.561 -318.987 497.166 -317.99 491.875C-317.126 486.639 -316.307 481.497 -315.539 476.438C-314.934 471.44 -314.381 466.515 -313.891 461.659C-313.568 456.849 -313.293 452.094 -313.067 447.395C-312.992 442.739 -312.945 438.122 -312.913 433.55C-313.009 429.02 -313.084 424.525 -313.138 420.08C-313.273 415.681 -313.341 411.324 -313.332 407.023C-313.366 402.773 -313.285 398.583 -313.088 394.446C-312.884 390.37 -312.545 386.347 -312.043 382.382C-311.525 378.47 -310.841 374.597 -309.993 370.772C-309.121 366.977 -308.078 363.208 -306.868 359.467C-305.654 355.722 -304.27 351.979 -302.74 348.239C-301.204 344.476 -299.519 340.697 -297.693 336.917C-295.863 333.099 -293.89 329.27 -291.77 325.435C-289.648 321.581 -287.371 317.731 -284.946 313.899C-282.505 310.054 -279.909 306.247 -277.151 302.473C-274.371 298.706 -271.437 294.986 -268.344 291.318C-265.233 287.661 -261.972 284.045 -258.571 280.479C-255.16 276.914 -251.627 273.387 -247.962 269.899C-244.31 266.395 -240.535 262.93 -236.646 259.501C-232.774 256.052 -228.78 252.65 -224.675 249.303C-220.573 245.942 -216.391 242.695 -212.132 239.555C-207.864 236.425 -203.512 233.414 -199.076 230.53C-194.628 227.671 -190.1 224.925 -185.489 222.307C-180.878 219.698 -176.191 217.207 -171.451 214.816C-166.711 212.425 -161.915 210.125 -157.079 207.919C-152.251 205.703 -147.377 203.568 -142.466 201.531C-137.568 199.479 -132.616 197.527 -127.624 195.669C-122.628 193.826 -117.589 192.091 -112.488 190.477C-107.381 188.883 -102.213 187.417 -97.0042 186.08C-91.7799 184.772 -86.505 183.592 -81.202 182.534C-75.8918 181.495 -70.563 180.576 -65.2235 179.767C-59.9037 178.965 -54.5948 178.256 -49.2969 177.639C-44.0496 177.012 -38.8359 176.47 -33.6651 176.013C-28.553 175.534 -23.4931 175.139 -18.4825 174.842C-13.545 174.526 -8.65369 174.323 -3.822 174.226C0.955872 174.145 5.68014 174.2 10.3642 174.396C15.0056 174.634 19.6087 175.037 24.1724 175.614C28.715 176.25 33.2305 177.075 37.7085 178.099C42.187 179.198 46.6372 180.496 51.0499 181.991C55.4724 183.564 59.8626 185.33 64.2215 187.281C68.5862 189.303 72.9114 191.5 77.1994 193.852C81.4993 196.262 85.755 198.808 89.9653 201.499C94.193 204.201 98.3734 207.026 102.509 209.953C106.664 212.873 110.775 215.886 114.844 218.975C118.935 222.038 122.994 225.168 127.014 228.355C131.073 231.494 135.102 234.681 139.097 237.921C143.14 241.106 147.161 244.326 151.162 247.594C155.212 250.799 159.248 254.048 163.26 257.342C167.326 260.576 171.377 263.865 175.402 267.208C179.475 270.495 183.522 273.854 187.546 277.281C191.594 280.673 195.613 284.147 199.578 287.713C203.561 291.257 207.489 294.903 211.341 298.668" stroke="url(#paint2_linear_24_412)" stroke-opacity="0.5" stroke-width="1.65274" stroke-linecap="round" stroke-dasharray="13.88 17.19"/>
<path opacity="0.93" d="M211.842 319.486C215.347 323.288 218.712 327.131 221.922 331.018C225.101 334.918 228.109 338.873 230.944 342.869C233.731 346.889 236.329 350.961 238.731 355.065C241.07 359.205 243.198 363.378 245.118 367.577C246.962 371.804 248.593 376.05 250.004 380.305C251.337 384.574 252.442 388.84 253.335 393.102C254.143 397.358 254.74 401.6 255.125 405.805C255.438 410.011 255.546 414.176 255.461 418.296C255.335 422.414 255.031 426.487 254.558 430.524C254.07 434.563 253.445 438.578 252.698 442.581C251.979 446.612 251.172 450.656 250.304 454.728C249.516 458.88 248.698 463.093 247.878 467.396C247.192 471.832 246.544 476.394 245.952 481.103C245.531 485.99 245.203 491.055 244.962 496.316C244.922 501.76 244.98 507.402 245.131 513.236C245.464 519.226 245.86 525.366 246.31 531.628C246.855 537.946 247.397 544.306 247.889 550.652C248.374 556.907 248.721 563.032 248.88 568.958C248.905 574.622 248.663 579.974 248.094 584.948C246.707 591.581 241.57 601.876 237.82 605.548C233.414 608.337 223.237 612.501 217.864 614.458C214.451 616.024 211.144 617.871 208.013 620.095C205.245 622.83 202.755 626.09 200.569 629.912C198.801 634.336 197.326 639.305 196.119 644.774C195.204 650.674 194.424 656.884 193.672 663.26C192.959 669.681 192.06 675.974 190.882 681.97C189.412 687.548 187.455 692.555 184.943 696.87C181.932 700.469 178.284 703.27 173.992 705.264C169.229 706.57 163.924 707.215 158.166 707.314C152.196 707.108 146.011 706.699 139.739 706.269C133.65 706.114 127.809 706.302 122.311 706.993C117.289 708.367 112.719 710.401 108.624 713.104C105.037 716.548 101.846 720.571 98.9759 725.054C96.4123 729.977 93.9681 735.082 91.5185 740.192C89.037 745.267 86.3307 750.031 83.3069 754.34C79.9491 758.205 76.1299 761.408 71.8046 763.908C67.0239 765.767 61.7293 766.912 55.9622 767.38C49.7989 767.325 43.2689 766.745 36.4498 765.761C29.4536 764.547 22.3401 763.165 15.1871 761.737C8.10816 760.427 1.1464 759.285 -5.62678 758.391C-12.1499 757.878 -18.3942 757.719 -24.3516 757.948C-29.9729 758.636 -35.2949 759.696 -40.3386 761.085C-45.0807 762.861 -49.5979 764.866 -53.9269 767.015C-58.0684 769.362 -62.1091 771.705 -66.0836 773.968C-69.9925 776.211 -73.9119 778.218 -77.8665 779.944C-81.8564 781.469 -85.9204 782.611 -90.0703 783.328C-94.2944 783.743 -98.607 783.696 -102.984 783.186C-107.431 782.345 -111.925 781.055 -116.425 779.341C-120.955 777.317 -125.456 774.919 -129.891 772.177C-134.308 769.195 -138.612 765.935 -142.785 762.413C-146.9 758.754 -150.847 754.897 -154.617 750.877C-158.306 746.801 -161.808 742.61 -165.124 738.329C-168.366 734.062 -171.438 729.748 -174.352 725.397C-177.221 721.119 -179.972 716.84 -182.611 712.57C-185.269 708.412 -187.866 704.283 -190.434 700.206C-193.075 696.269 -195.731 692.391 -198.424 688.587C-201.264 684.942 -204.18 681.373 -207.2 677.886C-210.409 674.579 -213.746 671.353 -217.227 668.211C-220.922 665.235 -224.77 662.34 -228.763 659.515C-232.969 656.847 -237.317 654.229 -241.789 651.641C-246.427 649.186 -251.166 646.736 -255.966 644.279C-260.877 641.894 -265.799 639.458 -270.706 636.964C-275.623 634.478 -280.412 631.909 -285.024 629.249C-289.564 626.54 -293.871 623.692 -297.93 620.704C-301.839 617.618 -305.441 614.359 -308.733 610.933C-311.817 607.377 -314.564 603.635 -316.955 599.709C-319.121 595.642 -320.934 591.402 -322.389 586.992C-323.621 582.451 -324.521 577.751 -325.084 572.921C-325.455 567.974 -325.527 562.914 -325.324 557.76C-324.97 552.524 -324.371 547.222 -323.559 541.868C-322.658 536.469 -321.577 531.049 -320.352 525.616C-319.096 520.171 -317.743 514.738 -316.299 509.33C-314.89 503.931 -313.439 498.568 -311.959 493.248C-310.577 487.948 -309.19 482.701 -307.832 477.507C-306.592 472.338 -305.395 467.224 -304.25 462.162C-303.253 457.131 -302.312 452.147 -301.427 447.209C-300.695 442.307 -300.014 437.447 -299.375 432.642C-298.881 427.872 -298.409 423.151 -297.957 418.483C-297.617 413.862 -297.265 409.304 -296.891 404.812C-296.599 400.377 -296.248 396.014 -295.832 391.734C-295.456 387.523 -294.981 383.396 -294.407 379.353C-293.841 375.38 -293.143 371.492 -292.322 367.687C-291.003 362.101 -287.641 351.319 -285.589 346.067C-283.397 340.855 -278.323 330.482 -275.456 325.3C-273.512 321.801 -271.441 318.31 -269.237 314.814C-267.033 311.294 -264.696 307.779 -262.22 304.279C-259.747 300.765 -257.126 297.277 -254.364 293.828C-251.588 290.377 -248.663 286.967 -245.595 283.611C-242.509 280.258 -239.286 276.963 -235.912 273.723C-232.537 270.484 -229.02 267.298 -225.367 264.17C-221.716 261.036 -217.939 257.959 -214.033 254.937C-210.126 251.906 -206.102 248.939 -201.951 246.028C-197.799 243.117 -193.572 240.314 -189.276 237.609C-184.972 234.905 -180.597 232.314 -176.156 229.83C-171.716 227.355 -167.208 224.977 -162.634 222.706C-158.07 220.434 -153.451 218.261 -148.778 216.179C-144.118 214.09 -139.411 212.089 -134.668 210.176C-129.935 208.262 -125.159 206.431 -120.348 204.696C-115.543 202.965 -110.689 201.337 -105.797 199.812C-100.904 198.31 -95.9613 196.927 -90.979 195.669C-85.9796 194.447 -80.9353 193.348 -75.8551 192.392C-70.7614 191.468 -65.6316 190.687 -60.4756 190.026C-55.3261 189.401 -50.1594 188.893 -44.9941 188.499C-39.8542 188.114 -34.7232 187.833 -29.6232 187.645C-24.5676 187.44 -19.556 187.323 -14.5923 187.287C-9.7005 187.228 -4.86032 187.246 -0.091777 187.346C4.60478 187.424 9.23348 187.589 13.7835 187.85C18.2728 188.105 22.6948 188.47 27.0532 188.953C31.3553 189.459 35.5997 190.102 39.7848 190.891C43.934 191.721 48.0391 192.719 52.0963 193.88C56.1365 195.108 60.1402 196.516 64.1034 198.096C68.0665 199.757 71.9984 201.593 75.8899 203.602C79.8014 205.687 83.6795 207.931 87.5188 210.339C91.3851 212.809 95.2214 215.421 99.0239 218.17C102.853 220.956 106.651 223.86 110.419 226.883C114.224 229.912 118.003 233.031 121.751 236.245C125.539 239.446 129.301 242.714 133.037 246.049C136.831 249.352 140.596 252.706 144.339 256.109C148.141 259.47 151.926 262.875 155.686 266.314C159.506 269.711 163.301 273.142 167.08 276.608C170.909 280.03 174.717 283.492 178.495 286.991C182.322 290.456 186.116 293.967 189.859 297.531C193.645 301.065 197.368 304.659 201.032 308.318C204.717 311.962 208.318 315.681 211.838 319.481" stroke="url(#paint3_linear_24_412)" stroke-opacity="0.5" stroke-width="1.65274" stroke-linecap="round" stroke-dasharray="8.59 11.9"/>
<path opacity="0.61" d="M209.499 337.67C212.659 341.456 215.652 345.25 218.493 349.061C221.308 352.879 223.944 356.722 226.394 360.579C228.801 364.453 231.008 368.343 233.02 372.243C234.968 376.166 236.713 380.098 238.248 384.043C239.707 388.003 240.958 391.966 241.995 395.921C242.96 399.897 243.714 403.87 244.265 407.829C244.743 411.809 245.024 415.77 245.117 419.715C245.167 423.678 245.035 427.636 244.733 431.583C244.404 435.561 243.939 439.545 243.339 443.535C242.748 447.581 242.051 451.654 241.28 455.771C240.548 459.965 239.764 464.238 238.946 468.595C238.215 473.068 237.485 477.657 236.763 482.372C236.164 487.238 235.596 492.255 235.08 497.433C234.705 502.766 234.387 508.266 234.121 513.927C233.993 519.713 233.908 525.644 233.858 531.685C233.906 537.782 233.95 543.936 233.964 550.092C234.004 556.202 233.962 562.23 233.8 568.123C233.572 573.823 233.162 579.286 232.529 584.451C231.747 589.297 230.692 593.759 229.34 597.815C226.846 603.082 219.974 610.894 215.673 613.594C210.999 615.708 200.98 619.339 195.967 621.421C191.372 624.247 183.511 632.673 180.405 638.534C178.749 643.155 177.298 648.225 176.009 653.699C174.927 659.497 173.88 665.49 172.79 671.54C171.678 677.542 170.357 683.331 168.736 688.768C166.845 693.752 164.513 698.144 161.683 701.85C158.434 704.873 154.642 707.137 150.315 708.643C145.606 709.537 140.448 709.815 134.906 709.592C129.214 709.112 123.326 708.45 117.355 707.769C111.54 707.341 105.907 707.236 100.551 707.581C95.5763 708.561 90.9656 710.148 86.733 712.364C82.9267 715.287 79.4591 718.763 76.2636 722.708C73.3481 727.109 70.5526 731.732 67.8021 736.428C65.061 741.164 62.1795 745.684 59.0768 749.844C55.7416 753.649 52.0518 756.889 47.9714 759.492C43.5216 761.531 38.6558 762.879 33.3731 763.559C27.7404 763.694 21.7678 763.262 15.4979 762.345C9.01979 761.114 2.38012 759.595 -4.35195 757.899C-11.1035 756.184 -17.8139 754.499 -24.4314 752.927C-30.8878 751.605 -37.1535 750.531 -43.1884 749.757C-48.961 749.373 -54.473 749.325 -59.72 749.596C-64.6865 750.261 -69.4023 751.183 -73.8879 752.328C-78.1453 753.745 -82.2214 755.268 -86.1442 756.812C-91.7718 759.232 -102.549 763.22 -107.836 764.461C-113.121 765.05 -123.767 763.839 -129.114 762C-132.699 760.352 -136.258 758.316 -139.776 755.905C-143.3 753.258 -146.754 750.281 -150.129 747.015C-153.488 743.561 -156.748 739.876 -159.89 735.979C-163.014 731.985 -166.018 727.833 -168.906 723.555C-171.777 719.251 -174.538 714.864 -177.195 710.429C-179.868 706.02 -182.462 701.6 -184.985 697.183C-187.565 692.849 -190.11 688.547 -192.643 684.291C-195.275 680.151 -197.931 676.072 -200.625 672.071C-203.47 668.216 -206.385 664.436 -209.381 660.752C-212.566 657.214 -215.86 653.767 -219.261 650.408C-222.866 647.198 -226.588 644.075 -230.431 641.019C-234.462 638.101 -238.603 635.243 -242.827 632.428C-247.214 629.713 -251.661 627.027 -256.142 624.347C-260.715 621.722 -265.282 619.079 -269.815 616.392C-274.359 613.711 -278.756 610.994 -282.977 608.208C-287.126 605.387 -291.053 602.475 -294.726 599.469C-298.267 596.375 -301.511 593.161 -304.452 589.831C-307.208 586.387 -309.637 582.805 -311.728 579.092C-313.606 575.258 -315.149 571.287 -316.344 567.189C-317.342 562.969 -318 558.634 -318.356 554.184C-318.519 549.631 -318.394 544.979 -317.991 540.249C-317.45 535.427 -316.666 530.534 -315.67 525.596C-314.581 520.593 -313.324 515.549 -311.911 510.48C-310.464 505.366 -308.905 500.245 -307.257 495.116C-305.636 489.958 -303.96 484.812 -302.253 479.679C-300.62 474.528 -298.978 469.403 -297.349 464.294C-295.821 459.185 -294.33 454.106 -292.868 449.053C-291.543 444.006 -290.256 438.998 -289.007 434.028C-287.902 429.078 -286.828 424.177 -285.794 419.324C-284.879 414.506 -283.98 409.751 -283.098 405.069C-282.309 400.436 -281.514 395.877 -280.693 391.411C-279.943 387.019 -279.144 382.721 -278.288 378.528C-277.469 374.412 -276.579 370.4 -275.591 366.498C-274.089 360.816 -270.553 350.054 -268.498 344.932C-266.329 339.934 -261.413 330.219 -258.667 325.441C-255.832 320.654 -249.634 311.06 -246.261 306.254C-243.989 303.015 -241.599 299.781 -239.081 296.578C-236.571 293.348 -233.932 290.14 -231.168 286.971C-228.392 283.796 -225.485 280.671 -222.442 277.603C-219.381 274.539 -216.19 271.535 -212.853 268.605C-209.504 265.682 -206.021 262.825 -202.402 260.04C-198.772 257.271 -195.005 254.573 -191.115 251.939C-187.213 249.322 -183.185 246.774 -179.037 244.293C-174.883 241.823 -170.655 239.447 -166.362 237.179C-162.072 234.905 -157.723 232.726 -153.316 230.644C-148.915 228.55 -144.463 226.541 -139.967 224.629C-135.481 222.7 -130.952 220.853 -126.39 219.087C-121.843 217.307 -117.254 215.609 -112.642 213.999C-108.038 212.377 -103.402 210.845 -98.7306 209.407C-94.0743 207.971 -89.3726 206.646 -84.6426 205.444C-79.9022 204.259 -75.1265 203.207 -70.3133 202.279C-65.4872 201.398 -60.6315 200.654 -55.7426 200.052C-50.8407 199.496 -45.9149 199.081 -40.9741 198.805C-36.0329 198.566 -31.0871 198.449 -26.1481 198.46C-21.2294 198.476 -16.3334 198.607 -11.4705 198.835C-6.64956 199.058 -1.87207 199.362 2.84161 199.752C7.49602 200.109 12.0832 200.545 16.5962 201.05C21.0351 201.523 25.3943 202.068 29.6715 202.694C33.8781 203.294 38.0097 203.987 42.048 204.767C46.0387 205.546 49.9408 206.434 53.7761 207.44C57.565 208.459 61.2918 209.616 64.9564 210.913C68.5941 212.242 72.1856 213.723 75.7198 215.363C79.2521 217.052 82.7452 218.903 86.1957 220.913C89.6534 222.973 93.0809 225.198 96.4771 227.574C99.9009 229.996 103.293 232.569 106.668 235.277C110.072 238.02 113.46 240.89 116.817 243.872C120.229 246.883 123.624 249.989 126.996 253.187C130.425 256.389 133.84 259.668 137.238 263.021C140.697 266.36 144.146 269.758 147.569 273.204C151.068 276.634 154.544 280.101 158.006 283.609C161.533 287.084 165.034 290.606 168.516 294.147C172.062 297.665 175.577 301.209 179.051 304.787C182.584 308.335 186.074 311.926 189.503 315.546C192.976 319.148 196.39 322.793 199.722 326.481C203.07 330.158 206.335 333.888 209.496 337.664" stroke="url(#paint4_linear_24_412)" stroke-opacity="0.5" stroke-width="1.65274" stroke-linecap="round" stroke-dasharray="15.87 2.64"/>
<path opacity="0.18" d="M205.169 353.656C207.975 357.373 210.624 361.092 213.119 364.803C215.585 368.529 217.874 372.246 219.991 375.964C222.058 379.702 223.945 383.439 225.636 387.175C227.263 390.93 228.704 394.688 229.946 398.44C231.121 402.219 232.095 406.002 232.877 409.775C233.863 415.486 234.817 426.979 234.826 432.77C234.733 436.689 234.493 440.626 234.117 444.591C233.729 448.615 233.217 452.69 232.607 456.818C232.01 461.028 231.336 465.318 230.599 469.686C229.904 474.159 229.164 478.746 228.4 483.444C227.711 488.266 227.011 493.222 226.321 498.307C225.711 503.529 225.119 508.884 224.538 514.369C224.053 519.966 223.575 525.673 223.108 531.471C222.711 537.329 222.304 543.238 221.873 549.16C221.465 555.054 221.002 560.887 220.445 566.628C219.869 572.222 219.158 577.634 218.296 582.819C217.341 587.746 216.191 592.365 214.818 596.638C212.444 602.347 206.217 611.28 202.376 614.527C198.16 617.06 188.838 620.84 183.951 622.51C179.209 624.508 170.37 630.212 166.472 634.306C164.208 637.684 162.129 641.519 160.218 645.81C158.566 650.555 157.03 655.658 155.582 661.052C154.258 666.663 152.913 672.361 151.472 678.021C149.972 683.555 148.245 688.805 146.226 693.649C143.966 698.03 141.314 701.818 138.227 704.932C134.802 707.401 130.923 709.162 126.601 710.222C121.978 710.731 116.987 710.68 111.682 710.182C106.258 709.462 100.673 708.566 95.0052 707.67C89.4647 706.998 84.0654 706.618 78.8696 706.646C73.9825 707.252 69.3859 708.414 65.0833 710.153C61.1331 712.552 57.4519 715.481 54.014 718.865C50.8198 722.718 47.7449 726.823 44.7355 731.05C41.7732 735.379 38.7334 739.577 35.5444 743.51C32.2149 747.181 28.624 750.377 24.7398 753.025C20.5875 755.171 16.0924 756.691 11.2633 757.573C6.14722 757.919 0.728264 757.684 -4.95975 756.918C-10.8505 755.774 -16.9233 754.247 -23.1253 752.437C-29.39 750.495 -35.6782 748.454 -41.9345 746.388C-48.1016 744.446 -54.1558 742.632 -60.0448 741.014C-65.7483 739.687 -71.2318 738.617 -76.4917 737.825C-81.517 737.387 -86.2923 737.22 -90.8363 737.29C-95.1469 737.669 -99.2399 738.217 -103.138 738.878C-108.624 740.156 -118.671 742.623 -123.347 743.497C-127.846 744 -136.533 743.249 -140.75 741.884C-144.921 739.82 -153.06 733.618 -157.003 729.542C-159.623 726.55 -162.18 723.284 -164.67 719.78C-167.175 716.15 -169.614 712.333 -171.987 708.347C-174.385 704.299 -176.73 700.141 -179.021 695.886C-181.366 691.629 -183.682 687.328 -185.964 682.993C-188.342 678.702 -190.714 674.423 -193.098 670.165C-195.603 665.987 -198.148 661.86 -200.745 657.791C-203.496 653.827 -206.312 649.936 -209.216 646.121C-212.299 642.432 -215.475 638.823 -218.752 635.29C-222.209 631.884 -225.773 628.557 -229.427 625.302C-233.25 622.151 -237.156 619.067 -241.132 616.036C-245.239 613.083 -249.396 610.163 -253.557 607.261C-257.809 604.415 -262.032 601.554 -266.202 598.679C-270.383 595.81 -274.411 592.934 -278.269 590.027C-282.062 587.085 -285.634 584.093 -288.963 581.038C-292.176 577.921 -295.109 574.722 -297.75 571.441C-300.221 568.07 -302.384 564.601 -304.23 561.038C-305.888 557.366 -307.222 553.596 -308.24 549.732C-309.063 545.756 -309.577 541.683 -309.793 537.524C-309.837 533.267 -309.605 528.921 -309.103 524.506C-308.473 519.993 -307.606 515.421 -306.533 510.783C-305.371 506.075 -304.027 501.314 -302.529 496.517C-300.999 491.657 -299.341 486.766 -297.593 481.85C-295.85 476.883 -294.044 471.906 -292.191 466.918C-290.387 461.896 -288.568 456.874 -286.74 451.855C-284.989 446.817 -283.247 441.791 -281.531 436.787C-279.906 431.779 -278.311 426.801 -276.743 421.869C-275.273 416.951 -273.828 412.084 -272.406 407.274C-271.079 402.508 -269.762 397.823 -268.444 393.211C-267.209 388.666 -265.959 384.219 -264.686 379.871C-263.467 375.605 -262.216 371.457 -260.907 367.428C-259.644 363.483 -258.315 359.66 -256.909 355.954C-254.804 350.584 -250.191 340.483 -247.661 335.711C-245.071 331.063 -239.455 322.053 -236.433 317.64C-233.362 313.207 -226.79 304.33 -223.286 299.891C-220.935 296.886 -218.489 293.905 -215.933 290.933C-213.386 287.944 -210.732 284.987 -207.952 282.068C-205.176 279.143 -202.28 276.273 -199.252 273.469C-196.212 270.673 -193.049 267.953 -189.75 265.303C-186.433 262.689 -182.983 260.153 -179.404 257.706C-175.804 255.285 -172.077 252.946 -168.22 250.695C-164.357 248.47 -160.361 246.325 -156.25 244.268C-152.131 242.214 -147.95 240.262 -143.706 238.412C-139.469 236.55 -135.185 234.775 -130.852 233.079C-126.534 231.368 -122.172 229.739 -117.781 228.177C-113.409 226.596 -109.003 225.078 -104.58 223.633C-100.169 222.166 -95.7358 220.769 -91.2793 219.456C-86.8413 218.124 -82.3801 216.877 -77.8955 215.73C-73.4225 214.589 -68.9172 213.55 -64.3906 212.635C-59.8606 211.741 -55.3 210.988 -50.7151 210.364C-46.1201 209.788 -41.5003 209.356 -36.8617 209.071C-32.2067 208.844 -27.5418 208.763 -22.8701 208.82C-18.1941 208.927 -13.5202 209.171 -8.8605 209.542C-4.2179 209.937 0.398408 210.451 4.97908 211.067C9.52707 211.678 14.0215 212.385 18.4562 213.176C22.8399 213.942 27.1545 214.775 31.3883 215.682C35.5559 216.548 39.6423 217.474 43.639 218.469C47.5637 219.429 51.4013 220.449 55.1524 221.547C60.6428 223.19 71.1176 226.89 76.1299 229C81.0242 231.225 90.494 236.34 95.0936 239.247C99.6601 242.345 108.648 249.278 113.089 253.095C116.084 255.721 119.058 258.463 122.018 261.319C125.028 264.199 128.021 267.186 131.005 270.268C134.054 273.361 137.088 276.536 140.112 279.792C143.206 283.04 146.294 286.358 149.369 289.737C152.511 293.102 155.646 296.523 158.764 299.983C161.95 303.429 165.126 306.911 168.269 310.433C171.48 313.926 174.663 317.464 177.805 321.024C181.005 324.567 184.153 328.139 187.252 331.744C190.386 335.331 193.455 338.952 196.443 342.602C199.439 346.255 202.354 349.937 205.166 353.651" stroke="url(#paint5_linear_24_412)" stroke-opacity="0.5" stroke-width="1.65274" stroke-linecap="round" stroke-dasharray="5.29 7.93"/>
<path opacity="0.46" d="M199.749 368.451C202.221 372.086 204.548 375.709 206.728 379.326C208.878 382.958 210.871 386.581 212.701 390.2C214.487 393.832 216.101 397.47 217.537 401.103C219.525 406.593 222.52 417.654 223.535 423.229C224.296 428.885 224.919 440.393 224.824 446.276C224.682 450.274 224.41 454.324 224.016 458.438C223.61 462.623 223.104 466.89 222.504 471.237C221.916 475.673 221.251 480.211 220.532 484.853C219.831 489.597 219.091 494.445 218.312 499.414C217.577 504.479 216.809 509.661 216.023 514.946C215.284 520.318 214.52 525.775 213.74 531.312C212.995 536.891 212.223 542.505 211.408 548.138C210.609 553.742 209.755 559.306 208.83 564.794C207.884 570.174 206.845 575.401 205.682 580.452C204.469 585.301 203.112 589.903 201.593 594.215C199.091 600.104 192.987 609.707 189.367 613.395C185.438 616.352 176.713 620.685 172.038 622.355C167.38 624.047 158.228 628.198 153.906 631.074C151.263 633.488 148.744 636.282 146.349 639.485C144.185 643.141 142.145 647.192 140.22 651.619C138.473 656.401 136.781 661.442 135.109 666.67C133.511 672.009 131.836 677.34 130.041 682.552C128.169 687.567 126.07 692.249 123.711 696.491C121.135 700.265 118.222 703.451 114.948 705.997C111.406 707.945 107.488 709.236 103.208 709.887C98.701 710.045 93.8962 709.7 88.8347 708.956C83.6905 708.018 78.406 706.933 73.042 705.834C67.7838 704.948 62.6299 704.32 57.6275 704.051C52.8749 704.308 48.3315 705.066 44.0264 706.339C40.0039 708.225 36.1993 710.615 32.5855 713.433C29.1878 716.72 25.912 720.271 22.7049 723.987C19.564 727.861 16.3953 731.676 13.1407 735.304C9.80581 738.758 6.30233 741.832 2.59106 744.455C-1.30815 746.655 -5.46779 748.292 -9.87542 749.343C-14.5102 749.902 -19.3931 749.877 -24.5017 749.316C-29.7927 748.343 -35.2564 746.933 -40.8476 745.152C-46.5325 743.153 -52.2669 740.936 -58.0091 738.592C-63.7245 736.242 -69.3753 733.906 -74.9217 731.639C-80.3439 729.562 -85.6026 727.65 -90.6812 725.938C-95.5738 724.52 -100.254 723.324 -104.718 722.362C-110.996 721.459 -122.191 720.867 -127.166 720.958C-131.742 721.25 -140 721.515 -143.763 721.25C-150.674 719.292 -160.269 713.018 -163.26 709.709C-166.217 705.89 -171.974 696.825 -174.787 691.693C-176.711 688.125 -178.609 684.407 -180.498 680.568C-182.462 676.691 -184.427 672.734 -186.402 668.709C-188.489 664.692 -190.602 660.65 -192.747 656.587C-195.033 652.582 -197.375 648.58 -199.777 644.607C-202.335 640.705 -204.974 636.849 -207.695 633.037C-210.59 629.32 -213.576 625.659 -216.652 622.055C-219.9 618.552 -223.239 615.106 -226.653 611.716C-230.224 608.413 -233.858 605.161 -237.544 601.955C-241.359 598.816 -245.191 595.706 -249.031 592.622C-252.944 589.571 -256.819 586.525 -260.634 583.481C-264.464 580.436 -268.147 577.395 -271.655 574.355C-275.109 571.289 -278.358 568.194 -281.378 565.074C-284.29 561.889 -286.943 558.665 -289.325 555.381C-291.56 552.022 -293.512 548.598 -295.16 545.106C-296.648 541.519 -297.833 537.865 -298.725 534.134C-299.443 530.307 -299.868 526.404 -300.013 522.43C-300.002 518.354 -299.73 514.21 -299.206 509.999C-298.551 505.692 -297.675 501.327 -296.596 496.897C-295.42 492.393 -294.068 487.83 -292.569 483.221C-291.009 478.54 -289.327 473.824 -287.537 469.073C-285.737 464.267 -283.855 459.43 -281.917 454.574C-279.996 449.683 -278.041 444.783 -276.06 439.878C-274.123 434.958 -272.177 430.04 -270.226 425.149C-268.346 420.262 -266.467 415.405 -264.59 410.592C-262.793 405.809 -260.992 401.082 -259.199 396.432C-257.479 391.829 -255.755 387.313 -254.023 382.895C-252.352 378.548 -250.661 374.309 -248.953 370.186C-247.283 366.153 -245.587 362.239 -243.851 358.46C-241.276 352.982 -235.902 342.762 -233.085 337.996C-230.244 333.408 -224.26 324.697 -221.122 320.518C-217.96 316.357 -211.344 308.148 -207.886 304.047C-204.399 299.896 -197.07 291.576 -193.207 287.434C-190.615 284.658 -187.927 281.917 -185.136 279.223C-182.346 276.53 -179.448 273.896 -176.436 271.334C-173.408 268.793 -170.261 266.335 -166.996 263.976C-163.711 261.644 -160.304 259.417 -156.765 257.288C-153.216 255.198 -149.545 253.213 -145.747 251.328C-141.936 249.474 -138.006 247.719 -133.97 246.052C-129.925 244.404 -125.821 242.852 -121.67 241.402C-117.528 239.934 -113.338 238.553 -109.12 237.247C-104.911 235.908 -100.683 234.641 -96.427 233.434C-92.1967 232.187 -87.9447 231.004 -83.6797 229.88C-79.4402 228.716 -75.1849 227.619 -70.926 226.592C-66.6841 225.544 -62.4242 224.583 -58.1551 223.704C-53.898 222.831 -49.6233 222.06 -45.3375 221.406C-41.0555 220.777 -36.754 220.284 -32.4359 219.922C-28.1165 219.61 -23.778 219.45 -19.4262 219.429C-15.0767 219.482 -10.7138 219.674 -6.35277 220.02C-1.99355 220.425 2.36429 220.969 6.6972 221.649C11.02 222.369 15.3183 223.21 19.5805 224.163C23.8068 225.132 27.9887 226.194 32.1148 227.34C36.191 228.473 40.1998 229.681 44.1385 230.957C48.0161 232.197 51.8121 233.495 55.5175 234.85C60.9485 236.836 71.2536 241.021 76.142 243.235C80.8675 245.459 89.8724 250.265 94.1684 252.884C98.3791 255.586 106.52 261.534 110.486 264.793C114.444 268.194 122.268 275.585 126.157 279.563C128.795 282.263 131.422 285.07 134.035 287.97C136.71 290.878 139.383 293.875 142.04 296.952C144.766 300.033 147.493 303.18 150.202 306.4C152.989 309.613 155.765 312.883 158.531 316.208C161.364 319.524 164.182 322.883 166.984 326.286C169.839 329.679 172.675 333.11 175.468 336.576C178.321 340.028 181.123 343.511 183.877 347.031C186.66 350.537 189.387 354.077 192.032 357.647C194.698 361.215 197.269 364.812 199.747 368.445" stroke="url(#paint6_linear_24_412)" stroke-opacity="0.5" stroke-width="1.65274" stroke-linecap="round" stroke-dasharray="13.88 9.92"/>
<path opacity="0.47" d="M193.876 383.283C196.04 386.83 198.075 390.371 199.969 393.917C201.845 397.47 203.575 401.032 205.158 404.6C207.395 409.979 211.026 420.833 212.397 426.324C213.545 431.896 214.974 443.258 215.283 449.08C215.389 453.029 215.363 457.037 215.21 461.102C215.027 465.236 214.716 469.441 214.306 473.72C213.862 478.076 213.33 482.517 212.708 487.05C212.078 491.657 211.366 496.36 210.589 501.152C209.814 506.022 208.974 510.981 208.074 516.02C207.192 521.124 206.256 526.291 205.265 531.515C204.284 536.764 203.243 542.043 202.153 547.32C201.055 552.579 199.898 557.798 198.66 562.955C197.412 568.011 196.071 572.96 194.633 577.749C193.155 582.383 191.565 586.805 189.845 591.002C188.07 594.971 186.158 598.66 184.103 602.058C180.831 606.607 173.45 613.79 169.365 616.484C165.102 618.688 156.105 622.201 151.489 623.812C146.978 625.673 138.272 630.634 134.19 634.024C131.67 636.78 129.246 639.889 126.915 643.359C124.747 647.213 122.657 651.391 120.628 655.851C118.714 660.57 116.816 665.454 114.89 670.413C112.991 675.404 110.997 680.297 108.871 685C106.658 689.461 104.243 693.553 101.593 697.191C98.7627 700.367 95.6597 702.976 92.2551 704.978C88.6382 706.438 84.726 707.29 80.5328 707.571C76.1683 707.414 71.5651 706.812 66.7568 705.85C61.8944 704.731 56.9139 703.474 51.8634 702.202C46.8878 701.12 41.9953 700.269 37.2173 699.728C32.6251 699.661 28.1981 700.033 23.952 700.867C19.9218 702.269 16.0653 704.115 12.3668 706.382C8.85051 709.095 5.43426 712.082 2.10139 715.263C-1.16042 718.644 -4.41232 722.013 -7.70284 725.284C-11.0258 728.455 -14.4536 731.34 -18.0077 733.848C-21.6873 736.036 -25.5428 737.739 -29.5764 738.916C-33.7752 739.653 -38.1568 739.851 -42.7104 739.52C-47.4133 738.772 -52.264 737.557 -57.2175 735.934C-62.2697 734.023 -67.3812 731.816 -72.5169 729.385C-77.6704 726.854 -82.7876 724.216 -87.837 721.551C-92.8182 718.953 -97.6844 716.429 -102.409 714.014C-107.006 711.797 -111.425 709.745 -115.659 707.875C-121.668 705.552 -132.425 702.15 -137.186 700.963C-145.35 699.428 -155.637 697.098 -158.509 695.93C-163.685 692.471 -170.728 684.687 -172.912 681.162C-175.126 677.272 -179.559 668.409 -181.829 663.526C-183.432 660.178 -185.061 656.712 -186.72 653.151C-188.498 649.574 -190.319 645.928 -192.191 642.238C-194.207 638.562 -196.292 634.856 -198.447 631.135C-200.76 627.462 -203.157 623.793 -205.635 620.135C-208.278 616.527 -211.014 612.955 -213.825 609.406C-216.811 605.919 -219.869 602.467 -222.992 599.047C-226.266 595.694 -229.594 592.369 -232.962 589.066C-236.438 585.814 -239.935 582.583 -243.424 579.371C-246.983 576.179 -250.504 572.994 -253.965 569.799C-257.438 566.609 -260.77 563.434 -263.945 560.262C-267.077 557.074 -270.009 553.87 -272.74 550.652C-275.376 547.389 -277.774 544.097 -279.923 540.772C-282.828 535.662 -287.074 525.084 -288.404 519.591C-289.045 515.838 -289.415 512.013 -289.533 508.126C-289.498 504.157 -289.218 500.127 -288.706 496.036C-288.062 491.863 -287.208 487.63 -286.156 483.341C-285.005 478.977 -283.681 474.566 -282.194 470.099C-280.652 465.575 -278.969 461.01 -277.171 456.414C-275.338 451.761 -273.42 447.09 -271.417 442.399C-269.412 437.679 -267.347 432.949 -265.235 428.23C-263.144 423.491 -261.015 418.779 -258.864 414.087C-256.747 409.416 -254.614 404.787 -252.461 400.208C-250.354 395.676 -248.241 391.212 -246.111 386.826C-244.027 382.508 -241.935 378.28 -239.821 374.163C-237.755 370.123 -235.665 366.2 -233.555 362.398C-231.489 358.683 -229.39 355.091 -227.261 351.629C-224.1 346.612 -217.643 337.292 -214.333 332.948C-211.033 328.758 -204.262 320.763 -200.784 316.9C-197.323 313.051 -190.209 305.405 -186.547 301.576C-182.887 297.691 -175.292 289.914 -171.34 286.064C-167.327 282.211 -158.875 274.772 -154.406 271.245C-149.822 267.85 -140.083 261.646 -134.928 258.858C-131.431 257.089 -127.818 255.438 -124.105 253.897C-120.369 252.397 -116.533 251.007 -112.599 249.72C-108.654 248.444 -104.662 247.269 -100.638 246.196C-96.6125 245.107 -92.5579 244.093 -88.483 243.149C-84.4225 242.168 -80.3502 241.253 -76.2611 240.381C-72.2011 239.471 -68.1304 238.606 -64.0551 237.79C-60.009 236.935 -55.9583 236.128 -51.9105 235.386C-47.8834 234.61 -43.8481 233.908 -39.8233 233.289C-35.807 232.666 -31.7902 232.135 -27.7717 231.717C-23.7582 231.322 -19.7382 231.053 -15.724 230.913C-11.7029 230.828 -7.67655 230.883 -3.64878 231.086C0.373679 231.348 4.4024 231.771 8.41782 232.341C12.4303 232.977 16.4357 233.757 20.4131 234.683C24.3865 235.653 28.3271 236.757 32.2275 237.976C36.113 239.229 39.9512 240.579 43.7274 242.024C47.4765 243.472 51.1588 245.004 54.7731 246.598C60.0823 248.983 70.2363 253.963 75.0568 256.533C79.7168 259.073 88.542 264.304 92.7098 267.002C96.756 269.698 104.465 275.36 108.146 278.355C111.777 281.405 118.83 287.913 122.281 291.389C125.755 294.962 132.654 302.561 136.103 306.577C139.626 310.692 146.72 319.314 150.301 323.811C152.746 326.822 155.19 329.905 157.62 333.042C160.119 336.174 162.597 339.363 165.06 342.602C167.576 345.833 170.074 349.107 172.535 352.431C175.047 355.742 177.514 359.1 179.936 362.489C182.388 365.88 184.783 369.309 187.106 372.772C189.45 376.234 191.711 379.736 193.873 383.277" stroke="url(#paint7_linear_24_412)" stroke-opacity="0.5" stroke-width="1.65274" stroke-linecap="round" stroke-dasharray="11.9 9.92"/>
<path opacity="0.21" d="M187.791 399.155C189.669 402.618 191.437 406.102 193.083 409.599C195.452 414.869 199.486 425.528 201.13 430.937C202.133 434.574 202.996 438.249 203.717 441.956C205.011 449.475 205.735 457.186 205.923 465.106C205.931 473.224 205.436 481.611 204.497 490.28C203.426 499.181 201.968 508.367 200.148 517.811C198.265 527.4 196.062 537.141 193.551 546.914C190.973 556.57 188.058 566.001 184.784 574.993C181.391 583.468 177.572 591.192 173.304 597.963C168.853 603.917 163.932 608.809 158.551 612.633C153.076 615.848 147.255 618.341 141.178 620.41C135.296 622.736 129.388 625.369 123.572 628.688C118.257 633.249 113.162 638.975 108.318 645.92C103.948 654.108 99.6403 663.04 95.2469 672.223C90.8316 681.232 85.9087 689.28 80.2839 695.75C75.649 699.365 64.9942 703.113 58.9804 703.285C54.7854 702.85 50.3988 702.019 45.8617 700.875C41.2796 699.593 36.6105 698.193 31.8705 696.768C27.1962 695.523 22.577 694.469 18.052 693.682C13.658 693.32 9.38674 693.334 5.25059 693.763C1.27821 694.695 -2.55281 696.04 -6.25471 697.76C-9.82369 699.909 -13.2943 702.339 -16.6868 704.967C-23.2649 710.836 -29.8523 716.526 -36.6157 721.378C-43.6673 725.28 -51.1791 727.406 -59.1583 727.606C-67.5739 726.23 -76.3477 723.136 -85.3002 718.681C-94.3606 713.511 -103.273 707.813 -111.834 702C-120.073 696.618 -127.722 691.683 -134.678 687.316C-141.106 683.826 -146.809 680.872 -151.796 678.303C-156.338 676.334 -160.268 674.387 -163.665 672.24C-166.824 670.202 -169.603 667.645 -172.073 664.479C-174.555 661.109 -176.887 657.022 -179.132 652.261C-181.629 647.262 -184.193 641.672 -186.867 635.597C-190.002 629.429 -193.383 622.931 -197.037 616.194C-201.289 609.542 -205.879 602.77 -210.78 595.96C-213.462 592.613 -216.207 589.266 -219.021 585.92C-221.968 582.611 -224.956 579.308 -227.979 576.003C-231.107 572.738 -234.245 569.464 -237.377 566.187C-240.564 562.935 -243.723 559.66 -246.817 556.37C-249.93 553.087 -252.91 549.81 -255.753 546.543C-258.555 543.256 -261.179 539.96 -263.619 536.652C-265.979 533.312 -268.125 529.943 -270.05 526.552C-271.864 523.117 -273.441 519.639 -274.776 516.118C-277.044 508.917 -278.308 501.513 -278.615 493.91C-278.368 486.042 -277.231 477.962 -275.296 469.684C-272.95 461.174 -269.952 452.509 -266.406 443.734C-262.663 434.818 -258.532 425.874 -254.097 416.969C-249.649 408.082 -245.005 399.346 -240.218 390.862C-235.521 382.567 -230.718 374.621 -225.822 367.11C-221.059 359.893 -216.206 353.146 -211.254 346.896C-206.454 340.905 -201.542 335.342 -196.526 330.163C-191.666 325.062 -186.7 320.198 -181.615 315.511C-176.697 310.691 -171.657 305.928 -166.467 301.22C-161.422 296.302 -156.176 291.445 -150.714 286.718C-145.305 281.912 -139.604 277.364 -133.589 273.16C-129.007 270.131 -119.361 264.738 -114.291 262.392C-109.096 260.262 -98.2124 256.683 -92.5366 255.217C-88.7211 254.294 -84.8728 253.472 -80.9938 252.745C-77.1252 252.006 -73.2321 251.343 -69.3268 250.739C-65.44 250.099 -61.5453 249.505 -57.655 248.962C-53.7812 248.368 -49.9159 247.811 -46.0509 247.297C-38.4014 246.106 -30.7826 245.12 -23.2136 244.386C-15.7132 243.592 -8.24483 243.19 -0.821426 243.248C6.59453 243.475 13.9772 244.283 21.2805 245.68C28.5945 247.345 35.8104 249.584 42.8762 252.365C49.895 255.301 56.7163 258.656 63.2803 262.352C69.7442 266.017 75.9034 269.901 81.7373 273.959C87.4449 277.844 92.8255 281.855 97.8748 286.003C102.842 289.94 107.528 294.039 111.957 298.333C116.392 302.472 120.641 306.852 124.725 311.494C128.921 316.051 133.027 320.909 137.049 326.066C141.272 331.177 145.453 336.588 149.591 342.269C153.969 347.921 158.308 353.837 162.576 359.983C165.881 364.602 172.417 374.105 175.617 378.98C177.762 382.237 179.857 385.553 181.883 388.912C183.929 392.271 185.896 395.684 187.782 399.151" stroke="url(#paint8_linear_24_412)" stroke-opacity="0.5" stroke-width="1.65274" stroke-linecap="round" stroke-dasharray="16.53 5.29"/>
<path opacity="0.96" d="M181.295 416.449C184.532 423.256 187.325 430.192 189.661 437.241C191.863 444.346 193.559 451.61 194.733 459.046C195.728 466.582 196.19 474.327 196.141 482.287C195.902 490.38 195.177 498.708 193.993 507.239C192.65 515.893 190.877 524.708 188.703 533.607C186.404 542.498 183.714 551.334 180.665 559.971C177.482 568.334 173.922 576.27 169.979 583.61C165.902 590.383 161.43 596.351 156.565 601.417C151.586 605.843 146.251 609.398 140.591 612.185C134.95 614.707 129.098 616.867 123.12 618.958C117.378 621.588 111.651 624.748 106.029 628.7C100.796 633.848 95.704 640.033 90.7349 647.183C86.0661 655.246 81.36 663.714 76.4895 672.103C71.5472 680.086 66.1565 686.957 60.1821 692.225C53.8017 695.863 46.7208 697.477 38.9544 697.124C30.8663 695.517 22.3107 692.802 13.4582 689.631C4.77778 687.092 -3.65214 685.458 -11.7005 685.125C-19.2866 686.584 -26.4681 689.407 -33.3094 693.268C-39.8849 698.119 -46.3672 702.986 -52.8652 707.297C-59.4984 710.988 -66.3641 713.215 -73.4759 713.771C-80.8755 712.94 -88.4845 710.421 -96.1896 706.465C-104.009 701.603 -111.714 695.925 -119.15 689.808C-126.404 683.765 -133.191 677.861 -139.416 672.301C-145.274 667.41 -150.5 663.004 -155.091 659.039C-159.31 655.742 -162.961 652.68 -166.071 649.701C-168.978 647.052 -171.484 644.216 -173.657 641.053C-175.845 637.915 -177.862 634.309 -179.774 630.19C-181.923 625.975 -184.123 621.248 -186.43 616.064C-189.174 610.803 -192.133 605.16 -195.359 599.205C-199.121 593.267 -203.194 587.103 -207.543 580.773C-212.426 574.52 -217.533 568.141 -222.788 561.665C-228.4 555.261 -233.994 548.744 -239.436 542.104C-244.918 535.468 -249.886 528.807 -254.24 522.095C-258.307 515.301 -261.59 508.397 -264.038 501.37C-266.014 494.186 -267.082 486.839 -267.277 479.332C-266.964 471.651 -265.814 463.799 -263.897 455.821C-261.577 447.69 -258.6 439.456 -255.057 431.189C-251.272 422.859 -247.046 414.564 -242.469 406.389C-237.797 398.285 -232.871 390.394 -227.743 382.806C-222.639 375.416 -217.388 368.403 -212.031 361.821C-206.756 355.5 -201.401 349.616 -195.958 344.173C-190.656 338.918 -185.286 334.006 -179.859 329.415C-174.586 324.81 -169.26 320.382 -163.866 316.079C-158.645 311.59 -153.337 307.146 -147.943 302.741C-142.665 298.127 -137.254 293.609 -131.667 289.235C-126.134 284.815 -120.359 280.693 -114.34 276.951C-108.278 273.376 -101.92 270.304 -95.2569 267.774C-88.5233 265.486 -81.4906 263.714 -74.1703 262.44C-66.8281 261.25 -59.4179 260.424 -51.9948 259.882C-44.6137 259.18 -37.266 258.638 -29.9794 258.227C-22.774 257.585 -15.6438 257.099 -8.60435 256.815C-1.63175 256.432 5.26768 256.396 12.069 256.769C18.8493 257.27 25.5521 258.311 32.1408 259.907C38.7308 261.77 45.1989 264.212 51.5078 267.194C57.7949 270.38 63.8849 274.014 69.7465 278.028C75.5412 282.074 81.074 286.373 86.3172 290.871C91.4852 295.238 96.3644 299.729 100.95 304.324C105.489 308.719 109.774 313.208 113.807 317.81C117.874 322.227 121.754 326.788 125.46 331.524C129.282 336.127 132.99 340.945 136.605 345.985C140.402 350.936 144.142 356.142 147.825 361.595C151.708 366.981 155.543 372.627 159.299 378.518C163.241 384.362 167.063 390.454 170.728 396.78C174.495 403.079 178.035 409.635 181.293 416.443" stroke="url(#paint9_linear_24_412)" stroke-opacity="0.5" stroke-width="1.65274" stroke-linecap="round" stroke-dasharray="11.24 0.66"/>
<path opacity="0.67" d="M173.969 434.751C176.722 441.448 179.066 448.287 180.978 455.261C182.771 462.278 184.089 469.45 184.92 476.781C185.577 484.187 185.726 491.755 185.382 499.482C184.849 507.274 183.824 515.205 182.341 523.206C180.667 531.226 178.549 539.254 176.007 547.184C173.304 554.978 170.195 562.536 166.691 569.728C163.05 576.577 159.025 582.889 154.639 588.538C150.14 593.69 145.299 598.109 140.139 601.776C134.924 605.029 129.448 607.687 123.765 609.88C118.139 612.123 112.395 614.316 106.58 616.697C100.977 619.798 95.399 623.528 89.8773 628.049C84.6303 633.641 79.4401 640.058 74.2795 647.163C69.2861 654.868 64.1889 662.662 58.909 670.114C53.5463 676.983 47.8117 682.666 41.6354 686.778C35.182 689.402 28.2221 690.199 20.7803 689.258C13.1365 687.273 5.15713 684.316 -3.03866 680.951C-11.1166 678.142 -19.0041 676.084 -26.5963 675.133C-33.8803 675.759 -40.8405 677.601 -47.5117 680.417C-53.9602 684.246 -60.2597 688.249 -66.4735 691.937C-72.7144 695.287 -79.007 697.501 -85.3601 698.332C-91.8789 697.996 -98.4583 696.108 -105.024 692.802C-111.684 688.523 -118.213 683.241 -124.507 677.278C-130.711 671.094 -136.54 664.762 -141.923 658.503C-147.075 652.655 -151.708 647.149 -155.814 642.017C-159.665 637.487 -163.018 633.289 -165.893 629.326C-168.617 625.812 -170.976 622.34 -173.013 618.789C-175.083 615.448 -176.972 611.861 -178.753 607.976C-180.749 604.128 -182.773 599.901 -184.878 595.299C-187.364 590.685 -190.045 585.699 -192.926 580.389C-196.299 575.083 -199.917 569.489 -203.768 563.645C-208.076 557.838 -212.57 551.812 -217.169 545.592C-222.071 539.411 -226.938 533.035 -231.663 526.462C-236.419 519.895 -240.718 513.257 -244.457 506.555C-247.964 499.799 -250.77 492.937 -252.829 485.973C-254.467 478.918 -255.301 471.743 -255.334 464.455C-254.9 457.074 -253.692 449.592 -251.759 442.054C-249.435 434.45 -246.462 426.825 -242.927 419.242C-239.119 411.679 -234.851 404.22 -230.19 396.945C-225.395 389.799 -220.307 382.904 -214.978 376.338C-209.636 369.972 -204.114 363.968 -198.463 358.376C-192.879 352.986 -187.2 347.969 -181.454 343.322C-175.832 338.761 -170.155 334.479 -164.454 330.421C-158.905 326.272 -153.318 322.244 -147.705 318.284C-142.242 314.112 -136.725 309.97 -131.154 305.864C-125.689 301.57 -120.12 297.383 -114.433 293.389C-108.783 289.375 -102.959 285.69 -96.9389 282.418C-90.8976 279.35 -84.6322 276.798 -78.1245 274.817C-71.5741 273.084 -64.7943 271.891 -57.7994 271.202C-50.7877 270.597 -43.7566 270.358 -36.7619 270.377C-29.797 270.246 -22.8982 270.257 -16.0941 270.368C-9.35217 270.234 -2.71529 270.217 3.79061 270.353C10.2421 270.352 16.5755 270.637 22.7766 271.273C28.9453 271.982 34.9959 273.18 40.905 274.885C46.8076 276.828 52.5583 279.326 58.1391 282.357C63.7121 285.619 69.0905 289.359 74.2522 293.498C79.388 297.744 84.2917 302.279 88.9463 307.053C93.5673 311.759 97.9419 316.616 102.061 321.577C106.175 326.378 110.069 331.256 113.739 336.2C117.462 340.964 121.005 345.811 124.388 350.765C127.894 355.559 131.281 360.498 134.556 365.587C138.004 370.568 141.375 375.733 144.674 381.108C148.158 386.399 151.565 391.913 154.876 397.657C158.347 403.354 161.697 409.292 164.873 415.473C168.145 421.628 171.195 428.051 173.968 434.744" stroke="url(#paint10_linear_24_412)" stroke-opacity="0.5" stroke-width="1.65274" stroke-linecap="round" stroke-dasharray="13.88 7.27"/>
<path opacity="0.25" d="M165.398 452.95C167.693 459.512 169.591 466.197 171.078 472.991C172.46 479.801 173.392 486.733 173.856 493.763C174.164 500.816 173.984 507.963 173.325 515.163C172.485 522.362 171.165 529.568 169.384 536.717C167.419 543.792 165.012 550.716 162.178 557.404C159.183 563.889 155.785 570.022 152.015 575.686C148.107 581.03 143.854 585.82 139.276 589.995C134.616 593.821 129.666 597.053 124.466 599.733C119.252 602.268 113.845 604.469 108.277 606.479C102.784 608.779 97.1944 611.252 91.5559 614.093C86.0699 617.694 80.5733 621.937 75.0798 626.873C69.7542 632.681 64.4181 639.084 59.0451 645.892C53.7485 653.011 48.3348 659.959 42.7519 666.363C37.0938 672.083 31.1605 676.594 24.9249 679.604C18.5192 681.297 11.7809 681.368 4.73099 679.92C-2.43833 677.614 -9.82437 674.47 -17.3559 670.953C-24.8246 667.935 -32.1216 665.527 -39.2041 664.036C-46.0886 663.92 -52.7244 664.871 -59.1092 666.714C-65.3357 669.55 -71.3818 672.675 -77.2705 675.684C-83.1392 678.597 -88.9245 680.67 -94.634 681.659C-100.404 681.735 -106.108 680.459 -111.709 677.862C-117.348 674.322 -122.816 669.71 -128.052 664.271C-133.242 658.399 -138.12 652.123 -142.628 645.682C-147.008 639.39 -150.982 633.236 -154.53 627.315C-157.934 621.849 -160.936 616.68 -163.547 611.784C-166.081 607.344 -168.304 603.075 -170.26 598.901C-172.268 595.023 -174.117 591.095 -175.855 587.045C-177.808 583.139 -179.764 579.012 -181.768 574.639C-184.113 570.307 -186.598 565.687 -189.238 560.774C-192.295 555.887 -195.539 550.705 -198.948 545.252C-202.754 539.822 -206.678 534.127 -210.667 528.195C-214.909 522.277 -219.096 516.126 -223.123 509.731C-227.183 503.348 -230.821 496.873 -233.963 490.315C-236.901 483.742 -239.21 477.075 -240.856 470.336C-242.146 463.567 -242.698 456.722 -242.535 449.838C-241.957 442.916 -240.666 435.981 -238.701 429.053C-236.358 422.146 -233.408 415.294 -229.907 408.559C-226.128 401.899 -221.885 395.414 -217.248 389.168C-212.446 383.053 -207.336 377.229 -201.968 371.729C-196.549 366.396 -190.943 361.404 -185.194 356.772C-179.489 352.253 -173.681 348.04 -167.812 344.12C-162.031 340.191 -156.218 336.451 -150.377 332.861C-144.664 329.116 -138.928 325.441 -133.181 321.797C-127.552 317.93 -121.894 314.078 -116.201 310.289C-110.591 306.33 -104.915 302.51 -99.1564 298.905C-93.4274 295.324 -87.5744 292.106 -81.594 289.324C-75.6031 286.762 -69.4449 284.729 -63.1401 283.271C-56.7932 282.067 -50.2911 281.402 -43.6525 281.239C-36.9945 281.166 -30.3743 281.446 -23.826 281.976C-17.2996 282.349 -10.868 282.855 -4.55091 283.451C1.71575 283.78 7.85403 284.193 13.8414 284.721C19.7779 285.076 25.5715 285.651 31.2034 286.503C36.807 287.391 42.2597 288.681 47.535 290.423C52.8039 292.359 57.9046 294.813 62.8147 297.767C67.7248 300.962 72.4407 304.63 76.9475 308.715C81.4574 312.967 85.7587 317.541 89.8317 322.394C93.9141 327.265 97.7873 332.313 101.433 337.499C105.119 342.592 108.609 347.766 111.909 353.007C115.288 358.104 118.508 363.255 121.578 368.475C124.773 373.543 127.854 378.701 130.823 383.961C133.954 389.099 136.992 394.376 139.943 399.799C143.062 405.138 146.087 410.658 148.997 416.367C152.048 422.029 154.961 427.898 157.692 433.992C160.506 440.062 163.087 446.377 165.397 452.944" stroke="url(#paint11_linear_24_412)" stroke-opacity="0.5" stroke-width="1.65274" stroke-linecap="round" stroke-dasharray="14.54 10.58"/>
<path opacity="0.16" d="M155.396 469.547C157.244 475.925 158.713 482.367 159.792 488.84C160.78 495.327 161.339 501.848 161.461 508.371C161.43 514.886 160.946 521.391 160.013 527.825C158.904 534.214 157.348 540.486 155.353 546.58C153.19 552.555 150.601 558.266 147.621 563.65C144.486 568.834 140.986 573.603 137.138 577.908C133.177 581.971 128.906 585.541 124.362 588.615C119.745 591.51 114.89 594.006 109.83 596.167C104.755 598.395 99.519 600.516 94.1528 602.668C88.8278 605.254 83.4008 608.141 77.915 611.456C72.5068 615.495 67.0429 620.082 61.5434 625.222C56.1217 631.006 50.6351 637.14 45.0865 643.411C39.5705 649.76 33.9389 655.74 28.1798 661.033C22.3821 665.594 16.4042 668.975 10.2501 670.977C4.01027 671.819 -2.42766 671.258 -9.02937 669.39C-15.6862 666.83 -22.4733 663.55 -29.347 659.933C-36.1795 656.75 -42.8798 654.061 -49.3945 652.12C-55.8147 651.365 -62.0362 651.522 -68.0415 652.478C-73.9574 654.389 -79.6869 656.642 -85.2134 658.946C-90.7128 661.341 -96.0389 663.165 -101.204 664.18C-106.361 664.544 -111.355 663.788 -116.162 661.89C-120.964 659.142 -125.544 655.342 -129.877 650.66C-134.173 645.432 -138.189 639.637 -141.884 633.472C-145.518 627.229 -148.826 620.914 -151.792 614.658C-154.704 608.656 -157.303 602.841 -159.592 597.253C-161.891 592.032 -163.936 587.008 -165.768 582.161C-167.702 577.613 -169.498 573.14 -171.2 568.68C-173.118 564.415 -175.03 560.065 -176.957 555.596C-179.203 551.212 -181.537 546.65 -183.973 541.876C-186.764 537.138 -189.681 532.164 -192.702 526.96C-196.047 521.762 -199.465 516.324 -202.888 510.648C-206.523 504.982 -210.077 499.078 -213.451 492.947C-216.857 486.819 -219.872 480.613 -222.427 474.343C-224.823 468.081 -226.652 461.768 -227.887 455.426C-228.823 449.088 -229.11 442.744 -228.738 436.421C-228.02 430.123 -226.647 423.872 -224.657 417.719C-222.338 411.618 -219.445 405.651 -216.032 399.868C-212.361 394.177 -208.24 388.709 -203.727 383.508C-199.052 378.427 -194.056 373.632 -188.802 369.148C-183.481 364.771 -177.963 360.691 -172.297 356.897C-166.634 353.143 -160.866 349.619 -155.036 346.296C-149.259 342.892 -143.433 339.602 -137.593 336.398C-131.829 333.007 -126.049 329.635 -120.254 326.289C-114.55 322.717 -108.817 319.177 -103.071 315.714C-97.3822 312.118 -91.6463 308.696 -85.8646 305.516C-80.1172 302.406 -74.2871 299.666 -68.3878 297.379C-62.4834 295.324 -56.4898 293.805 -50.4054 292.843C-44.3066 292.145 -38.1136 291.963 -31.8488 292.266C-25.5695 292.668 -19.3765 293.401 -13.2904 294.375C-7.21578 295.204 -1.25142 296.148 4.5661 297.164C10.356 297.916 16.0052 298.733 21.4872 299.616C26.9397 300.295 32.2198 301.141 37.3306 302.193C42.4135 303.227 47.3234 304.587 52.038 306.327C56.7439 308.207 61.267 310.539 65.5876 313.325C69.9127 316.336 74.0491 319.807 77.973 323.692C81.9122 327.769 85.6547 332.206 89.1956 336.944C92.7698 341.766 96.1498 346.815 99.3382 352.039C102.598 357.244 105.682 362.569 108.599 367.974C111.617 373.298 114.493 378.679 117.233 384.111C120.105 389.44 122.868 394.824 125.525 400.276C128.331 405.623 131.04 411.064 133.643 416.606C136.406 422.07 139.061 427.668 141.58 433.403C144.229 439.088 146.724 444.937 149.028 450.961C151.396 456.96 153.534 463.156 155.395 469.534" stroke="url(#paint12_linear_24_412)" stroke-opacity="0.5" stroke-width="1.65274" stroke-linecap="round" stroke-dasharray="11.24 10.58"/>
<path opacity="0.82" d="M144.123 483.149C145.553 489.275 146.618 495.37 147.325 501.418C147.946 507.456 148.175 513.435 147.993 519.318C147.691 525.176 146.963 530.911 145.828 536.475C144.54 541.97 142.838 547.256 140.74 552.278C138.494 557.178 135.864 561.762 132.883 565.99C129.767 570.061 126.319 573.743 122.565 577.014C118.715 580.149 114.587 582.912 110.213 585.33C105.779 587.73 101.13 589.916 96.2986 591.953C91.4322 594.209 86.4085 596.528 81.2491 599.002C76.0933 601.966 70.8186 605.262 65.4466 608.964C60.1002 613.266 54.6569 617.994 49.1417 623.088C43.6483 628.59 38.0781 634.22 32.4401 639.772C26.813 645.205 21.1027 650.137 15.3173 654.31C9.52984 657.749 3.65333 660.08 -2.30175 661.168C-8.27059 661.272 -14.3173 660.167 -20.4332 657.959C-26.5536 655.21 -32.733 651.846 -38.9451 648.186C-45.1562 644.889 -51.2334 641.993 -57.1593 639.695C-63.0579 638.402 -68.8018 637.873 -74.3657 638.054C-79.8983 639.108 -85.251 640.548 -90.3956 642.135C-95.5157 643.954 -100.431 645.431 -105.12 646.354C-109.778 646.861 -114.216 646.49 -118.395 645.187C-122.543 643.184 -126.44 640.229 -130.056 636.416C-133.638 632.027 -136.936 626.984 -139.954 621.452C-142.936 615.668 -145.64 609.634 -148.068 603.489C-150.495 597.409 -152.677 591.371 -154.624 585.44C-156.627 579.742 -158.441 574.199 -160.1 568.811C-161.885 563.67 -163.57 558.647 -165.186 553.714C-167.017 548.965 -168.834 544.235 -170.658 539.479C-172.764 534.827 -174.932 530.098 -177.155 525.251C-179.681 520.45 -182.283 515.505 -184.928 510.382C-187.85 505.285 -190.79 499.996 -193.693 494.528C-196.769 489.057 -199.736 483.399 -202.508 477.564C-205.313 471.731 -207.749 465.863 -209.775 459.994C-211.662 454.128 -213.053 448.272 -213.914 442.451C-214.529 436.658 -214.562 430.925 -214.024 425.28C-213.188 419.682 -211.774 414.204 -209.801 408.887C-207.549 403.643 -204.77 398.58 -201.518 393.739C-198.032 388.991 -194.118 384.48 -189.842 380.239C-185.405 376.087 -180.652 372.2 -175.648 368.579C-170.565 365.009 -165.271 361.666 -159.821 358.551C-154.351 355.403 -148.766 352.404 -143.093 349.543C-137.448 346.543 -131.736 343.608 -125.99 340.718C-120.289 337.618 -114.553 334.531 -108.805 331.463C-103.106 328.197 -97.3867 324.984 -91.6521 321.87C-85.9588 318.678 -80.2481 315.683 -74.512 312.959C-68.807 310.328 -63.0608 308.094 -57.2987 306.308C-51.5449 304.761 -45.7538 303.735 -39.9318 303.244C-34.1112 303.005 -28.2606 303.261 -22.387 303.986C-16.5183 304.797 -10.7621 305.921 -5.14005 307.272C0.479261 308.492 5.96196 309.82 11.2871 311.204C16.6138 312.344 21.7825 313.513 26.7799 314.719C31.7664 315.713 36.5765 316.81 41.2044 318.05C45.8177 319.225 50.2443 320.647 54.4789 322.371C58.7018 324.175 62.7344 326.366 66.5567 328.939C70.3896 331.703 74.0195 334.888 77.4527 338.467C80.903 342.237 84.1692 346.375 87.237 350.835C90.3472 355.425 93.2909 360.277 96.0604 365.338C98.8973 370.457 101.592 375.724 104.13 381.114C106.78 386.481 109.3 391.937 111.702 397.455C114.228 402.917 116.65 408.435 118.967 414.001C121.429 419.504 123.785 425.07 126.038 430.696C128.428 436.274 130.694 441.927 132.829 447.662C135.07 453.375 137.147 459.184 139.035 465.096C140.976 470.994 142.687 477.016 144.123 483.142" stroke="url(#paint13_linear_24_412)" stroke-opacity="0.5" stroke-width="1.65274" stroke-linecap="round" stroke-dasharray="6.61 13.88"/>
<path opacity="0.29" d="M132.033 492.92C133.063 498.708 133.772 504.385 134.156 509.924C134.462 515.453 134.415 520.83 134.012 526.028C133.49 531.195 132.606 536.162 131.347 540.891C129.965 545.555 128.223 549.955 126.128 554.056C123.904 558.066 121.342 561.766 118.468 565.123C115.478 568.403 112.19 571.353 108.629 573.996C104.983 576.616 101.075 578.987 96.9502 581.159C92.7482 583.44 88.3441 585.64 83.7551 587.833C79.1082 590.329 74.2906 592.963 69.3262 595.804C64.3246 599.1 59.1791 602.701 53.916 606.608C48.6289 610.971 43.2326 615.595 37.7502 620.394C32.2601 625.398 26.6997 630.333 21.0827 635.021C15.4816 639.464 9.83654 643.324 4.18164 646.403C-1.45364 648.795 -7.09024 650.181 -12.7246 650.469C-18.328 649.944 -23.9323 648.4 -29.5146 645.938C-35.0878 643.059 -40.661 639.664 -46.2242 636.005C-51.8061 632.663 -57.2606 629.623 -62.5879 627.065C-67.9401 625.332 -73.1644 624.233 -78.2398 623.742C-83.3386 624.037 -88.2668 624.715 -93.0048 625.613C-97.7354 626.835 -102.255 627.893 -106.542 628.603C-110.782 629.103 -114.773 628.964 -118.491 628.101C-122.156 626.717 -125.539 624.524 -128.642 621.567C-131.691 618.083 -134.464 613.935 -136.964 609.235C-139.444 604.199 -141.673 598.795 -143.66 593.135C-145.663 587.382 -147.471 581.531 -149.093 575.661C-150.791 569.873 -152.351 564.137 -153.79 558.505C-155.374 553.013 -156.888 547.623 -158.346 542.321C-160.009 537.164 -161.667 532.066 -163.326 527.001C-165.233 522.032 -167.174 517.056 -169.146 512.045C-171.378 507.078 -173.64 502.043 -175.913 496.928C-178.404 491.825 -180.878 486.616 -183.288 481.298C-185.844 475.981 -188.264 470.556 -190.494 465.026C-192.744 459.489 -194.658 453.997 -196.203 448.56C-197.644 443.14 -198.644 437.789 -199.178 432.542C-199.515 427.329 -199.354 422.235 -198.689 417.291C-197.781 412.397 -196.364 407.681 -194.465 403.163C-192.323 398.712 -189.72 394.472 -186.69 390.472C-183.45 386.534 -179.822 382.835 -175.86 379.387C-171.741 375.979 -167.326 372.8 -162.661 369.842C-157.903 366.867 -152.941 364.073 -147.806 361.444C-142.628 358.724 -137.308 356.102 -131.892 353.563C-126.47 350.859 -120.963 348.192 -115.397 345.546C-109.844 342.708 -104.245 339.878 -98.621 337.089C-93.0174 334.141 -87.3907 331.279 -81.7624 328.55C-76.1526 325.787 -70.5379 323.242 -64.9346 320.995C-59.3493 318.873 -53.7723 317.141 -48.2055 315.851C-42.661 314.799 -37.1286 314.236 -31.6158 314.188C-26.1182 314.365 -20.6385 315.011 -15.1821 316.092C-9.72915 317.266 -4.4258 318.719 0.730757 320.378C5.88474 321.931 10.896 323.584 15.7469 325.278C20.6061 326.753 25.3126 328.243 29.8469 329.739C34.3892 331.024 38.7575 332.361 42.9434 333.798C47.1405 335.116 51.1453 336.618 54.9567 338.332C58.7733 340.085 62.3869 342.128 65.803 344.495C69.2336 347.001 72.4588 349.863 75.4917 353.081C78.5442 356.479 81.4116 360.22 84.0949 364.279C86.8253 368.492 89.3929 372.983 91.7928 377.705C94.2614 382.536 96.5972 387.554 98.7884 392.719C101.084 397.927 103.262 403.256 105.319 408.66C107.5 414.076 109.58 419.56 111.546 425.08C113.645 430.592 115.642 436.153 117.526 441.742C119.536 447.317 121.419 452.939 123.162 458.589C124.997 464.23 126.666 469.917 128.147 475.643C129.682 481.365 130.984 487.124 132.027 492.913" stroke="url(#paint14_linear_24_412)" stroke-opacity="0.5" stroke-width="1.65274" stroke-linecap="round" stroke-dasharray="13.88 1.32"/>
<path opacity="0.44" d="M119.668 498.838C120.353 504.225 120.75 509.431 120.861 514.443C120.912 519.45 120.651 524.246 120.08 528.821C119.419 533.359 118.43 537.66 117.127 541.698C115.722 545.693 113.991 549.417 111.963 552.859C109.826 556.252 107.391 559.369 104.676 562.22C101.857 565.048 98.7676 567.65 95.4402 570.036C92.0071 572.486 88.3414 574.799 84.4584 577.025C80.4857 579.422 76.3118 581.839 71.946 584.317C67.4975 587.099 62.8678 590.036 58.0867 593.164C53.2303 596.657 48.2205 600.361 43.0921 604.26C37.9159 608.446 32.6241 612.726 27.2587 617.014C21.8763 621.339 16.4414 625.453 10.9817 629.206C5.55349 632.637 0.125542 635.45 -5.2702 637.522C-10.6117 638.969 -15.8998 639.524 -21.1232 639.142C-26.2839 638.115 -31.3878 636.231 -36.4253 633.595C-41.4327 630.651 -46.4051 627.278 -51.3419 623.675C-56.3036 620.33 -61.1549 617.215 -65.8841 614.483C-70.678 612.416 -75.3626 610.864 -79.9234 609.816C-84.5443 609.453 -89.028 609.455 -93.3367 609.707C-97.6746 610.328 -101.809 610.909 -105.722 611.319C-111.425 611.641 -121.438 609.279 -125.702 606.273C-128.4 603.62 -130.826 600.362 -132.981 596.565C-135.114 592.406 -137.013 587.824 -138.693 582.905C-140.395 577.797 -141.915 572.469 -143.271 567.01C-144.715 561.509 -146.035 555.961 -147.262 550.408C-148.62 544.902 -149.928 539.435 -151.188 534.025C-152.634 528.677 -154.072 523.389 -155.509 518.148C-157.157 512.967 -158.827 507.809 -160.5 502.678C-162.388 497.573 -164.282 492.46 -166.161 487.335C-168.221 482.22 -170.237 477.069 -172.172 471.892C-174.225 466.711 -176.135 461.497 -177.865 456.261C-179.607 451.023 -181.054 445.894 -182.181 440.889C-183.223 435.893 -183.886 431.033 -184.147 426.338C-184.257 421.664 -183.939 417.165 -183.194 412.854C-182.254 408.588 -180.876 404.524 -179.081 400.68C-177.084 396.883 -174.683 393.303 -171.907 389.96C-168.955 386.647 -165.651 383.548 -162.037 380.671C-158.276 377.789 -154.241 375.093 -149.957 372.574C-145.576 370.004 -140.987 367.555 -136.218 365.229C-131.383 362.777 -126.396 360.399 -121.294 358.072C-116.157 355.583 -110.916 353.124 -105.604 350.685C-100.277 348.088 -94.8929 345.523 -89.4752 343.021C-84.0546 340.42 -78.612 337.933 -73.1715 335.606C-67.7389 333.292 -62.3169 331.222 -56.9249 329.462C-51.5529 327.839 -46.2115 326.598 -40.9189 325.791C-35.654 325.201 -30.4345 325.078 -25.2737 325.42C-20.1399 325.973 -15.0549 326.959 -10.0287 328.344C-5.01019 329.809 -0.156091 331.53 4.52619 333.446C9.22465 335.265 13.7675 337.182 18.1532 339.142C22.5594 340.893 26.8111 342.661 30.9042 344.421C35.025 345.964 38.9768 347.538 42.7643 349.162C46.5725 350.641 50.1961 352.242 53.6465 353.986C58.744 356.687 68.0138 363.407 72.1805 367.552C74.9238 370.556 77.4844 373.867 79.8709 377.466C82.2952 381.223 84.5605 385.249 86.6632 389.512C88.8334 393.901 90.8699 398.503 92.7642 403.27C94.7488 408.133 96.6141 413.13 98.3626 418.235C100.219 423.39 101.968 428.628 103.612 433.923C105.359 439.247 107.009 444.615 108.536 450.011C110.169 455.417 111.68 460.844 113.045 466.278C114.495 471.719 115.785 477.165 116.891 482.593C118.036 488.031 118.97 493.449 119.669 498.831" stroke="url(#paint15_linear_24_412)" stroke-opacity="0.5" stroke-width="1.65274" stroke-linecap="round" stroke-dasharray="5.29 1.32"/>
<path opacity="0.47" d="M107.469 501.697C107.859 506.63 107.991 511.369 107.884 515.889C107.724 520.401 107.298 524.691 106.6 528.751C105.307 534.684 101.22 545.325 98.4334 550.027C95.2352 554.497 87.4139 562.496 82.83 566.16C79.5983 568.67 76.1355 571.118 72.4618 573.545C68.6919 576.159 64.7138 578.82 60.5485 581.565C56.2909 584.557 51.8465 587.673 47.2413 590.919C42.558 594.406 37.7321 597.991 32.7873 601.651C27.7949 605.444 22.7096 609.189 17.5645 612.805C12.412 616.339 7.23491 619.561 2.07019 622.363C-3.05324 624.818 -8.13005 626.677 -13.1439 627.837C-18.0756 628.474 -22.92 628.343 -27.6609 627.424C-32.3294 626.001 -36.9021 623.885 -41.3795 621.16C-45.822 618.214 -50.2081 614.909 -54.5428 611.404C-58.9124 608.121 -63.1664 604.997 -67.3177 602.157C-71.5476 599.859 -75.6934 597.964 -79.7353 596.472C-83.8686 595.562 -87.8792 594.979 -91.756 594.651C-97.558 594.737 -108.215 594.843 -112.963 594.265C-117.407 592.991 -124.909 587.544 -127.976 583.335C-129.916 580.052 -131.636 576.342 -133.137 572.265C-134.656 567.964 -136.003 563.376 -137.197 558.578C-138.458 553.655 -139.611 548.596 -140.664 543.452C-141.835 538.255 -142.948 533.028 -144.013 527.795C-145.233 522.564 -146.44 517.342 -147.627 512.157C-148.995 506.977 -150.355 501.831 -151.714 496.719C-153.24 491.608 -154.757 486.524 -156.239 481.473C-157.861 476.42 -159.432 471.382 -160.914 466.378C-162.483 461.367 -163.921 456.376 -165.192 451.432C-166.475 446.479 -167.497 441.694 -168.251 437.079C-168.94 432.474 -169.302 428.047 -169.34 423.812C-169.253 419.596 -168.804 415.584 -167.999 411.782C-166.376 406.222 -161.09 396.211 -157.472 391.754C-154.794 388.848 -151.805 386.139 -148.537 383.608C-145.13 381.044 -141.465 378.635 -137.574 376.355C-133.57 374 -129.362 371.749 -124.973 369.581C-120.505 367.292 -115.878 365.061 -111.125 362.876C-106.311 360.56 -101.388 358.275 -96.3854 356.036C-91.3523 353.688 -86.2479 351.398 -81.1123 349.207C-75.9619 346.964 -70.7883 344.872 -65.6174 342.968C-60.4612 341.114 -55.3188 339.519 -50.2181 338.232C-45.1476 337.095 -40.1225 336.331 -35.1664 335.965C-30.2498 335.807 -25.3998 336.074 -20.636 336.762C-15.902 337.639 -11.2351 338.901 -6.65926 340.53C-2.09472 342.23 2.29918 344.165 6.5262 346.268C10.7635 348.305 14.8482 350.419 18.778 352.582C22.741 354.576 26.5572 356.568 30.2277 358.55C35.7155 361.232 45.9843 366.451 50.7373 369.125C55.3731 371.821 63.8065 378.118 67.5987 381.838C70.0995 384.493 72.4266 387.401 74.581 390.557C76.7767 393.833 78.8194 397.359 80.699 401.114C82.6395 404.993 84.4407 409.077 86.1 413.339C87.8375 417.701 89.4493 422.224 90.9481 426.869C92.5226 431.587 93.9873 436.407 95.3471 441.299C96.7857 446.242 98.1215 451.244 99.3327 456.272C100.632 461.335 101.802 466.41 102.839 471.485C103.939 476.583 104.881 481.663 105.655 486.703C106.461 491.755 107.074 496.757 107.47 501.691" stroke="url(#paint16_linear_24_412)" stroke-opacity="0.5" stroke-width="1.65274" stroke-linecap="round" stroke-dasharray="10.58 3.97"/>
<path opacity="0.7" d="M95.5727 502.831C95.7135 507.308 95.6319 511.593 95.3359 515.683C94.7135 521.705 92.2262 532.712 90.3455 537.709C88.1105 542.499 82.3183 551.223 78.7779 555.236C76.2483 557.932 73.4895 560.531 70.5075 563.068C67.4356 565.707 64.1434 568.332 60.6476 570.96C57.052 573.735 53.2637 576.556 49.2878 579.431C45.2222 582.47 40.9883 585.566 36.6097 588.705C32.1577 591.964 27.5825 595.229 22.903 598.445C18.2014 601.669 13.4232 604.748 8.61388 607.597C3.82406 610.295 -0.968638 612.633 -5.72656 614.533C-10.4177 616.095 -15.0437 617.11 -19.5761 617.509C-24.022 617.48 -28.3544 616.807 -32.5732 615.488C-36.709 613.788 -40.738 611.536 -44.6536 608.795C-48.5432 605.904 -52.363 602.723 -56.1226 599.36C-59.9281 596.176 -63.6163 593.105 -67.2197 590.236C-70.9096 587.794 -74.523 585.653 -78.0512 583.835C-83.4547 581.961 -93.849 579.918 -98.7409 579.36C-103.497 578.952 -111.976 577.097 -115.636 575.325C-119.02 572.876 -124.609 565.642 -126.868 560.921C-128.316 557.446 -129.597 553.668 -130.722 549.641C-131.895 545.461 -132.951 541.083 -133.906 536.558C-134.948 531.933 -135.921 527.208 -136.838 522.413C-137.867 517.574 -138.868 512.695 -139.831 507.802C-140.924 502.882 -142.005 497.971 -143.055 493.073C-144.239 488.167 -145.392 483.274 -146.495 478.433C-147.709 473.574 -148.863 468.748 -149.922 463.984C-151.047 459.212 -152.055 454.493 -152.902 449.843C-153.764 445.196 -154.408 440.732 -154.823 436.46C-155.185 432.193 -155.287 428.124 -155.114 424.258C-154.56 418.58 -151.791 408.27 -149.556 403.635C-146.823 399.197 -139.714 391.199 -135.395 387.587C-132.314 385.186 -128.989 382.907 -125.45 380.735C-121.808 378.491 -117.961 376.332 -113.947 374.243C-109.846 372.065 -105.587 369.942 -101.193 367.882C-96.7432 365.719 -92.179 363.622 -87.5291 361.597C-82.8458 359.513 -78.0955 357.523 -73.2994 355.666C-68.5019 353.802 -63.6814 352.113 -58.8659 350.632C-54.0622 349.236 -49.2889 348.105 -44.5611 347.275C-39.8656 346.593 -35.2319 346.257 -30.6798 346.295C-26.1671 346.514 -21.7375 347.114 -17.3974 348.094C-13.099 349.234 -8.88952 350.719 -4.76982 352.524C-0.659145 354.401 3.27165 356.483 7.0403 358.718C10.8202 360.902 14.4535 363.169 17.9499 365.474C21.476 367.643 24.8657 369.816 28.1286 371.982C33.0203 374.963 42.2113 380.695 46.4908 383.536C50.6833 386.31 58.3691 392.397 61.8399 395.813C65.2014 399.482 71.206 407.943 73.8543 412.742C75.6183 416.104 77.2468 419.652 78.7362 423.373C80.2862 427.189 81.7013 431.158 83 435.257C84.3622 439.438 85.6072 443.722 86.73 448.101C87.9232 452.529 88.9985 457.033 89.9577 461.572C90.9759 466.151 91.8651 470.764 92.6209 475.367C93.4242 480.001 94.0747 484.622 94.5716 489.203C95.0915 493.802 95.4268 498.348 95.5741 502.825" stroke="url(#paint17_linear_24_412)" stroke-opacity="0.5" stroke-width="1.65274" stroke-linecap="round" stroke-dasharray="9.26 11.9"/>
<path opacity="0.35" d="M83.7793 503.65C83.5759 509.615 82.1517 520.764 80.9073 525.935C78.9661 532.71 76.1466 538.895 72.5081 544.548C68.565 550.309 63.7494 555.728 58.1299 560.929C52.1707 566.46 45.4103 571.959 37.9906 577.458C30.2839 583.295 22.0261 588.992 13.4303 594.278C4.79875 599.3 -3.93141 603.278 -12.4837 605.741C-20.7666 607.023 -28.6906 606.29 -36.1036 603.442C-39.6933 601.577 -43.1825 599.28 -46.5628 596.595C-49.9163 593.814 -53.1956 590.794 -56.4176 587.617C-59.6834 584.573 -62.8471 581.605 -65.9284 578.784C-69.0989 576.282 -72.2003 573.997 -75.2396 571.957C-81.6307 568.991 -87.7102 566.798 -93.3506 565.072C-99.1877 563.998 -104.383 562.52 -108.822 560.307C-113.242 557.681 -116.864 553.85 -119.728 548.858C-122.617 543.173 -124.902 536.435 -126.69 528.93C-128.727 520.964 -130.447 512.483 -131.926 503.753C-133.8 494.817 -135.493 485.773 -136.955 476.808C-137.811 472.297 -138.591 467.808 -139.278 463.379C-140.015 458.929 -140.631 454.54 -141.11 450.225C-141.601 445.905 -141.903 441.77 -142.009 437.813C-142.083 433.865 -141.932 430.096 -141.563 426.526C-140.595 419.403 -138.612 413.018 -135.648 407.347C-132.254 401.659 -127.851 396.584 -122.542 392.051C-116.81 387.356 -110.241 383.053 -103 379.097C-95.4491 374.891 -87.3433 370.985 -78.8733 367.469C-70.2857 363.877 -61.4854 360.873 -52.7002 358.681C-43.9913 356.86 -35.4232 356.153 -27.1712 356.744C-23.1139 357.284 -19.1431 358.158 -15.2651 359.362C-11.4327 360.705 -7.6843 362.346 -4.0307 364.277C-0.39318 366.266 3.08358 368.435 6.40572 370.74C9.73042 373.012 12.9293 375.364 15.9858 377.76C22.2242 382.201 28.0033 386.664 33.3143 391.058C38.8316 394.912 43.8808 398.869 48.4179 403.011C53.1238 406.968 57.2917 411.398 60.8992 416.358C64.6464 421.48 67.8566 427.269 70.5238 433.648C73.3613 440.3 75.7147 447.503 77.565 455.081C79.608 462.877 81.1701 470.943 82.1924 479.098C82.7554 483.211 83.1805 487.326 83.4456 491.424C83.728 495.534 83.8478 499.611 83.7811 503.644" stroke="url(#paint18_linear_24_412)" stroke-opacity="0.5" stroke-width="1.65274" stroke-linecap="round" stroke-dasharray="16.53 8.59"/>
<path opacity="0.89" d="M71.6675 505.194C71.1714 512.408 69.9294 519.189 67.9814 525.504C65.883 531.808 62.9922 537.713 59.3673 543.253C55.4969 548.876 50.8429 554.257 45.4823 559.435C39.8502 564.793 33.5295 570.018 26.659 575.033C19.6039 580.116 12.1264 584.803 4.43421 588.834C-3.21588 592.44 -10.8606 594.935 -18.2834 596.017C-25.4201 596.128 -32.2069 594.577 -38.516 591.337C-44.581 587.349 -50.3094 582.162 -55.7367 576.184C-61.3191 570.636 -66.6058 565.406 -71.6608 560.801C-77.0977 557.324 -82.311 554.455 -87.2048 552.018C-92.3524 550.256 -97.0238 548.35 -101.12 546.055C-105.268 543.645 -108.78 540.426 -111.633 536.351C-114.521 531.809 -116.849 526.376 -118.662 520.218C-120.643 513.639 -122.253 506.489 -123.525 498.965C-125.06 491.212 -126.328 483.235 -127.287 475.211C-128.473 467.095 -129.275 459.021 -129.573 451.148C-129.908 443.263 -129.551 435.987 -128.472 429.352C-127.192 422.744 -125.065 416.743 -122.121 411.353C-118.853 405.935 -114.72 401.032 -109.821 396.603C-104.581 392.075 -98.6099 387.925 -92.0515 384.16C-85.2453 380.284 -77.9478 376.809 -70.3418 373.817C-62.655 370.896 -54.7996 368.641 -46.978 367.214C-39.2504 366.181 -31.6739 366.193 -24.4042 367.359C-17.3117 369.058 -10.532 371.887 -4.14201 375.784C2.18308 379.89 7.95485 384.525 13.2199 389.433C18.6096 394.02 23.6036 398.659 28.1946 403.251C33.0016 407.378 37.4151 411.552 41.4118 415.798C45.5992 419.795 49.3403 424.093 52.5908 428.719C55.9977 433.377 58.9229 438.52 61.3375 444.108C63.9072 449.855 65.9869 456.07 67.5634 462.628C69.2825 469.341 70.5052 476.336 71.1869 483.481C71.9641 490.694 72.1532 497.969 71.6696 505.188" stroke="url(#paint19_linear_24_412)" stroke-opacity="0.5" stroke-width="1.65274" stroke-linecap="round" stroke-dasharray="14.54 12.56"/>
<path opacity="0.88" d="M58.8328 507.791C58.048 514.204 56.5787 520.334 54.4755 526.146C52.2534 531.951 49.332 537.476 45.7616 542.718C42.0104 548.001 37.5901 553.05 32.5769 557.855C27.3803 562.706 21.6391 567.282 15.4795 571.486C9.23144 575.574 2.69961 579.102 -3.94188 581.856C-10.4717 584.148 -16.9474 585.389 -23.173 585.382C-29.1404 584.645 -34.7929 582.572 -40.0312 579.182C-45.0852 575.31 -49.8579 570.496 -54.367 565.026C-59.0159 559.877 -63.4073 554.884 -67.598 550.289C-72.1349 546.516 -76.5009 543.178 -80.6398 540.192C-85.0526 537.8 -89.1242 535.413 -92.7779 532.863C-96.5563 530.39 -99.8347 527.415 -102.588 523.877C-105.401 520.085 -107.715 515.62 -109.538 510.556C-111.473 505.189 -113.002 499.274 -114.14 492.963C-115.45 486.445 -116.408 479.628 -116.981 472.677C-117.716 465.631 -118.025 458.524 -117.824 451.499C-117.642 444.466 -116.851 437.884 -115.438 431.802C-113.892 425.747 -111.629 420.172 -108.688 415.085C-105.521 410.005 -101.629 405.353 -97.1032 401.141C-92.328 396.895 -86.9517 393.048 -81.0852 389.625C-75.0493 386.207 -68.6145 383.261 -61.935 380.866C-55.2255 378.642 -48.3979 377.102 -41.6208 376.378C-34.9531 376.024 -28.4365 376.608 -22.1873 378.205C-16.1093 380.218 -10.307 383.211 -4.85064 387.113C0.541269 391.188 5.44319 395.741 9.90161 400.554C14.4655 405.146 18.6834 409.831 22.5565 414.503C26.6286 418.813 30.3849 423.144 33.7961 427.496C37.399 431.592 40.6466 435.856 43.481 440.307C46.4742 444.702 49.0517 449.411 51.168 454.424C53.4224 459.501 55.2188 464.926 56.5322 470.638C57.9491 476.428 58.8758 482.488 59.263 488.711C59.7184 494.977 59.6018 501.365 58.8328 507.791Z" stroke="url(#paint20_linear_24_412)" stroke-opacity="0.5" stroke-width="1.65274" stroke-linecap="round" stroke-dasharray="5.95 13.88"/>
<path opacity="0.78" d="M45.1172 510.968C44.1125 516.605 42.4989 522.044 40.3202 527.24C38.0645 532.427 35.2023 537.381 31.8044 542.076C28.2881 546.757 24.2271 551.183 19.7183 555.29C15.1023 559.345 10.0878 563.024 4.79179 566.222C-0.512838 569.225 -5.98878 571.595 -11.4841 573.199C-16.855 574.394 -22.1352 574.656 -27.1783 573.879C-32.0186 572.592 -36.5862 570.268 -40.8306 566.941C-44.9489 563.322 -48.8379 558.955 -52.5157 554.044C-56.3144 549.369 -59.8909 544.719 -63.2959 540.293C-66.9828 536.434 -70.533 532.84 -73.9113 529.498C-77.5579 526.636 -80.9732 523.827 -84.0815 520.975C-87.3531 518.293 -90.2619 515.332 -92.7584 512.034C-95.3477 508.655 -97.5175 504.817 -99.2409 500.542C-101.061 496.087 -102.48 491.195 -103.483 485.946C-104.592 480.55 -105.312 474.851 -105.609 468.974C-106.004 463.012 -105.952 456.929 -105.385 450.831C-104.836 444.723 -103.727 438.93 -102.087 433.512C-100.357 428.121 -98.0254 423.095 -95.144 418.467C-92.1085 413.868 -88.4941 409.653 -84.3714 405.844C-80.0975 402.071 -75.342 398.7 -70.2166 395.78C-64.9953 392.949 -59.4715 390.617 -53.7801 388.865C-48.1037 387.312 -42.35 386.435 -36.657 386.306C-31.0808 386.496 -25.6294 387.506 -20.4234 389.374C-15.3579 391.563 -10.5237 394.566 -5.98314 398.359C-1.50298 402.278 2.56019 406.619 6.24249 411.216C10.0026 415.668 13.463 420.253 16.6398 424.864C19.9728 429.212 23.046 433.596 25.8353 437.975C28.796 442.136 31.4712 446.386 33.8048 450.736C36.2935 454.978 38.4331 459.41 40.1759 464.025C42.034 468.63 43.4903 473.474 44.4969 478.519C45.5895 483.584 46.218 488.865 46.328 494.292C46.4886 499.736 46.107 505.315 45.1172 510.968Z" stroke="url(#paint21_linear_24_412)" stroke-opacity="0.5" stroke-width="1.65274" stroke-linecap="round" stroke-dasharray="13.22 1.98"/>
<path opacity="0.7" d="M30.8069 513.66C29.6644 518.519 27.9975 523.191 25.8732 527.638C23.6962 532.07 21.0387 536.266 17.9585 540.187C14.827 544.065 11.2799 547.643 7.42067 550.857C3.52758 553.97 -0.642208 556.655 -4.97233 558.827C-9.26681 560.8 -13.6463 562.165 -18.0003 562.833C-22.2312 563.198 -26.3709 562.79 -30.3166 561.558C-34.1058 560.005 -37.6933 557.656 -41.0368 554.558C-44.305 551.297 -47.3989 547.452 -50.3327 543.144C-53.3535 538.991 -56.1944 534.788 -58.8795 530.671C-61.7796 526.927 -64.5669 523.306 -67.2189 519.836C-70.0905 516.706 -72.7958 513.63 -75.288 510.552C-77.9455 507.662 -80.3421 504.63 -82.432 501.428C-84.6261 498.236 -86.4819 494.764 -87.9764 491.024C-89.5504 487.209 -90.7611 483.082 -91.5752 478.692C-92.4656 474.221 -92.9601 469.502 -93.0356 464.616C-93.1707 459.673 -92.8619 454.6 -92.0682 449.471C-91.2861 444.336 -90.0079 439.425 -88.266 434.795C-86.4837 430.187 -84.2087 425.877 -81.4899 421.898C-78.6903 417.964 -75.4385 414.373 -71.8073 411.16C-68.0965 408.021 -64.0306 405.278 -59.6984 402.993C-55.3387 400.822 -50.7648 399.149 -46.0883 398.025C-41.4559 397.089 -36.7801 396.767 -32.1696 397.105C-27.6681 397.693 -23.2742 398.963 -19.0787 400.954C-14.9939 403.172 -11.0965 406.065 -7.44161 409.609C-3.83567 413.255 -0.571929 417.271 2.37358 421.517C5.36673 425.692 8.10473 430.012 10.5909 434.404C13.2064 438.618 15.5913 442.892 17.7425 447.165C20.0339 451.282 22.0863 455.447 23.8703 459.659C25.7778 463.758 27.3993 467.963 28.6913 472.256C30.0829 476.506 31.125 480.895 31.7771 485.399C32.5037 489.892 32.8127 494.523 32.6618 499.245C32.5462 503.972 31.9469 508.793 30.8069 513.66Z" stroke="url(#paint22_linear_24_412)" stroke-opacity="0.5" stroke-width="1.65274" stroke-linecap="round" stroke-dasharray="5.95 5.95"/>
<path opacity="0.89" d="M16.6108 514.587C14.1998 522.686 10.1831 529.933 4.9875 536.029C-0.305301 541.945 -6.63535 546.463 -13.3695 549.156C-19.9141 551.255 -26.5025 551.124 -32.5401 548.506C-38.1888 545.179 -43.3368 539.616 -47.8454 532.225C-52.6149 525.257 -56.8599 518.019 -60.6407 511.061C-65.0728 504.99 -68.9491 498.834 -71.9755 492.537C-75.4047 486.455 -77.7882 479.666 -78.8353 472.319C-80.1038 464.815 -79.9637 456.688 -78.1345 448.383C-76.3353 440.051 -72.8584 432.507 -68.0636 426.093C-63.131 419.868 -56.8995 414.927 -49.9179 411.6C-42.9731 408.713 -35.5685 407.687 -28.3395 408.83C-21.4565 410.638 -14.9439 414.689 -9.21492 420.952C-3.66369 427.493 0.888778 435.147 4.5252 443.204C8.4692 450.877 11.6712 458.854 14.0127 466.815C16.72 474.46 18.4628 482.376 18.9764 490.364C19.6812 498.285 18.9976 506.465 16.6108 514.587Z" stroke="url(#paint23_linear_24_412)" stroke-opacity="0.5" stroke-width="1.65274" stroke-linecap="round" stroke-dasharray="1.32 1.32"/>
<path opacity="0.2" d="M3.47288 512.71C1.18164 519.147 -2.1958 524.627 -6.29633 528.963C-10.4152 533.155 -15.1438 536.025 -20.0304 537.32C-24.7695 538.265 -29.4764 537.462 -33.794 534.836C-37.9098 531.874 -41.6927 527.268 -45.0211 521.245C-48.5278 515.468 -51.57 509.252 -54.1834 503.052C-57.2218 497.361 -59.8105 491.522 -61.7752 485.678C-64.0339 480.037 -65.522 474.064 -66.003 467.906C-66.6183 461.708 -66.1289 455.224 -64.3019 448.785C-62.4977 442.322 -59.447 436.606 -55.4864 431.899C-51.4904 427.324 -46.6339 423.894 -41.3462 421.853C-36.1404 420.128 -30.6742 419.938 -25.393 421.458C-20.3441 423.39 -15.5817 427.048 -11.397 432.418C-7.33477 437.969 -4.07373 444.457 -1.54907 451.343C1.13266 458.057 3.18377 465.091 4.53639 472.108C6.10147 478.944 6.9188 485.9 6.80016 492.718C6.80244 499.493 5.75728 506.26 3.47288 512.71Z" stroke="url(#paint24_linear_24_412)" stroke-opacity="0.5" stroke-width="1.65274" stroke-linecap="round" stroke-dasharray="7.27 5.29"/>
<path opacity="0.29" d="M-7.71244 507.564C-9.68775 512.31 -12.2822 516.132 -15.2428 518.929C-19.8198 522.472 -29.5213 523.456 -34.0077 520.703C-36.8357 518.324 -39.4512 514.786 -41.7458 510.186C-44.1544 505.716 -46.1585 500.783 -47.7845 495.731C-49.636 490.914 -51.1202 485.918 -52.1317 480.951C-53.3231 476.109 -53.9639 471.137 -53.9116 466.236C-53.9491 461.33 -53.2079 456.412 -51.5647 451.727C-49.9368 447.029 -47.5174 443.056 -44.5462 439.943C-39.8634 435.864 -29.006 433.151 -23.5871 434.899C-20.1571 436.678 -16.9353 439.704 -14.1147 443.973C-11.382 448.35 -9.24009 453.439 -7.66457 458.876C-6.03885 464.252 -4.91811 469.932 -4.33928 475.596C-3.66978 481.181 -3.55937 486.812 -4.08772 492.212C-4.56632 497.593 -5.74737 502.809 -7.71244 507.564Z" stroke="url(#paint25_linear_24_412)" stroke-opacity="0.5" stroke-width="1.65274" stroke-linecap="round" stroke-dasharray="2.64 17.19"/>
<path opacity="0.67" d="M-16.4529 499.396C-21.4094 507.153 -33.2087 507.047 -37.8641 499.131C-40.8328 493.083 -42.6458 485.565 -43.2207 478.234C-44.0912 471.107 -43.4769 463.792 -40.8924 457.734C-38.327 451.667 -34.1809 448.07 -29.6947 447.375C-25.3436 446.923 -20.9189 449.603 -17.5722 455.514C-14.3819 461.605 -12.7143 469.564 -12.5456 477.483C-12.2813 485.337 -13.5315 493.226 -16.4529 499.396Z" stroke="url(#paint26_linear_24_412)" stroke-opacity="0.5" stroke-width="1.65274" stroke-linecap="round" stroke-dasharray="15.87 1.98"/>
<defs>
<linearGradient id="paint0_linear_24_412" x1="205.772" y1="253.548" x2="-265.737" y2="725.057" gradientUnits="userSpaceOnUse">
<stop stop-color="#1F89DB"/>
<stop offset="1" stop-color="#F42A8B"/>
</linearGradient>
<linearGradient id="paint1_linear_24_412" x1="209.971" y1="275.236" x2="-270.919" y2="702.635" gradientUnits="userSpaceOnUse">
<stop stop-color="#1F89DB"/>
<stop offset="1" stop-color="#F42A8B"/>
</linearGradient>
<linearGradient id="paint2_linear_24_412" x1="212.447" y1="296.59" x2="-274.335" y2="680.466" gradientUnits="userSpaceOnUse">
<stop stop-color="#1F89DB"/>
<stop offset="1" stop-color="#F42A8B"/>
</linearGradient>
<linearGradient id="paint3_linear_24_412" x1="213.249" y1="317.493" x2="-276.024" y2="658.674" gradientUnits="userSpaceOnUse">
<stop stop-color="#1F89DB"/>
<stop offset="1" stop-color="#F42A8B"/>
</linearGradient>
<linearGradient id="paint4_linear_24_412" x1="212.444" y1="337.825" x2="-276.042" y2="637.386" gradientUnits="userSpaceOnUse">
<stop stop-color="#1F89DB"/>
<stop offset="1" stop-color="#F42A8B"/>
</linearGradient>
<linearGradient id="paint5_linear_24_412" x1="210.115" y1="357.47" x2="-274.444" y2="616.724" gradientUnits="userSpaceOnUse">
<stop stop-color="#1F89DB"/>
<stop offset="1" stop-color="#F42A8B"/>
</linearGradient>
<linearGradient id="paint6_linear_24_412" x1="206.349" y1="376.327" x2="-271.296" y2="596.805" gradientUnits="userSpaceOnUse">
<stop stop-color="#1F89DB"/>
<stop offset="1" stop-color="#F42A8B"/>
</linearGradient>
<linearGradient id="paint7_linear_24_412" x1="201.15" y1="394.332" x2="-266.237" y2="577.569" gradientUnits="userSpaceOnUse">
<stop stop-color="#1F89DB"/>
<stop offset="1" stop-color="#F42A8B"/>
</linearGradient>
<linearGradient id="paint8_linear_24_412" x1="194.612" y1="410.873" x2="-260.761" y2="559.158" gradientUnits="userSpaceOnUse">
<stop stop-color="#1F89DB"/>
<stop offset="1" stop-color="#F42A8B"/>
</linearGradient>
<linearGradient id="paint9_linear_24_412" x1="187.12" y1="426.921" x2="-253.357" y2="542.204" gradientUnits="userSpaceOnUse">
<stop stop-color="#1F89DB"/>
<stop offset="1" stop-color="#F42A8B"/>
</linearGradient>
<linearGradient id="paint10_linear_24_412" x1="178.501" y1="441.729" x2="-244.823" y2="526.289" gradientUnits="userSpaceOnUse">
<stop stop-color="#1F89DB"/>
<stop offset="1" stop-color="#F42A8B"/>
</linearGradient>
<linearGradient id="paint11_linear_24_412" x1="168.921" y1="455.336" x2="-235.232" y2="511.603" gradientUnits="userSpaceOnUse">
<stop stop-color="#1F89DB"/>
<stop offset="1" stop-color="#F42A8B"/>
</linearGradient>
<linearGradient id="paint12_linear_24_412" x1="158.491" y1="467.681" x2="-224.692" y2="498.212" gradientUnits="userSpaceOnUse">
<stop stop-color="#1F89DB"/>
<stop offset="1" stop-color="#F42A8B"/>
</linearGradient>
<linearGradient id="paint13_linear_24_412" x1="147.323" y1="478.711" x2="-213.327" y2="486.172" gradientUnits="userSpaceOnUse">
<stop stop-color="#1F89DB"/>
<stop offset="1" stop-color="#F42A8B"/>
</linearGradient>
<linearGradient id="paint14_linear_24_412" x1="135.536" y1="488.345" x2="-201.244" y2="475.495" gradientUnits="userSpaceOnUse">
<stop stop-color="#1F89DB"/>
<stop offset="1" stop-color="#F42A8B"/>
</linearGradient>
<linearGradient id="paint15_linear_24_412" x1="123.257" y1="496.526" x2="-188.561" y2="466.197" gradientUnits="userSpaceOnUse">
<stop stop-color="#1F89DB"/>
<stop offset="1" stop-color="#F42A8B"/>
</linearGradient>
<linearGradient id="paint16_linear_24_412" x1="110.61" y1="503.272" x2="-175.396" y2="458.352" gradientUnits="userSpaceOnUse">
<stop stop-color="#1F89DB"/>
<stop offset="1" stop-color="#F42A8B"/>
</linearGradient>
<linearGradient id="paint17_linear_24_412" x1="97.3574" y1="508.546" x2="-161.491" y2="452.125" gradientUnits="userSpaceOnUse">
<stop stop-color="#1F89DB"/>
<stop offset="1" stop-color="#F42A8B"/>
</linearGradient>
<linearGradient id="paint18_linear_24_412" x1="84.6916" y1="512.442" x2="-148.009" y2="447.179" gradientUnits="userSpaceOnUse">
<stop stop-color="#1F89DB"/>
<stop offset="1" stop-color="#F42A8B"/>
</linearGradient>
<linearGradient id="paint19_linear_24_412" x1="71.6192" y1="514.975" x2="-134.222" y2="443.949" gradientUnits="userSpaceOnUse">
<stop stop-color="#1F89DB"/>
<stop offset="1" stop-color="#F42A8B"/>
</linearGradient>
<linearGradient id="paint20_linear_24_412" x1="58.6802" y1="516.014" x2="-120.452" y2="442.154" gradientUnits="userSpaceOnUse">
<stop stop-color="#1F89DB"/>
<stop offset="1" stop-color="#F42A8B"/>
</linearGradient>
<linearGradient id="paint21_linear_24_412" x1="45.9804" y1="515.654" x2="-106.853" y2="441.845" gradientUnits="userSpaceOnUse">
<stop stop-color="#1F89DB"/>
<stop offset="1" stop-color="#F42A8B"/>
</linearGradient>
<linearGradient id="paint22_linear_24_412" x1="33.6333" y1="513.915" x2="-93.5474" y2="442.987" gradientUnits="userSpaceOnUse">
<stop stop-color="#1F89DB"/>
<stop offset="1" stop-color="#F42A8B"/>
</linearGradient>
<linearGradient id="paint23_linear_24_412" x1="21.6663" y1="510.907" x2="-80.7083" y2="445.64" gradientUnits="userSpaceOnUse">
<stop stop-color="#1F89DB"/>
<stop offset="1" stop-color="#F42A8B"/>
</linearGradient>
<linearGradient id="paint24_linear_24_412" x1="10.3904" y1="506.512" x2="-68.3754" y2="449.519" gradientUnits="userSpaceOnUse">
<stop stop-color="#1F89DB"/>
<stop offset="1" stop-color="#F42A8B"/>
</linearGradient>
<linearGradient id="paint25_linear_24_412" x1="-0.216385" y1="500.886" x2="-56.7202" y2="454.706" gradientUnits="userSpaceOnUse">
<stop stop-color="#1F89DB"/>
<stop offset="1" stop-color="#F42A8B"/>
</linearGradient>
<linearGradient id="paint26_linear_24_412" x1="-10.292" y1="492.986" x2="-45.4123" y2="460.658" gradientUnits="userSpaceOnUse">
<stop stop-color="#1F89DB"/>
<stop offset="1" stop-color="#F42A8B"/>
</linearGradient>
</defs>
</svg>
