<?xml version="1.0" encoding="UTF-8"?>
<svg xmlns="http://www.w3.org/2000/svg" xmlns:xlink="http://www.w3.org/1999/xlink" width="32px" height="32px" viewBox="0 0 32 32" version="1.1">
<g id="surface1">
<path style=" stroke:none;fill-rule:nonzero;fill:rgb(0%,41.176471%,71.764706%);fill-opacity:1;" d="M 19.957031 13.601562 C 20.058594 13.429688 20.15625 13.261719 20.253906 13.09375 C 20.703125 12.320312 21.109375 11.523438 21.371094 10.664062 C 21.511719 10.203125 21.609375 9.734375 21.566406 9.246094 C 21.507812 8.648438 21.1875 8.171875 20.582031 8.042969 C 20.570312 8.042969 20.5625 8.035156 20.542969 8.023438 C 20.710938 7.921875 20.882812 7.847656 21.050781 7.773438 C 21.460938 7.59375 21.878906 7.449219 22.324219 7.410156 C 22.734375 7.375 23.117188 7.4375 23.417969 7.75 C 23.625 7.960938 23.726562 8.222656 23.777344 8.507812 C 23.882812 9.09375 23.804688 9.667969 23.660156 10.230469 C 23.40625 11.242188 22.9375 12.167969 22.425781 13.066406 C 22.335938 13.230469 22.230469 13.390625 22.132812 13.550781 C 22.109375 13.589844 22.085938 13.617188 22.03125 13.617188 C 21.355469 13.613281 20.675781 13.613281 20 13.613281 C 19.988281 13.613281 19.980469 13.609375 19.957031 13.601562 Z M 19.957031 13.601562 "/>
<path style=" stroke:none;fill-rule:nonzero;fill:rgb(0%,41.176471%,71.764706%);fill-opacity:1;" d="M 17.011719 19.953125 C 16.929688 20.027344 16.851562 20.09375 16.777344 20.164062 C 15.359375 21.511719 13.8125 22.691406 12.132812 23.699219 C 11.675781 23.972656 11.21875 24.246094 10.710938 24.417969 C 10.214844 24.585938 9.714844 24.664062 9.199219 24.53125 C 8.800781 24.429688 8.472656 24.222656 8.21875 23.902344 C 8.207031 23.890625 8.203125 23.878906 8.195312 23.863281 C 8.1875 23.855469 8.1875 23.84375 8.175781 23.820312 C 8.382812 23.824219 8.585938 23.816406 8.785156 23.789062 C 9.457031 23.6875 10.082031 23.4375 10.679688 23.125 C 11.644531 22.625 12.515625 21.984375 13.347656 21.285156 C 13.84375 20.871094 14.320312 20.433594 14.773438 19.972656 C 14.804688 19.941406 14.835938 19.925781 14.878906 19.925781 C 15.574219 19.925781 16.269531 19.925781 16.964844 19.925781 C 16.972656 19.925781 16.976562 19.933594 17.011719 19.953125 Z M 17.011719 19.953125 "/>
<path style=" stroke:none;fill-rule:nonzero;fill:rgb(0%,41.176471%,71.764706%);fill-opacity:1;" d="M 7.324219 16.207031 C 7.324219 15.625 7.328125 15.039062 7.324219 14.453125 C 7.324219 14.371094 7.339844 14.335938 7.433594 14.339844 C 7.578125 14.347656 7.722656 14.347656 7.863281 14.339844 C 7.949219 14.335938 7.972656 14.367188 7.972656 14.449219 C 7.96875 14.886719 7.972656 15.328125 7.96875 15.769531 C 7.96875 15.851562 7.984375 15.875 8.070312 15.875 C 8.8125 15.871094 9.550781 15.871094 10.289062 15.875 C 10.394531 15.875 10.417969 15.84375 10.417969 15.746094 C 10.410156 15.3125 10.417969 14.882812 10.414062 14.449219 C 10.410156 14.367188 10.433594 14.339844 10.515625 14.339844 C 10.667969 14.347656 10.820312 14.347656 10.972656 14.34375 C 11.039062 14.339844 11.0625 14.363281 11.058594 14.429688 C 11.058594 14.691406 11.058594 14.949219 11.058594 15.207031 C 11.058594 16.125 11.058594 17.042969 11.0625 17.960938 C 11.0625 18.050781 11.042969 18.085938 10.945312 18.078125 C 10.808594 18.070312 10.671875 18.070312 10.535156 18.078125 C 10.441406 18.082031 10.410156 18.0625 10.410156 17.960938 C 10.417969 17.460938 10.410156 16.960938 10.417969 16.460938 C 10.417969 16.359375 10.386719 16.339844 10.292969 16.339844 C 9.554688 16.34375 8.8125 16.34375 8.074219 16.34375 C 7.992188 16.339844 7.96875 16.363281 7.96875 16.445312 C 7.972656 16.953125 7.96875 17.460938 7.972656 17.96875 C 7.972656 18.054688 7.945312 18.082031 7.859375 18.078125 C 7.714844 18.070312 7.570312 18.070312 7.425781 18.078125 C 7.34375 18.082031 7.320312 18.054688 7.320312 17.972656 C 7.324219 17.382812 7.324219 16.796875 7.324219 16.207031 Z M 7.324219 16.207031 "/>
<path style=" stroke:none;fill-rule:nonzero;fill:rgb(0%,41.176471%,71.764706%);fill-opacity:1;" d="M 19.914062 17.632812 C 19.914062 17.773438 19.914062 17.910156 19.914062 18.050781 C 18.765625 18.050781 17.621094 18.050781 16.472656 18.050781 C 16.46875 18.03125 16.464844 18.011719 16.464844 17.996094 C 16.464844 16.8125 16.464844 15.628906 16.464844 14.445312 C 16.464844 14.355469 16.5 14.34375 16.574219 14.34375 C 17.351562 14.34375 18.128906 14.34375 18.90625 14.34375 C 19.195312 14.34375 19.484375 14.347656 19.773438 14.34375 C 19.839844 14.34375 19.875 14.355469 19.871094 14.433594 C 19.863281 14.519531 19.863281 14.605469 19.871094 14.6875 C 19.875 14.753906 19.847656 14.773438 19.785156 14.773438 C 18.894531 14.769531 18.003906 14.769531 17.113281 14.769531 C 17.058594 14.78125 17.074219 14.828125 17.074219 14.859375 C 17.074219 15.179688 17.074219 15.503906 17.078125 15.824219 C 17.078125 15.855469 17.066406 15.890625 17.09375 15.917969 C 17.097656 15.925781 17.101562 15.933594 17.105469 15.941406 C 17.101562 15.941406 17.097656 15.945312 17.097656 15.949219 C 17.097656 15.949219 17.097656 15.957031 17.097656 15.957031 C 17.117188 15.960938 17.132812 15.964844 17.152344 15.964844 C 17.929688 15.964844 18.703125 15.964844 19.480469 15.964844 C 19.507812 15.964844 19.539062 15.972656 19.558594 15.941406 C 19.578125 15.941406 19.59375 15.941406 19.609375 15.941406 C 19.605469 15.976562 19.609375 16.003906 19.652344 16.011719 C 19.652344 16.09375 19.648438 16.179688 19.660156 16.265625 C 19.671875 16.363281 19.632812 16.386719 19.535156 16.386719 C 18.761719 16.382812 17.984375 16.386719 17.207031 16.382812 C 17.125 16.382812 17.097656 16.402344 17.097656 16.488281 C 17.105469 16.832031 17.105469 17.175781 17.101562 17.519531 C 17.097656 17.601562 17.117188 17.640625 17.210938 17.632812 C 17.292969 17.621094 17.378906 17.628906 17.464844 17.628906 C 18.28125 17.628906 19.097656 17.632812 19.914062 17.632812 Z M 19.914062 17.632812 "/>
<path style=" stroke:none;fill-rule:nonzero;fill:rgb(56.078431%,76.470588%,11.764706%);fill-opacity:1;" d="M 13.277344 13.597656 C 13.523438 13.347656 13.753906 13.105469 13.988281 12.875 C 14.261719 12.609375 14.535156 12.347656 14.816406 12.089844 C 15.3125 11.632812 15.824219 11.191406 16.363281 10.785156 C 16.929688 10.359375 17.511719 9.960938 18.140625 9.644531 C 18.496094 9.464844 18.859375 9.316406 19.246094 9.230469 C 19.488281 9.175781 19.734375 9.15625 19.984375 9.179688 C 20.039062 9.183594 20.089844 9.199219 20.144531 9.226562 C 19.539062 9.40625 19.027344 9.746094 18.523438 10.097656 C 17.800781 10.601562 17.132812 11.171875 16.480469 11.761719 C 15.832031 12.347656 15.199219 12.957031 14.585938 13.582031 C 14.5625 13.609375 14.539062 13.613281 14.507812 13.613281 C 14.117188 13.613281 13.726562 13.613281 13.332031 13.613281 C 13.324219 13.613281 13.3125 13.605469 13.277344 13.597656 Z M 13.277344 13.597656 "/>
<path style=" stroke:none;fill-rule:nonzero;fill:rgb(0%,41.176471%,71.764706%);fill-opacity:1;" d="M 21.117188 17.691406 C 20.632812 17.242188 20.484375 16.664062 20.527344 16.03125 C 20.589844 15.089844 21.226562 14.425781 22.191406 14.28125 C 22.777344 14.191406 23.347656 14.234375 23.890625 14.488281 C 24.265625 14.660156 24.5 14.957031 24.613281 15.351562 C 24.636719 15.421875 24.625 15.453125 24.542969 15.449219 C 24.394531 15.445312 24.25 15.449219 24.101562 15.449219 C 24.058594 15.449219 24.023438 15.453125 24.003906 15.398438 C 23.863281 14.996094 23.550781 14.804688 23.15625 14.71875 C 22.765625 14.636719 22.382812 14.667969 22.015625 14.8125 C 21.613281 14.96875 21.371094 15.269531 21.257812 15.679688 C 21.160156 16.046875 21.160156 16.414062 21.257812 16.777344 C 21.382812 17.230469 21.671875 17.527344 22.128906 17.652344 C 22.457031 17.742188 22.789062 17.757812 23.117188 17.6875 C 23.605469 17.578125 23.902344 17.261719 24.039062 16.792969 C 24.066406 16.707031 24.105469 16.683594 24.1875 16.6875 C 24.324219 16.695312 24.460938 16.695312 24.597656 16.6875 C 24.683594 16.683594 24.6875 16.71875 24.667969 16.785156 C 24.585938 17.121094 24.425781 17.410156 24.179688 17.648438 C 24.035156 17.753906 23.890625 17.855469 23.726562 17.925781 C 23.300781 18.101562 22.855469 18.15625 22.394531 18.128906 C 22.21875 18.117188 22.046875 18.070312 21.871094 18.050781 C 21.605469 17.964844 21.351562 17.851562 21.117188 17.691406 Z M 21.117188 17.691406 "/>
<path style=" stroke:none;fill-rule:nonzero;fill:rgb(0%,41.176471%,71.764706%);fill-opacity:1;" d="M 13.167969 16.273438 C 12.84375 15.859375 12.519531 15.449219 12.195312 15.039062 C 12.042969 14.839844 11.882812 14.644531 11.730469 14.445312 C 11.707031 14.417969 11.675781 14.398438 11.671875 14.34375 C 11.902344 14.34375 12.128906 14.34375 12.359375 14.34375 C 12.402344 14.34375 12.421875 14.378906 12.445312 14.40625 C 12.84375 14.953125 13.246094 15.492188 13.648438 16.039062 C 13.703125 16.113281 13.730469 16.128906 13.792969 16.042969 C 14.195312 15.503906 14.605469 14.964844 15.011719 14.421875 C 15.054688 14.363281 15.101562 14.339844 15.175781 14.34375 C 15.382812 14.347656 15.585938 14.34375 15.8125 14.34375 C 15.722656 14.464844 15.644531 14.570312 15.566406 14.675781 C 15.558594 14.683594 15.546875 14.6875 15.539062 14.695312 C 15.070312 15.289062 14.601562 15.882812 14.128906 16.476562 C 14.074219 16.542969 14.050781 16.609375 14.054688 16.695312 C 14.054688 17.144531 14.050781 17.597656 14.050781 18.046875 C 13.882812 18.050781 13.71875 18.046875 13.550781 18.050781 C 13.460938 18.054688 13.433594 18.027344 13.433594 17.933594 C 13.4375 17.511719 13.4375 17.085938 13.433594 16.660156 C 13.433594 16.621094 13.460938 16.570312 13.402344 16.542969 C 13.324219 16.453125 13.246094 16.363281 13.167969 16.273438 Z M 13.167969 16.273438 "/>
<path style=" stroke:none;fill-rule:nonzero;fill:rgb(56.078431%,76.470588%,11.764706%);fill-opacity:1;" d="M 10.1875 19.941406 C 10.15625 20.007812 10.09375 20.046875 10.046875 20.09375 C 9.765625 20.398438 9.625 20.765625 9.574219 21.167969 C 9.507812 21.648438 9.558594 22.125 9.648438 22.597656 C 9.660156 22.660156 9.695312 22.742188 9.648438 22.777344 C 9.601562 22.816406 9.535156 22.753906 9.480469 22.730469 C 9.015625 22.511719 8.792969 22.121094 8.734375 21.632812 C 8.667969 21.074219 8.773438 20.53125 8.953125 20 C 8.96875 19.957031 8.992188 19.925781 9.046875 19.925781 C 9.417969 19.925781 9.785156 19.925781 10.15625 19.925781 C 10.164062 19.925781 10.175781 19.933594 10.1875 19.941406 Z M 10.1875 19.941406 "/>
<path style=" stroke:none;fill-rule:nonzero;fill:rgb(11.764706%,40.784314%,58.431373%);fill-opacity:1;" d="M 19.917969 18.070312 C 19.714844 18.074219 19.511719 18.074219 19.308594 18.074219 C 18.402344 18.074219 17.5 18.074219 16.59375 18.074219 C 16.554688 18.074219 16.503906 18.097656 16.472656 18.050781 C 17.621094 18.050781 18.765625 18.050781 19.914062 18.050781 C 19.917969 18.058594 19.917969 18.0625 19.917969 18.070312 Z M 19.917969 18.070312 "/>
<path style=" stroke:none;fill-rule:nonzero;fill:rgb(0%,41.176471%,71.764706%);fill-opacity:1;" d="M 17.105469 15.941406 C 17.921875 15.941406 18.742188 15.941406 19.558594 15.941406 C 19.539062 15.972656 19.507812 15.964844 19.480469 15.964844 C 18.703125 15.964844 17.925781 15.964844 17.152344 15.964844 C 17.132812 15.964844 17.117188 15.960938 17.097656 15.957031 C 17.097656 15.957031 17.097656 15.949219 17.097656 15.949219 C 17.097656 15.945312 17.101562 15.941406 17.105469 15.941406 Z M 17.105469 15.941406 "/>
<path style=" stroke:none;fill-rule:nonzero;fill:rgb(0%,41.176471%,71.764706%);fill-opacity:1;" d="M 17.113281 14.769531 C 17.089844 15.023438 17.105469 15.277344 17.101562 15.53125 C 17.097656 15.660156 17.097656 15.789062 17.09375 15.917969 C 17.066406 15.890625 17.078125 15.855469 17.078125 15.824219 C 17.074219 15.503906 17.074219 15.179688 17.074219 14.859375 C 17.074219 14.828125 17.058594 14.78125 17.113281 14.769531 Z M 17.113281 14.769531 "/>
<path style=" stroke:none;fill-rule:nonzero;fill:rgb(11.764706%,40.784314%,58.431373%);fill-opacity:1;" d="M 19.609375 15.941406 C 19.675781 15.933594 19.652344 15.976562 19.652344 16.011719 C 19.609375 16.003906 19.605469 15.976562 19.609375 15.941406 Z M 19.609375 15.941406 "/>
<path style=" stroke:none;fill-rule:nonzero;fill:rgb(0%,41.176471%,71.764706%);fill-opacity:1;" d="M 14.050781 18.050781 C 14.035156 18.09375 13.996094 18.074219 13.964844 18.074219 C 13.816406 18.078125 13.664062 18.070312 13.511719 18.078125 C 13.425781 18.082031 13.410156 18.046875 13.410156 17.96875 C 13.414062 17.542969 13.414062 17.113281 13.410156 16.6875 C 13.410156 16.640625 13.40625 16.59375 13.402344 16.542969 C 13.460938 16.570312 13.433594 16.621094 13.433594 16.660156 C 13.4375 17.085938 13.4375 17.511719 13.433594 17.933594 C 13.433594 18.027344 13.460938 18.054688 13.550781 18.050781 C 13.71875 18.046875 13.882812 18.050781 14.050781 18.050781 Z M 14.050781 18.050781 "/>
<path style=" stroke:none;fill-rule:nonzero;fill:rgb(99.607843%,99.607843%,99.607843%);fill-opacity:1;" d="M 15.335938 15.046875 C 15.332031 15.054688 15.332031 15.0625 15.328125 15.066406 C 15.324219 15.066406 15.3125 15.0625 15.308594 15.058594 C 15.308594 15.054688 15.3125 15.042969 15.316406 15.039062 C 15.320312 15.039062 15.328125 15.046875 15.335938 15.046875 Z M 15.335938 15.046875 "/>
<path style=" stroke:none;fill-rule:nonzero;fill:rgb(0%,41.176471%,71.764706%);fill-opacity:1;" d="M 8.753906 18.585938 L 8.871094 18.585938 L 8.871094 19.449219 L 8.753906 19.449219 L 8.753906 19.042969 L 8.300781 19.042969 L 8.300781 19.449219 L 8.1875 19.449219 L 8.1875 18.585938 L 8.300781 18.585938 L 8.300781 18.941406 L 8.753906 18.941406 Z M 8.753906 18.585938 "/>
<path style=" stroke:none;fill-rule:nonzero;fill:rgb(0%,41.176471%,71.764706%);fill-opacity:1;" d="M 9.058594 19.011719 C 9.0625 18.9375 9.085938 18.882812 9.132812 18.851562 C 9.175781 18.816406 9.238281 18.800781 9.320312 18.800781 C 9.339844 18.800781 9.359375 18.804688 9.382812 18.808594 C 9.410156 18.8125 9.433594 18.820312 9.460938 18.832031 C 9.484375 18.84375 9.507812 18.859375 9.527344 18.882812 C 9.542969 18.90625 9.554688 18.9375 9.554688 18.976562 L 9.554688 19.339844 C 9.554688 19.363281 9.566406 19.375 9.589844 19.375 C 9.597656 19.375 9.605469 19.375 9.625 19.371094 L 9.625 19.449219 C 9.621094 19.449219 9.617188 19.449219 9.609375 19.453125 C 9.59375 19.457031 9.578125 19.460938 9.566406 19.460938 C 9.523438 19.460938 9.496094 19.453125 9.480469 19.433594 C 9.464844 19.417969 9.457031 19.394531 9.453125 19.363281 C 9.425781 19.394531 9.394531 19.417969 9.359375 19.4375 C 9.324219 19.457031 9.28125 19.464844 9.226562 19.464844 C 9.167969 19.464844 9.121094 19.449219 9.085938 19.414062 C 9.046875 19.382812 9.027344 19.339844 9.027344 19.285156 C 9.027344 19.265625 9.03125 19.25 9.035156 19.230469 C 9.039062 19.210938 9.046875 19.191406 9.0625 19.171875 C 9.074219 19.152344 9.09375 19.132812 9.121094 19.117188 C 9.144531 19.101562 9.179688 19.09375 9.21875 19.085938 L 9.394531 19.066406 C 9.410156 19.0625 9.425781 19.058594 9.433594 19.046875 C 9.445312 19.039062 9.449219 19.019531 9.449219 18.992188 C 9.449219 18.921875 9.402344 18.890625 9.300781 18.890625 C 9.273438 18.890625 9.25 18.894531 9.230469 18.902344 C 9.214844 18.90625 9.199219 18.917969 9.1875 18.929688 C 9.179688 18.941406 9.171875 18.953125 9.167969 18.96875 C 9.164062 18.980469 9.160156 18.996094 9.15625 19.011719 Z M 9.449219 19.125 C 9.4375 19.132812 9.421875 19.140625 9.398438 19.144531 C 9.375 19.152344 9.335938 19.160156 9.273438 19.167969 C 9.257812 19.167969 9.242188 19.171875 9.226562 19.175781 C 9.210938 19.179688 9.199219 19.183594 9.183594 19.191406 C 9.171875 19.199219 9.160156 19.210938 9.152344 19.222656 C 9.144531 19.234375 9.136719 19.25 9.136719 19.269531 C 9.136719 19.304688 9.148438 19.332031 9.167969 19.351562 C 9.1875 19.367188 9.214844 19.378906 9.253906 19.378906 C 9.277344 19.378906 9.300781 19.375 9.324219 19.367188 C 9.347656 19.359375 9.367188 19.347656 9.386719 19.335938 C 9.40625 19.320312 9.421875 19.308594 9.429688 19.289062 C 9.441406 19.269531 9.449219 19.25 9.449219 19.230469 Z M 9.449219 19.125 "/>
<path style=" stroke:none;fill-rule:nonzero;fill:rgb(0%,41.176471%,71.764706%);fill-opacity:1;" d="M 9.738281 19.011719 C 9.75 18.972656 9.769531 18.9375 9.792969 18.902344 C 9.816406 18.871094 9.847656 18.847656 9.886719 18.828125 C 9.921875 18.808594 9.964844 18.800781 10.011719 18.800781 C 10.0625 18.800781 10.105469 18.808594 10.140625 18.828125 C 10.179688 18.847656 10.210938 18.871094 10.234375 18.902344 C 10.257812 18.933594 10.273438 18.972656 10.289062 19.011719 C 10.300781 19.050781 10.304688 19.089844 10.304688 19.132812 C 10.304688 19.175781 10.300781 19.214844 10.289062 19.253906 C 10.277344 19.292969 10.257812 19.328125 10.234375 19.363281 C 10.210938 19.394531 10.179688 19.417969 10.140625 19.4375 C 10.105469 19.457031 10.0625 19.464844 10.011719 19.464844 C 9.964844 19.464844 9.921875 19.457031 9.886719 19.4375 C 9.847656 19.417969 9.816406 19.394531 9.792969 19.363281 C 9.769531 19.328125 9.75 19.292969 9.738281 19.253906 C 9.726562 19.214844 9.71875 19.175781 9.71875 19.132812 C 9.71875 19.089844 9.726562 19.050781 9.738281 19.011719 Z M 9.839844 19.210938 C 9.84375 19.238281 9.855469 19.261719 9.867188 19.289062 C 9.878906 19.3125 9.898438 19.332031 9.921875 19.347656 C 9.945312 19.367188 9.976562 19.375 10.011719 19.375 C 10.050781 19.375 10.078125 19.367188 10.101562 19.347656 C 10.128906 19.332031 10.144531 19.3125 10.160156 19.289062 C 10.171875 19.261719 10.183594 19.238281 10.1875 19.210938 C 10.191406 19.183594 10.195312 19.15625 10.195312 19.132812 C 10.195312 19.109375 10.191406 19.082031 10.1875 19.054688 C 10.183594 19.027344 10.171875 19.003906 10.160156 18.976562 C 10.144531 18.953125 10.128906 18.933594 10.101562 18.917969 C 10.078125 18.902344 10.050781 18.894531 10.011719 18.894531 C 9.976562 18.894531 9.945312 18.902344 9.921875 18.917969 C 9.898438 18.933594 9.878906 18.953125 9.867188 18.976562 C 9.855469 19.003906 9.84375 19.027344 9.839844 19.054688 C 9.832031 19.082031 9.832031 19.109375 9.832031 19.132812 C 9.832031 19.15625 9.832031 19.183594 9.839844 19.210938 Z M 9.839844 19.210938 "/>
<path style=" stroke:none;fill-rule:nonzero;fill:rgb(0%,41.176471%,71.764706%);fill-opacity:1;" d="M 10.832031 19.449219 L 10.714844 19.449219 L 10.714844 19.101562 L 10.386719 18.585938 L 10.523438 18.585938 L 10.773438 19 L 11.019531 18.585938 L 11.15625 18.585938 L 10.832031 19.101562 Z M 10.832031 19.449219 "/>
<path style=" stroke:none;fill-rule:nonzero;fill:rgb(0%,41.176471%,71.764706%);fill-opacity:1;" d="M 11.554688 19.449219 L 11.554688 19.355469 L 11.550781 19.355469 C 11.527344 19.394531 11.5 19.421875 11.472656 19.4375 C 11.441406 19.457031 11.402344 19.464844 11.351562 19.464844 C 11.328125 19.464844 11.304688 19.460938 11.277344 19.457031 C 11.253906 19.449219 11.234375 19.4375 11.214844 19.425781 C 11.195312 19.410156 11.175781 19.386719 11.164062 19.363281 C 11.152344 19.339844 11.148438 19.308594 11.148438 19.273438 L 11.148438 18.820312 L 11.253906 18.820312 L 11.253906 19.238281 C 11.253906 19.285156 11.265625 19.320312 11.285156 19.34375 C 11.308594 19.363281 11.335938 19.375 11.375 19.375 C 11.40625 19.375 11.433594 19.367188 11.457031 19.355469 C 11.480469 19.34375 11.496094 19.328125 11.511719 19.304688 C 11.523438 19.285156 11.53125 19.261719 11.539062 19.238281 C 11.542969 19.214844 11.546875 19.191406 11.546875 19.164062 L 11.546875 18.820312 L 11.652344 18.820312 L 11.652344 19.449219 Z M 11.554688 19.449219 "/>
<path style=" stroke:none;fill-rule:nonzero;fill:rgb(0%,41.176471%,71.764706%);fill-opacity:1;" d="M 11.832031 19.011719 C 11.835938 18.9375 11.859375 18.882812 11.90625 18.851562 C 11.949219 18.816406 12.011719 18.800781 12.09375 18.800781 C 12.113281 18.800781 12.132812 18.804688 12.15625 18.808594 C 12.183594 18.8125 12.207031 18.820312 12.234375 18.832031 C 12.257812 18.84375 12.28125 18.859375 12.300781 18.882812 C 12.316406 18.90625 12.328125 18.9375 12.328125 18.976562 L 12.328125 19.339844 C 12.328125 19.363281 12.339844 19.375 12.363281 19.375 C 12.367188 19.375 12.378906 19.375 12.398438 19.371094 L 12.398438 19.449219 C 12.394531 19.449219 12.390625 19.449219 12.382812 19.453125 C 12.367188 19.457031 12.351562 19.460938 12.339844 19.460938 C 12.296875 19.460938 12.269531 19.453125 12.253906 19.433594 C 12.238281 19.417969 12.230469 19.394531 12.226562 19.363281 C 12.199219 19.394531 12.167969 19.417969 12.132812 19.4375 C 12.097656 19.457031 12.054688 19.464844 12 19.464844 C 11.941406 19.464844 11.894531 19.449219 11.859375 19.414062 C 11.820312 19.382812 11.800781 19.339844 11.800781 19.285156 C 11.800781 19.265625 11.804688 19.25 11.808594 19.230469 C 11.8125 19.210938 11.820312 19.191406 11.835938 19.171875 C 11.847656 19.152344 11.867188 19.132812 11.894531 19.117188 C 11.917969 19.101562 11.953125 19.09375 11.992188 19.085938 L 12.167969 19.066406 C 12.183594 19.0625 12.199219 19.058594 12.207031 19.046875 C 12.21875 19.039062 12.222656 19.019531 12.222656 18.992188 C 12.222656 18.921875 12.171875 18.890625 12.074219 18.890625 C 12.046875 18.890625 12.023438 18.894531 12.003906 18.902344 C 11.988281 18.90625 11.972656 18.917969 11.960938 18.929688 C 11.953125 18.941406 11.945312 18.953125 11.941406 18.96875 C 11.9375 18.980469 11.933594 18.996094 11.929688 19.011719 Z M 12.222656 19.125 C 12.210938 19.132812 12.195312 19.140625 12.171875 19.144531 C 12.148438 19.152344 12.105469 19.160156 12.046875 19.167969 C 12.03125 19.167969 12.015625 19.171875 12 19.175781 C 11.984375 19.179688 11.972656 19.183594 11.957031 19.191406 C 11.945312 19.199219 11.933594 19.210938 11.925781 19.222656 C 11.914062 19.234375 11.910156 19.25 11.910156 19.269531 C 11.910156 19.304688 11.921875 19.332031 11.941406 19.351562 C 11.957031 19.367188 11.988281 19.378906 12.027344 19.378906 C 12.050781 19.378906 12.074219 19.375 12.097656 19.367188 C 12.121094 19.359375 12.140625 19.347656 12.160156 19.335938 C 12.179688 19.320312 12.195312 19.308594 12.203125 19.289062 C 12.214844 19.269531 12.222656 19.25 12.222656 19.230469 Z M 12.222656 19.125 "/>
<path style=" stroke:none;fill-rule:nonzero;fill:rgb(0%,41.176471%,71.764706%);fill-opacity:1;" d="M 13.042969 19.449219 L 12.9375 19.449219 L 12.9375 19.0625 C 12.9375 19.003906 12.925781 18.960938 12.90625 18.9375 C 12.886719 18.910156 12.851562 18.894531 12.800781 18.894531 C 12.785156 18.894531 12.765625 18.898438 12.75 18.90625 C 12.730469 18.910156 12.710938 18.921875 12.695312 18.9375 C 12.675781 18.953125 12.664062 18.976562 12.652344 19.003906 C 12.640625 19.03125 12.636719 19.066406 12.636719 19.105469 L 12.636719 19.449219 L 12.53125 19.449219 L 12.53125 18.820312 L 12.628906 18.820312 L 12.628906 18.90625 L 12.632812 18.90625 C 12.640625 18.898438 12.648438 18.886719 12.660156 18.875 C 12.667969 18.863281 12.683594 18.851562 12.699219 18.839844 C 12.714844 18.828125 12.730469 18.820312 12.753906 18.8125 C 12.773438 18.804688 12.796875 18.800781 12.824219 18.800781 C 12.851562 18.800781 12.875 18.804688 12.902344 18.808594 C 12.925781 18.816406 12.949219 18.828125 12.972656 18.84375 C 12.992188 18.859375 13.011719 18.882812 13.023438 18.914062 C 13.035156 18.941406 13.042969 18.976562 13.042969 19.019531 Z M 13.042969 19.449219 "/>
<path style=" stroke:none;fill-rule:nonzero;fill:rgb(0%,41.176471%,71.764706%);fill-opacity:1;" d="M 14.148438 19.449219 L 13.511719 19.449219 L 13.511719 18.585938 L 14.140625 18.585938 L 14.140625 18.6875 L 13.628906 18.6875 L 13.628906 18.953125 L 14.101562 18.953125 L 14.101562 19.054688 L 13.628906 19.054688 L 13.628906 19.34375 L 14.148438 19.34375 Z M 14.148438 19.449219 "/>
<path style=" stroke:none;fill-rule:nonzero;fill:rgb(0%,41.176471%,71.764706%);fill-opacity:1;" d="M 14.421875 19.449219 L 14.3125 19.449219 L 14.3125 18.585938 L 14.421875 18.585938 Z M 14.421875 19.449219 "/>
<path style=" stroke:none;fill-rule:nonzero;fill:rgb(0%,41.176471%,71.764706%);fill-opacity:1;" d="M 15.136719 19.25 C 15.136719 19.273438 15.125 19.300781 15.109375 19.328125 C 15.101562 19.347656 15.089844 19.363281 15.074219 19.378906 C 15.058594 19.398438 15.042969 19.410156 15.023438 19.421875 C 15.003906 19.4375 14.984375 19.445312 14.957031 19.453125 C 14.933594 19.460938 14.898438 19.464844 14.855469 19.464844 C 14.769531 19.464844 14.699219 19.4375 14.648438 19.378906 C 14.597656 19.320312 14.574219 19.246094 14.574219 19.152344 C 14.574219 19.101562 14.578125 19.054688 14.589844 19.011719 C 14.601562 18.972656 14.621094 18.933594 14.648438 18.902344 C 14.671875 18.871094 14.703125 18.84375 14.742188 18.828125 C 14.78125 18.808594 14.824219 18.800781 14.875 18.800781 C 14.964844 18.800781 15.03125 18.832031 15.078125 18.898438 C 15.125 18.964844 15.144531 19.054688 15.144531 19.167969 L 14.6875 19.167969 C 14.6875 19.234375 14.703125 19.285156 14.734375 19.320312 C 14.761719 19.355469 14.808594 19.375 14.867188 19.375 C 14.894531 19.375 14.914062 19.371094 14.933594 19.363281 C 14.953125 19.355469 14.972656 19.34375 14.988281 19.332031 C 15.015625 19.304688 15.027344 19.277344 15.03125 19.25 Z M 15.035156 19.082031 C 15.035156 19.058594 15.03125 19.03125 15.023438 19.011719 C 15.015625 18.988281 15.007812 18.96875 14.992188 18.953125 C 14.980469 18.933594 14.960938 18.921875 14.941406 18.910156 C 14.917969 18.902344 14.890625 18.894531 14.859375 18.894531 C 14.835938 18.894531 14.816406 18.902344 14.792969 18.910156 C 14.773438 18.921875 14.753906 18.933594 14.738281 18.953125 C 14.722656 18.96875 14.707031 18.992188 14.699219 19.011719 C 14.691406 19.035156 14.6875 19.058594 14.6875 19.082031 Z M 15.035156 19.082031 "/>
<path style=" stroke:none;fill-rule:nonzero;fill:rgb(0%,41.176471%,71.764706%);fill-opacity:1;" d="M 15.691406 19.03125 C 15.683594 18.988281 15.667969 18.953125 15.644531 18.929688 C 15.617188 18.90625 15.582031 18.894531 15.539062 18.894531 C 15.507812 18.894531 15.480469 18.902344 15.460938 18.917969 C 15.4375 18.929688 15.417969 18.949219 15.40625 18.96875 C 15.390625 18.992188 15.382812 19.019531 15.375 19.046875 C 15.371094 19.074219 15.367188 19.101562 15.367188 19.132812 C 15.367188 19.164062 15.371094 19.191406 15.375 19.21875 C 15.378906 19.25 15.386719 19.273438 15.398438 19.296875 C 15.414062 19.320312 15.429688 19.339844 15.453125 19.355469 C 15.476562 19.367188 15.503906 19.375 15.539062 19.375 C 15.574219 19.375 15.609375 19.363281 15.636719 19.335938 C 15.664062 19.308594 15.679688 19.273438 15.6875 19.226562 L 15.792969 19.226562 C 15.789062 19.253906 15.78125 19.28125 15.773438 19.308594 C 15.761719 19.335938 15.746094 19.363281 15.726562 19.386719 C 15.707031 19.410156 15.679688 19.429688 15.648438 19.445312 C 15.617188 19.460938 15.578125 19.464844 15.535156 19.464844 C 15.449219 19.464844 15.378906 19.4375 15.328125 19.378906 C 15.277344 19.320312 15.253906 19.246094 15.253906 19.152344 C 15.253906 19.101562 15.257812 19.054688 15.273438 19.011719 C 15.285156 18.972656 15.300781 18.933594 15.328125 18.902344 C 15.351562 18.871094 15.382812 18.84375 15.421875 18.828125 C 15.460938 18.808594 15.503906 18.800781 15.554688 18.800781 C 15.59375 18.800781 15.628906 18.808594 15.660156 18.820312 C 15.6875 18.832031 15.710938 18.851562 15.730469 18.871094 C 15.75 18.894531 15.765625 18.917969 15.773438 18.945312 C 15.78125 18.972656 15.789062 19.003906 15.792969 19.03125 Z M 15.691406 19.03125 "/>
<path style=" stroke:none;fill-rule:nonzero;fill:rgb(0%,41.176471%,71.764706%);fill-opacity:1;" d="M 16.050781 18.90625 L 16.050781 19.316406 C 16.050781 19.335938 16.058594 19.351562 16.070312 19.355469 C 16.082031 19.363281 16.097656 19.363281 16.117188 19.363281 L 16.152344 19.363281 L 16.152344 19.449219 C 16.144531 19.449219 16.128906 19.449219 16.105469 19.453125 C 16.085938 19.457031 16.078125 19.457031 16.074219 19.457031 C 16.023438 19.457031 15.992188 19.445312 15.972656 19.421875 C 15.957031 19.398438 15.945312 19.363281 15.945312 19.320312 L 15.945312 18.90625 L 15.859375 18.90625 L 15.859375 18.820312 L 15.945312 18.820312 L 15.945312 18.644531 L 16.050781 18.644531 L 16.050781 18.820312 L 16.152344 18.820312 L 16.152344 18.90625 Z M 16.050781 18.90625 "/>
<path style=" stroke:none;fill-rule:nonzero;fill:rgb(0%,41.176471%,71.764706%);fill-opacity:1;" d="M 16.402344 19.449219 L 16.292969 19.449219 L 16.292969 18.820312 L 16.394531 18.820312 L 16.394531 18.921875 L 16.398438 18.921875 C 16.417969 18.882812 16.445312 18.855469 16.472656 18.832031 C 16.503906 18.8125 16.535156 18.800781 16.574219 18.800781 C 16.585938 18.800781 16.59375 18.800781 16.601562 18.804688 L 16.601562 18.914062 L 16.5625 18.914062 C 16.511719 18.914062 16.476562 18.929688 16.445312 18.960938 C 16.414062 18.996094 16.402344 19.035156 16.402344 19.082031 Z M 16.402344 19.449219 "/>
<path style=" stroke:none;fill-rule:nonzero;fill:rgb(0%,41.176471%,71.764706%);fill-opacity:1;" d="M 16.726562 18.703125 L 16.726562 18.585938 L 16.832031 18.585938 L 16.832031 18.703125 Z M 16.832031 19.449219 L 16.726562 19.449219 L 16.726562 18.820312 L 16.832031 18.820312 Z M 16.832031 19.449219 "/>
<path style=" stroke:none;fill-rule:nonzero;fill:rgb(0%,41.176471%,71.764706%);fill-opacity:1;" d="M 17.40625 19.03125 C 17.402344 18.988281 17.386719 18.953125 17.359375 18.929688 C 17.335938 18.90625 17.300781 18.894531 17.257812 18.894531 C 17.226562 18.894531 17.199219 18.902344 17.179688 18.917969 C 17.15625 18.929688 17.136719 18.949219 17.125 18.96875 C 17.109375 18.992188 17.101562 19.019531 17.09375 19.046875 C 17.089844 19.074219 17.085938 19.101562 17.085938 19.132812 C 17.085938 19.164062 17.085938 19.191406 17.09375 19.21875 C 17.097656 19.25 17.105469 19.273438 17.117188 19.296875 C 17.128906 19.320312 17.148438 19.339844 17.171875 19.355469 C 17.195312 19.367188 17.222656 19.375 17.257812 19.375 C 17.292969 19.375 17.324219 19.363281 17.351562 19.335938 C 17.378906 19.308594 17.398438 19.273438 17.40625 19.226562 L 17.507812 19.226562 C 17.507812 19.253906 17.5 19.28125 17.488281 19.308594 C 17.480469 19.335938 17.464844 19.363281 17.445312 19.386719 C 17.425781 19.410156 17.398438 19.429688 17.367188 19.445312 C 17.335938 19.460938 17.296875 19.464844 17.253906 19.464844 C 17.167969 19.464844 17.097656 19.4375 17.046875 19.378906 C 16.996094 19.320312 16.972656 19.246094 16.972656 19.152344 C 16.972656 19.101562 16.976562 19.054688 16.988281 19.011719 C 17 18.972656 17.019531 18.933594 17.046875 18.902344 C 17.070312 18.871094 17.101562 18.84375 17.140625 18.828125 C 17.179688 18.808594 17.222656 18.800781 17.273438 18.800781 C 17.3125 18.800781 17.347656 18.808594 17.375 18.820312 C 17.40625 18.832031 17.429688 18.851562 17.449219 18.871094 C 17.46875 18.894531 17.480469 18.917969 17.492188 18.945312 C 17.5 18.972656 17.507812 19.003906 17.507812 19.03125 Z M 17.40625 19.03125 "/>
<path style=" stroke:none;fill-rule:nonzero;fill:rgb(0%,41.176471%,71.764706%);fill-opacity:1;" d="M 18.402344 18.84375 C 18.394531 18.808594 18.378906 18.777344 18.363281 18.753906 C 18.34375 18.730469 18.324219 18.710938 18.300781 18.699219 C 18.28125 18.6875 18.257812 18.675781 18.230469 18.671875 C 18.207031 18.667969 18.183594 18.664062 18.160156 18.664062 C 18.078125 18.664062 18.011719 18.695312 17.957031 18.753906 C 17.902344 18.8125 17.878906 18.898438 17.878906 19.007812 C 17.878906 19.0625 17.882812 19.109375 17.890625 19.152344 C 17.902344 19.195312 17.917969 19.234375 17.941406 19.265625 C 17.964844 19.296875 17.992188 19.324219 18.03125 19.339844 C 18.066406 19.359375 18.113281 19.367188 18.164062 19.367188 C 18.1875 19.367188 18.210938 19.363281 18.234375 19.359375 C 18.257812 19.351562 18.28125 19.339844 18.304688 19.324219 C 18.328125 19.304688 18.347656 19.28125 18.367188 19.25 C 18.386719 19.21875 18.402344 19.179688 18.410156 19.128906 L 18.523438 19.128906 C 18.511719 19.207031 18.488281 19.265625 18.457031 19.316406 C 18.425781 19.363281 18.390625 19.398438 18.347656 19.417969 C 18.308594 19.441406 18.273438 19.453125 18.238281 19.460938 C 18.203125 19.46875 18.171875 19.472656 18.144531 19.472656 C 18.09375 19.472656 18.046875 19.460938 18 19.445312 C 17.953125 19.425781 17.910156 19.398438 17.875 19.363281 C 17.839844 19.328125 17.808594 19.277344 17.789062 19.21875 C 17.765625 19.160156 17.757812 19.089844 17.757812 19.011719 C 17.757812 18.945312 17.765625 18.882812 17.785156 18.828125 C 17.800781 18.773438 17.828125 18.726562 17.863281 18.6875 C 17.898438 18.644531 17.941406 18.617188 17.992188 18.59375 C 18.042969 18.570312 18.097656 18.5625 18.160156 18.5625 C 18.214844 18.5625 18.261719 18.570312 18.304688 18.585938 C 18.347656 18.597656 18.382812 18.621094 18.414062 18.648438 C 18.441406 18.671875 18.464844 18.703125 18.484375 18.738281 C 18.5 18.773438 18.511719 18.808594 18.515625 18.84375 Z M 18.402344 18.84375 "/>
<path style=" stroke:none;fill-rule:nonzero;fill:rgb(0%,41.176471%,71.764706%);fill-opacity:1;" d="M 18.65625 19.011719 C 18.667969 18.972656 18.6875 18.9375 18.710938 18.902344 C 18.734375 18.871094 18.765625 18.847656 18.804688 18.828125 C 18.839844 18.808594 18.882812 18.800781 18.929688 18.800781 C 18.980469 18.800781 19.023438 18.808594 19.058594 18.828125 C 19.097656 18.847656 19.128906 18.871094 19.152344 18.902344 C 19.175781 18.933594 19.191406 18.972656 19.207031 19.011719 C 19.21875 19.050781 19.222656 19.089844 19.222656 19.132812 C 19.222656 19.175781 19.21875 19.214844 19.207031 19.253906 C 19.195312 19.292969 19.175781 19.328125 19.152344 19.363281 C 19.128906 19.394531 19.097656 19.417969 19.058594 19.4375 C 19.023438 19.457031 18.980469 19.464844 18.929688 19.464844 C 18.882812 19.464844 18.839844 19.457031 18.804688 19.4375 C 18.765625 19.417969 18.734375 19.394531 18.710938 19.363281 C 18.6875 19.328125 18.667969 19.292969 18.65625 19.253906 C 18.644531 19.214844 18.636719 19.175781 18.636719 19.132812 C 18.636719 19.089844 18.644531 19.050781 18.65625 19.011719 Z M 18.757812 19.210938 C 18.761719 19.238281 18.773438 19.261719 18.785156 19.289062 C 18.796875 19.3125 18.816406 19.332031 18.839844 19.347656 C 18.863281 19.367188 18.894531 19.375 18.929688 19.375 C 18.96875 19.375 18.996094 19.367188 19.019531 19.347656 C 19.046875 19.332031 19.0625 19.3125 19.078125 19.289062 C 19.089844 19.261719 19.101562 19.238281 19.105469 19.210938 C 19.109375 19.183594 19.113281 19.15625 19.113281 19.132812 C 19.113281 19.109375 19.109375 19.082031 19.105469 19.054688 C 19.101562 19.027344 19.089844 19.003906 19.078125 18.976562 C 19.0625 18.953125 19.046875 18.933594 19.019531 18.917969 C 18.996094 18.902344 18.96875 18.894531 18.929688 18.894531 C 18.894531 18.894531 18.863281 18.902344 18.839844 18.917969 C 18.816406 18.933594 18.796875 18.953125 18.785156 18.976562 C 18.769531 19.003906 18.761719 19.027344 18.757812 19.054688 C 18.75 19.082031 18.746094 19.109375 18.746094 19.132812 C 18.746094 19.15625 18.75 19.183594 18.757812 19.210938 Z M 18.757812 19.210938 "/>
<path style=" stroke:none;fill-rule:nonzero;fill:rgb(0%,41.176471%,71.764706%);fill-opacity:1;" d="M 19.878906 19.449219 L 19.773438 19.449219 L 19.773438 19.0625 C 19.773438 19.003906 19.765625 18.960938 19.746094 18.9375 C 19.722656 18.910156 19.691406 18.894531 19.640625 18.894531 C 19.621094 18.894531 19.605469 18.898438 19.585938 18.90625 C 19.566406 18.910156 19.550781 18.921875 19.53125 18.9375 C 19.515625 18.953125 19.5 18.976562 19.488281 19.003906 C 19.480469 19.03125 19.472656 19.066406 19.472656 19.105469 L 19.472656 19.449219 L 19.367188 19.449219 L 19.367188 18.820312 L 19.46875 18.820312 L 19.46875 18.90625 C 19.476562 18.898438 19.488281 18.886719 19.496094 18.875 C 19.507812 18.863281 19.519531 18.851562 19.535156 18.839844 C 19.550781 18.828125 19.570312 18.820312 19.589844 18.8125 C 19.609375 18.804688 19.632812 18.800781 19.660156 18.800781 C 19.6875 18.800781 19.714844 18.804688 19.738281 18.808594 C 19.765625 18.816406 19.789062 18.828125 19.808594 18.84375 C 19.832031 18.859375 19.847656 18.882812 19.859375 18.914062 C 19.875 18.941406 19.878906 18.976562 19.878906 19.019531 Z M 19.878906 19.449219 "/>
<path style=" stroke:none;fill-rule:nonzero;fill:rgb(0%,41.176471%,71.764706%);fill-opacity:1;" d="M 20.417969 19 C 20.417969 18.984375 20.414062 18.972656 20.410156 18.960938 C 20.410156 18.949219 20.402344 18.941406 20.390625 18.929688 C 20.382812 18.917969 20.367188 18.910156 20.347656 18.902344 C 20.324219 18.894531 20.300781 18.890625 20.269531 18.890625 C 20.257812 18.890625 20.246094 18.894531 20.234375 18.894531 C 20.21875 18.898438 20.207031 18.902344 20.191406 18.90625 C 20.179688 18.914062 20.167969 18.921875 20.15625 18.9375 C 20.148438 18.949219 20.144531 18.964844 20.144531 18.980469 C 20.144531 19.003906 20.152344 19.023438 20.167969 19.035156 C 20.183594 19.042969 20.214844 19.054688 20.257812 19.066406 L 20.363281 19.09375 C 20.429688 19.109375 20.476562 19.128906 20.5 19.15625 C 20.527344 19.179688 20.542969 19.214844 20.542969 19.257812 C 20.542969 19.320312 20.519531 19.371094 20.472656 19.410156 C 20.425781 19.449219 20.363281 19.464844 20.292969 19.464844 C 20.234375 19.464844 20.1875 19.460938 20.148438 19.445312 C 20.113281 19.429688 20.085938 19.410156 20.066406 19.390625 C 20.050781 19.367188 20.039062 19.34375 20.03125 19.320312 C 20.027344 19.296875 20.023438 19.273438 20.019531 19.246094 L 20.125 19.246094 C 20.125 19.261719 20.128906 19.277344 20.132812 19.292969 C 20.136719 19.304688 20.140625 19.316406 20.152344 19.332031 C 20.164062 19.34375 20.183594 19.355469 20.207031 19.363281 C 20.226562 19.371094 20.257812 19.375 20.289062 19.375 C 20.332031 19.375 20.367188 19.367188 20.394531 19.351562 C 20.421875 19.332031 20.433594 19.308594 20.433594 19.273438 C 20.433594 19.25 20.425781 19.234375 20.40625 19.222656 C 20.390625 19.210938 20.355469 19.195312 20.308594 19.183594 L 20.1875 19.15625 C 20.140625 19.144531 20.105469 19.125 20.078125 19.101562 C 20.054688 19.078125 20.042969 19.042969 20.042969 19.003906 C 20.042969 18.96875 20.046875 18.9375 20.0625 18.914062 C 20.074219 18.886719 20.089844 18.867188 20.113281 18.847656 C 20.15625 18.816406 20.210938 18.800781 20.28125 18.800781 C 20.332031 18.800781 20.375 18.808594 20.40625 18.824219 C 20.441406 18.839844 20.464844 18.859375 20.480469 18.882812 C 20.496094 18.90625 20.507812 18.925781 20.511719 18.949219 C 20.515625 18.96875 20.519531 18.984375 20.519531 19 Z M 20.417969 19 "/>
<path style=" stroke:none;fill-rule:nonzero;fill:rgb(0%,41.176471%,71.764706%);fill-opacity:1;" d="M 20.816406 18.90625 L 20.816406 19.316406 C 20.816406 19.335938 20.824219 19.351562 20.835938 19.355469 C 20.847656 19.363281 20.863281 19.363281 20.878906 19.363281 L 20.917969 19.363281 L 20.917969 19.449219 C 20.910156 19.449219 20.890625 19.449219 20.867188 19.453125 C 20.851562 19.457031 20.839844 19.457031 20.835938 19.457031 C 20.789062 19.457031 20.757812 19.445312 20.738281 19.421875 C 20.71875 19.398438 20.710938 19.363281 20.710938 19.320312 L 20.710938 18.90625 L 20.625 18.90625 L 20.625 18.820312 L 20.710938 18.820312 L 20.710938 18.644531 L 20.816406 18.644531 L 20.816406 18.820312 L 20.917969 18.820312 L 20.917969 18.90625 Z M 20.816406 18.90625 "/>
<path style=" stroke:none;fill-rule:nonzero;fill:rgb(0%,41.176471%,71.764706%);fill-opacity:1;" d="M 21.164062 19.449219 L 21.058594 19.449219 L 21.058594 18.820312 L 21.160156 18.820312 L 21.160156 18.921875 C 21.183594 18.882812 21.210938 18.855469 21.238281 18.832031 C 21.265625 18.8125 21.300781 18.800781 21.339844 18.800781 C 21.347656 18.800781 21.359375 18.800781 21.367188 18.804688 L 21.367188 18.914062 L 21.328125 18.914062 C 21.277344 18.914062 21.238281 18.929688 21.210938 18.960938 C 21.179688 18.996094 21.164062 19.035156 21.164062 19.082031 Z M 21.164062 19.449219 "/>
<path style=" stroke:none;fill-rule:nonzero;fill:rgb(0%,41.176471%,71.764706%);fill-opacity:1;" d="M 21.898438 19.449219 L 21.898438 19.355469 L 21.894531 19.355469 C 21.871094 19.394531 21.84375 19.421875 21.816406 19.4375 C 21.785156 19.457031 21.746094 19.464844 21.695312 19.464844 C 21.671875 19.464844 21.644531 19.460938 21.621094 19.457031 C 21.597656 19.449219 21.578125 19.4375 21.558594 19.425781 C 21.539062 19.410156 21.519531 19.386719 21.507812 19.363281 C 21.496094 19.339844 21.492188 19.308594 21.492188 19.273438 L 21.492188 18.820312 L 21.597656 18.820312 L 21.597656 19.238281 C 21.597656 19.285156 21.609375 19.320312 21.628906 19.34375 C 21.652344 19.363281 21.679688 19.375 21.71875 19.375 C 21.75 19.375 21.777344 19.367188 21.800781 19.355469 C 21.824219 19.34375 21.839844 19.328125 21.855469 19.304688 C 21.867188 19.285156 21.875 19.261719 21.882812 19.238281 C 21.886719 19.214844 21.890625 19.191406 21.890625 19.164062 L 21.890625 18.820312 L 21.996094 18.820312 L 21.996094 19.449219 Z M 21.898438 19.449219 "/>
<path style=" stroke:none;fill-rule:nonzero;fill:rgb(0%,41.176471%,71.764706%);fill-opacity:1;" d="M 22.574219 19.03125 C 22.566406 18.988281 22.550781 18.953125 22.527344 18.929688 C 22.503906 18.90625 22.46875 18.894531 22.425781 18.894531 C 22.394531 18.894531 22.367188 18.902344 22.34375 18.917969 C 22.320312 18.929688 22.304688 18.949219 22.289062 18.96875 C 22.277344 18.992188 22.265625 19.019531 22.261719 19.046875 C 22.253906 19.074219 22.25 19.101562 22.25 19.132812 C 22.25 19.164062 22.253906 19.191406 22.257812 19.21875 C 22.261719 19.25 22.273438 19.273438 22.285156 19.296875 C 22.296875 19.320312 22.3125 19.339844 22.335938 19.355469 C 22.359375 19.367188 22.386719 19.375 22.421875 19.375 C 22.460938 19.375 22.492188 19.363281 22.519531 19.335938 C 22.546875 19.308594 22.566406 19.273438 22.574219 19.226562 L 22.675781 19.226562 C 22.671875 19.253906 22.664062 19.28125 22.65625 19.308594 C 22.644531 19.335938 22.632812 19.363281 22.609375 19.386719 C 22.589844 19.410156 22.566406 19.429688 22.535156 19.445312 C 22.5 19.460938 22.464844 19.464844 22.417969 19.464844 C 22.332031 19.464844 22.265625 19.4375 22.214844 19.378906 C 22.164062 19.320312 22.136719 19.246094 22.136719 19.152344 C 22.136719 19.101562 22.144531 19.054688 22.15625 19.011719 C 22.167969 18.972656 22.1875 18.933594 22.210938 18.902344 C 22.238281 18.871094 22.269531 18.84375 22.308594 18.828125 C 22.34375 18.808594 22.390625 18.800781 22.441406 18.800781 C 22.480469 18.800781 22.511719 18.808594 22.542969 18.820312 C 22.570312 18.832031 22.597656 18.851562 22.613281 18.871094 C 22.632812 18.894531 22.648438 18.917969 22.65625 18.945312 C 22.667969 18.972656 22.671875 19.003906 22.675781 19.03125 Z M 22.574219 19.03125 "/>
<path style=" stroke:none;fill-rule:nonzero;fill:rgb(0%,41.176471%,71.764706%);fill-opacity:1;" d="M 22.9375 18.90625 L 22.9375 19.316406 C 22.9375 19.335938 22.941406 19.351562 22.953125 19.355469 C 22.96875 19.363281 22.984375 19.363281 23 19.363281 L 23.039062 19.363281 L 23.039062 19.449219 C 23.027344 19.449219 23.011719 19.449219 22.988281 19.453125 C 22.972656 19.457031 22.960938 19.457031 22.957031 19.457031 C 22.910156 19.457031 22.875 19.445312 22.859375 19.421875 C 22.839844 19.398438 22.832031 19.363281 22.832031 19.320312 L 22.832031 18.90625 L 22.746094 18.90625 L 22.746094 18.820312 L 22.832031 18.820312 L 22.832031 18.644531 L 22.9375 18.644531 L 22.9375 18.820312 L 23.039062 18.820312 L 23.039062 18.90625 Z M 22.9375 18.90625 "/>
<path style=" stroke:none;fill-rule:nonzero;fill:rgb(0%,41.176471%,71.764706%);fill-opacity:1;" d="M 23.167969 18.703125 L 23.167969 18.585938 L 23.273438 18.585938 L 23.273438 18.703125 Z M 23.273438 19.449219 L 23.167969 19.449219 L 23.167969 18.820312 L 23.273438 18.820312 Z M 23.273438 19.449219 "/>
<path style=" stroke:none;fill-rule:nonzero;fill:rgb(0%,41.176471%,71.764706%);fill-opacity:1;" d="M 23.4375 19.011719 C 23.449219 18.972656 23.46875 18.9375 23.492188 18.902344 C 23.515625 18.871094 23.546875 18.847656 23.585938 18.828125 C 23.621094 18.808594 23.664062 18.800781 23.710938 18.800781 C 23.761719 18.800781 23.804688 18.808594 23.839844 18.828125 C 23.878906 18.847656 23.910156 18.871094 23.933594 18.902344 C 23.957031 18.933594 23.976562 18.972656 23.988281 19.011719 C 24 19.050781 24.003906 19.089844 24.003906 19.132812 C 24.003906 19.175781 24 19.214844 23.988281 19.253906 C 23.976562 19.292969 23.957031 19.328125 23.933594 19.363281 C 23.910156 19.394531 23.878906 19.417969 23.839844 19.4375 C 23.804688 19.457031 23.761719 19.464844 23.710938 19.464844 C 23.664062 19.464844 23.621094 19.457031 23.585938 19.4375 C 23.546875 19.417969 23.515625 19.394531 23.492188 19.363281 C 23.46875 19.328125 23.449219 19.292969 23.4375 19.253906 C 23.425781 19.214844 23.421875 19.175781 23.421875 19.132812 C 23.417969 19.089844 23.425781 19.050781 23.4375 19.011719 Z M 23.539062 19.210938 C 23.542969 19.238281 23.554688 19.261719 23.566406 19.289062 C 23.578125 19.3125 23.597656 19.332031 23.621094 19.347656 C 23.644531 19.367188 23.675781 19.375 23.710938 19.375 C 23.75 19.375 23.777344 19.367188 23.800781 19.347656 C 23.828125 19.332031 23.84375 19.3125 23.859375 19.289062 C 23.871094 19.261719 23.882812 19.238281 23.886719 19.210938 C 23.890625 19.183594 23.894531 19.15625 23.894531 19.132812 C 23.894531 19.109375 23.890625 19.082031 23.886719 19.054688 C 23.882812 19.027344 23.871094 19.003906 23.859375 18.976562 C 23.84375 18.953125 23.828125 18.933594 23.800781 18.917969 C 23.777344 18.902344 23.75 18.894531 23.710938 18.894531 C 23.675781 18.894531 23.644531 18.902344 23.621094 18.917969 C 23.597656 18.933594 23.578125 18.953125 23.566406 18.976562 C 23.550781 19.003906 23.542969 19.027344 23.539062 19.054688 C 23.53125 19.082031 23.53125 19.109375 23.53125 19.132812 C 23.53125 19.15625 23.53125 19.183594 23.539062 19.210938 Z M 23.539062 19.210938 "/>
<path style=" stroke:none;fill-rule:nonzero;fill:rgb(0%,41.176471%,71.764706%);fill-opacity:1;" d="M 24.660156 19.449219 L 24.554688 19.449219 L 24.554688 19.0625 C 24.554688 19.003906 24.546875 18.960938 24.527344 18.9375 C 24.503906 18.910156 24.46875 18.894531 24.421875 18.894531 C 24.402344 18.894531 24.386719 18.898438 24.367188 18.90625 C 24.347656 18.910156 24.332031 18.921875 24.3125 18.9375 C 24.296875 18.953125 24.28125 18.976562 24.269531 19.003906 C 24.261719 19.03125 24.253906 19.066406 24.253906 19.105469 L 24.253906 19.449219 L 24.148438 19.449219 L 24.148438 18.820312 L 24.25 18.820312 L 24.25 18.90625 C 24.257812 18.898438 24.269531 18.886719 24.277344 18.875 C 24.289062 18.863281 24.300781 18.851562 24.316406 18.839844 C 24.332031 18.828125 24.351562 18.820312 24.371094 18.8125 C 24.390625 18.804688 24.414062 18.800781 24.441406 18.800781 C 24.46875 18.800781 24.496094 18.804688 24.519531 18.808594 C 24.546875 18.816406 24.570312 18.828125 24.589844 18.84375 C 24.613281 18.859375 24.628906 18.882812 24.640625 18.914062 C 24.65625 18.941406 24.660156 18.976562 24.660156 19.019531 Z M 24.660156 19.449219 "/>
</g>
</svg>
